<svg width="40" height="40" viewBox="0 0 40 40" fill="none" xmlns="http://www.w3.org/2000/svg">
<mask id="mask0_3_33" style="mask-type:luminance" maskUnits="userSpaceOnUse" x="0" y="0" width="40" height="40">
<path d="M40 0H0V40H40V0Z" fill="white"/>
</mask>
<g mask="url(#mask0_3_33)">
<mask id="mask1_3_33" style="mask-type:luminance" maskUnits="userSpaceOnUse" x="1" y="0" width="40" height="40">
<path d="M39.6364 16.3636H21V24.0909H31.7273C30.7273 29 26.5455 31.8182 21 31.8182C14.4545 31.8182 9.18182 26.5455 9.18182 20C9.18182 13.4546 14.4545 8.18182 21 8.18182C23.8182 8.18182 26.3636 9.18182 28.3636 10.8182L34.1818 5C30.6364 1.90909 26.0909 0 21 0C9.90909 0 1 8.90909 1 20C1 31.0909 9.90909 40 21 40C31 40 40.0909 32.7273 40.0909 20C40.0909 18.8182 39.9091 17.5455 39.6364 16.3636Z" fill="white"/>
</mask>
<g mask="url(#mask1_3_33)">
<path d="M-0.8125 31.8161V8.17969L14.642 19.9979L-0.8125 31.8161Z" fill="#FBBC05"/>
</g>
<mask id="mask2_3_33" style="mask-type:luminance" maskUnits="userSpaceOnUse" x="1" y="0" width="40" height="40">
<path d="M39.6364 16.3636H21V24.0909H31.7273C30.7273 29 26.5455 31.8182 21 31.8182C14.4545 31.8182 9.18182 26.5455 9.18182 20C9.18182 13.4546 14.4545 8.18182 21 8.18182C23.8182 8.18182 26.3636 9.18182 28.3636 10.8182L34.1818 5C30.6364 1.90909 26.0909 0 21 0C9.90909 0 1 8.90909 1 20C1 31.0909 9.90909 40 21 40C31 40 40.0909 32.7273 40.0909 20C40.0909 18.8182 39.9091 17.5455 39.6364 16.3636Z" fill="white"/>
</mask>
<g mask="url(#mask2_3_33)">
<path d="M-0.8125 8.17969L14.6421 19.9979L21.0057 14.4524L42.8239 10.907V-1.82031H-0.8125V8.17969Z" fill="#EA4335"/>
</g>
<mask id="mask3_3_33" style="mask-type:luminance" maskUnits="userSpaceOnUse" x="1" y="0" width="40" height="40">
<path d="M39.6364 16.3636H21V24.0909H31.7273C30.7273 29 26.5455 31.8182 21 31.8182C14.4545 31.8182 9.18182 26.5455 9.18182 20C9.18182 13.4546 14.4545 8.18182 21 8.18182C23.8182 8.18182 26.3636 9.18182 28.3636 10.8182L34.1818 5C30.6364 1.90909 26.0909 0 21 0C9.90909 0 1 8.90909 1 20C1 31.0909 9.90909 40 21 40C31 40 40.0909 32.7273 40.0909 20C40.0909 18.8182 39.9091 17.5455 39.6364 16.3636Z" fill="white"/>
</mask>
<g mask="url(#mask3_3_33)">
<path d="M-0.8125 31.8161L26.4602 10.907L33.6421 11.8161L42.8239 -1.82031V41.8161H-0.8125V31.8161Z" fill="#34A853"/>
</g>
<mask id="mask4_3_33" style="mask-type:luminance" maskUnits="userSpaceOnUse" x="1" y="0" width="40" height="40">
<path d="M39.6364 16.3636H21V24.0909H31.7273C30.7273 29 26.5455 31.8182 21 31.8182C14.4545 31.8182 9.18182 26.5455 9.18182 20C9.18182 13.4546 14.4545 8.18182 21 8.18182C23.8182 8.18182 26.3636 9.18182 28.3636 10.8182L34.1818 5C30.6364 1.90909 26.0909 0 21 0C9.90909 0 1 8.90909 1 20C1 31.0909 9.90909 40 21 40C31 40 40.0909 32.7273 40.0909 20C40.0909 18.8182 39.9091 17.5455 39.6364 16.3636Z" fill="white"/>
</mask>
<g mask="url(#mask4_3_33)">
<path d="M42.8182 41.8161L14.6364 19.9979L11 17.2706L42.8182 8.17969V41.8161Z" fill="#4285F4"/>
</g>
</g>
</svg>
