<svg width="1520" height="638" viewBox="0 0 1520 638" fill="none" xmlns="http://www.w3.org/2000/svg">
<g clip-path="url(#clip0_288_37)">
<mask id="mask0_288_37" style="mask-type:alpha" maskUnits="userSpaceOnUse" x="0" y="0" width="1520" height="638">
<path d="M1510 0H10C4.47715 0 0 4.47715 0 10V628C0 633.523 4.47715 638 10 638H1510C1515.52 638 1520 633.523 1520 628V10C1520 4.47715 1515.52 0 1510 0Z" fill="#1C1C1C"/>
</mask>
<g mask="url(#mask0_288_37)">
</g>
<g opacity="0.3" clip-path="url(#clip1_288_37)">
<path d="M539.473 34.0267L494.72 51.2527L472.291 59.8657L493.232 0H492.169L471.122 59.7593L457.622 43.384L433.279 13.9297L455.283 4.466L465.7 0H463.043L433.279 12.76L437.637 0H436.468L432.216 12.6537L421.798 0H420.417L431.578 13.5043L379.81 35.6217L373.326 38.3863L385.975 0H384.806L372.156 38.28L342.499 0H341.223L371.625 39.1307L368.223 40.6193L318.05 62.0987L337.821 0H336.652L316.774 61.886L286.691 20.8413L311.884 9.03833L331.125 0H328.573L286.904 19.5653L292.963 0H291.9L285.841 19.459L271.597 0H270.321L285.203 20.416L273.51 25.839L238.112 42.5333L250.974 0H249.911L237.049 42.3207L210.687 4.25333L218.978 0H216.639L210.793 2.97733L211.643 0H210.58L209.73 2.871L207.71 0H206.435L209.092 3.828L167.423 25.201L174.651 0H173.588L166.36 24.9883L158.387 12.8663L149.883 0H148.607L158.068 14.355L165.722 26.0517L152.647 32.7507L126.922 45.936L139.891 0H138.828L125.966 45.617L104.28 11.0587L124.158 0H121.926L104.387 9.78267L107.044 0H105.981L103.324 9.46367L97.3708 0H96.0952L102.792 10.6333L68.032 29.7733L76.0045 0H74.9415L66.969 29.5607L60.2721 18.2893L49.4295 0H48.1539L59.9532 19.6717L66.5438 30.624L34.016 48.7007L46.772 0H45.709L32.953 48.3817L30.6144 44.341L14.882 16.6943L19.8781 13.717L42.9452 0H40.8192L19.9844 12.441L14.9883 15.4183L19.0277 0H17.9647L14.1379 15.0993L5.4213 0H4.1457L13.3938 16.269L0 24.3503V25.52L13.3938 17.545L0.9567 66.033L0 64.3317V66.5647L0.3189 67.2027L0 67.4153V68.585L0.2126 68.4787L0 69.542V73.7953L1.2756 68.904L6.378 78.3677L18.8151 101.123L8.1851 106.546L0 110.799V111.969L8.2914 107.716L18.7088 102.399L6.1654 150.568L0 138.871V141.211L5.5276 151.844L0 154.396V155.566L5.4213 153.014L0 173.749V177.896L6.4843 153.333L12.4371 164.817L24.3427 187.572L17.8584 190.337L0 198.099V199.269L17.3269 191.825L24.2364 188.848L11.3741 236.592L2.5512 218.94L0 213.836V216.176L2.0197 220.11L10.8426 237.761L0 242.015V243.184L10.7363 239.037L0 279.125V283.272L11.693 239.675L29.8703 275.935L24.0238 277.955L0 286.143V287.313L24.3427 278.912L29.8703 276.998L23.5986 299.966L16.9017 324.317L0 289.439V291.885L16.2639 325.593L0 330.484V331.547L16.1576 326.656L3.4016 373.017L0 365.574V368.126L2.8701 374.293L0 375.038V376.101L2.8701 375.357L0.7441 382.906L0 385.671V389.712L1.5945 383.863L3.7205 376.207L21.6852 415.125L0 419.698V420.761L6.378 419.379L21.7915 416.082L15.0946 439.795L8.8229 462.018L0 442.347V445.005L8.0788 463.294L1.5945 464.464L0 464.677V465.74L1.1693 465.527L8.1851 464.358L0 493.28V497.215L9.0355 465.208L22.1104 494.556L27.3191 506.253L0 509.762V510.825L27.3191 507.316L14.2442 552.827L0 519.757V522.416L13.5001 553.997L0 555.166V556.23L13.6064 555.06L0.7441 599.614L0 597.806V600.571L0.1063 600.677H0V601.74H0.1063L0 602.166V605.994L0.9567 602.804L15.5198 638H16.6891L15.945 636.086L1.5945 601.634L33.0593 600.358L31.0396 607.057L21.8978 638H22.9608L31.5711 608.865L33.8034 601.421L39.0121 613.543L49.5358 638.106H50.7051L40.0751 613.331L34.5475 600.358L61.1225 599.295L68.1383 598.976L56.7642 636.511L56.339 638H57.402L68.9887 599.933L85.9967 638H87.166L69.7328 598.869L105.662 597.381L101.729 609.928L92.9062 638H93.9692L102.58 610.46L106.406 598.338L121.714 631.407L124.796 638H125.966L122.245 630.025L107.15 597.274L117.674 596.849L145.631 595.679L133.938 632.258L132.131 638H133.194L134.363 634.278L146.481 596.53L166.36 638H167.529L147.119 595.679L188.47 593.978L174.119 638H175.289L189.533 594.722L211.218 638H212.387L190.277 593.872L234.923 592.064L226.313 617.371L219.297 638.106H220.466L227.163 618.328L235.773 592.915L239.494 600.039L259.372 638.106H260.541L240.344 599.401L236.518 592.064L260.541 591.107L284.671 590.15L267.663 638H268.833L285.522 590.682L311.246 638H312.416L286.16 589.831L338.353 587.704L332.506 603.761L320.176 638H321.345L333.676 604.08L339.416 588.449L367.692 638H368.967L340.266 587.598L396.924 585.259L388.845 606.632L376.94 638H378.109L389.696 607.376L397.775 586.003L427.113 635.129L428.814 638.106H430.09L429.133 636.405L398.625 585.259L460.492 582.707L438.7 638H439.869L461.236 583.238L495.464 638H496.74L462.086 582.6L495.039 581.218L529.693 579.729L506.094 638H507.264L530.65 580.367L568.599 638H569.874L531.5 579.729L605.804 576.646L579.867 638H581.036L606.76 577.177L648.962 638H650.237L607.611 576.539L689.674 573.137L675.218 605.994L661.08 638H662.249L676.174 606.525L690.737 573.668L737.935 638.106H739.21L691.588 573.137L782.581 569.309L750.797 638H751.966L783.537 569.734L822.868 620.455L836.581 638.106H837.963L823.825 619.923L784.494 569.202L885.904 564.949L850.506 638H851.676L886.861 565.374L946.814 638H948.196L887.924 564.949L1001.77 560.27L969.988 622.582L962.121 638.106H963.291L970.625 623.645L1002.83 560.589L1063.21 629.174V627.579L1003.9 560.164L1003.37 559.632L1003.58 559.101H1002.94L1002.83 558.994L1002.62 558.782L930.019 476.373L930.231 475.842L929.594 475.948L929.275 475.523L862.625 399.813L862.199 399.282L862.412 398.75L861.774 398.856L799.589 328.145L799.163 327.719L799.376 327.081L798.738 327.188L740.911 261.367L740.486 260.942L740.805 260.304L740.061 260.41L685.635 198.524L685.954 197.886L685.21 198.099L684.891 197.674L634.292 140.254L634.611 139.509L633.867 139.722L633.548 139.297L586.457 85.811L586.138 85.492L586.457 84.7477L585.713 85.0667L541.173 34.452L540.854 34.133L541.173 33.2823L540.429 33.6013L510.984 0H509.602L539.473 34.0267ZM471.441 61.886L511.516 110.48L481.114 120.901L446.46 132.81L471.441 61.886ZM725.179 492.855L679.257 433.734L672.029 424.376L715.08 418.847L760.47 412.999L725.179 492.855ZM761.427 413.318L776.628 431.713L820.742 485.199L772.27 489.346L726.242 493.28L761.427 413.318ZM589.221 433.415L581.674 423.207L544.256 372.167L566.792 368.339L619.304 359.3L589.221 433.415ZM620.367 359.513L654.489 403.429L670.009 423.419L607.823 431.394L590.178 433.627L620.367 359.513ZM478.456 368.445L473.141 382.587L434.767 327.294L499.291 313.471L478.456 368.445ZM500.248 313.79L519.701 340.267L542.449 371.316L527.035 373.974L474.098 383.119L479.945 367.594L500.248 313.79ZM264.368 268.704L284.884 301.455L237.262 313.79L243.533 294.118L255.97 255.306L264.368 268.704ZM256.608 254.349L276.486 248.395L305.613 239.675L301.786 251.372L285.522 300.604L265.112 267.96L256.608 254.349ZM242.364 294.331L236.305 313.258L209.624 268.492L232.053 261.793L255.014 254.881L242.364 294.331ZM124.477 295.075L145.525 333.78L147.332 337.077L109.17 346.966L124.477 295.075ZM124.158 292.31L102.261 252.223L139.785 239.356L124.158 292.31ZM145.525 331.654L125.009 294.012L157.218 284.335L164.234 282.209L147.97 336.013L145.525 331.654ZM165.19 282.74L179.753 308.26L189.852 326.018L148.82 336.545L165.19 282.74ZM180.497 307.41L165.828 281.677L207.923 269.023L190.49 325.061L180.497 307.41ZM208.986 269.555L235.667 314.215L226.1 316.661L191.553 325.593L208.986 269.555ZM229.608 261.367L209.624 267.428L227.588 209.902L251.506 248.076L255.12 253.818L229.608 261.367ZM208.667 266.897L191.765 238.506L183.261 224.257L226.525 209.37L208.667 266.897ZM190.915 239.356L207.923 267.96L165.828 280.614L176.245 246.162L182.517 225.427L190.915 239.356ZM176.883 240.739L164.978 280.082L149.564 252.967L141.485 238.718L181.773 224.895L176.883 240.739ZM148.714 253.818L164.234 281.039L158.387 282.847L125.009 292.842L140.741 239.782L148.714 253.818ZM102.261 251.053L117.355 198.737L133.088 226.384L139.785 238.08L102.261 251.053ZM101.41 250.415L80.5754 212.029L104.599 202.778L116.505 198.205L101.41 250.415ZM101.623 253.286L123.414 293.374L86.8471 304.326L101.623 253.286ZM105.024 299.966L123.414 294.437L108.107 346.221L86.8471 305.496L105.024 299.966ZM108.426 348.986L130.643 391.626L111.615 395.666L101.942 397.793L93.4377 399.601L108.426 348.986ZM109.064 347.923L147.226 338.034L131.281 390.562L109.064 347.923ZM148.182 338.672L153.285 348.029L172.1 382.587L142.442 388.967L132.237 391.2L148.182 338.672ZM148.82 337.715L169.123 332.504L189.852 327.188L172.844 381.737L148.82 337.715ZM190.809 327.719L216.639 373.124L205.691 375.463L173.694 382.375L190.809 327.719ZM191.446 326.656L225.569 317.83L235.561 315.278L229.395 334.525L217.384 372.167L191.446 326.656ZM230.565 334.418L236.518 315.81L264.581 362.809L218.34 372.805L230.565 334.418ZM237.262 314.853L260.754 308.792L284.884 302.518L265.325 361.852L237.262 314.853ZM285.841 303.05L294.77 317.299L316.243 351.644L298.065 355.579L266.175 362.49L285.841 303.05ZM295.408 316.342L286.585 302.199L311.991 295.607L338.14 288.801L319.113 344.733L317.093 350.794L295.408 316.342ZM319.325 347.072L338.991 289.227L365.459 329.421L372.156 339.629L353.129 343.776L317.837 351.325L319.325 347.072ZM367.267 330.271L339.735 288.376L395.755 273.915L383.637 308.367L372.9 338.884L367.267 330.271ZM384.593 308.792L396.712 274.446L410.424 294.331L432.854 326.656L373.751 339.31L384.593 308.792ZM396.393 272.001L362.164 222.556L419.885 205.223L396.393 272.001ZM395.755 272.851L339.735 287.313L361.42 223.513L395.755 272.851ZM338.778 286.887L307.313 239.144L350.046 226.277L360.463 223.194L338.778 286.887ZM338.034 287.738L314.754 293.693L286.479 301.03L302.636 252.223L306.676 239.994L338.034 287.738ZM306.357 237.655L290.199 213.092L276.486 192.357L326.979 175.025L315.817 208.839L306.357 237.655ZM289.561 214.049L305.613 238.506L276.593 247.225L256.608 253.286L262.03 236.379L275.849 193.314L289.561 214.049ZM261.179 235.635L255.652 252.861L252.144 247.225L228.226 209.051L274.892 192.995L261.179 235.635ZM227.163 207.35L204.628 171.409L201.013 165.561L219.51 158.437L245.553 148.441L227.163 207.35ZM203.883 172.154L226.525 208.413L183.261 223.3L200.482 166.731L203.883 172.154ZM182.305 222.768L159.556 184.701L158.068 182.149L181.348 173.111L199.419 166.199L182.305 222.768ZM158.493 184.914L181.667 223.725L141.379 237.549L157.43 183.212L158.493 184.914ZM140.422 237.123L133.3 224.682L117.993 197.674L156.474 182.787L140.422 237.123ZM117.036 195.972L95.5637 158.33L118.099 148.654L132.45 142.487L117.036 195.972ZM116.399 197.142L98.3275 204.16L80.5754 210.965L89.1857 180.341L95.0322 159.394L116.399 197.142ZM88.229 179.81L79.6187 210.434L59.6343 173.749L65.6934 171.197L94.0755 159.075L88.229 179.81ZM79.8313 213.198L100.666 251.478L65.5871 263.494L67.9257 255.2L79.8313 213.198ZM100.772 252.648L86.103 303.688L65.7997 264.77L100.772 252.648ZM86.3156 306.559L107.576 347.285L97.796 349.837L71.9651 356.536L80.1502 327.932L86.3156 306.559ZM97.2645 351.006L107.576 348.348L92.5873 398.856L87.4849 388.648L71.8588 357.493L97.2645 351.006ZM92.9062 401.727L103.961 423.738L114.591 445.005L94.9259 448.408L78.3431 451.279L92.9062 401.727ZM77.9179 448.727L77.3864 450.322L74.7289 444.899L57.1894 408.533L76.7486 404.279L91.9495 400.983L77.9179 448.727ZM104.599 422.675L93.544 400.664L115.336 395.985L130.749 392.689L120.332 426.928L115.123 443.942L104.599 422.675ZM121.076 428.204L131.599 393.433L136.914 403.748L154.879 438.093L135.001 441.496L115.973 444.792L121.076 428.204ZM138.084 403.535L132.237 392.37L141.379 390.456L172.1 383.863L161.789 416.827L155.517 437.03L138.084 403.535ZM162.745 417.677L173.163 384.395L191.34 417.784L198.25 430.544L156.474 437.774L162.745 417.677ZM191.446 415.87L173.801 383.438L206.222 376.42L216.746 374.187L198.994 429.587L191.446 415.87ZM217.596 374.825L244.809 422.569L199.844 430.331L217.596 374.825ZM218.34 373.868L264.687 363.873L245.553 421.612L218.34 373.868ZM265.537 364.404L272.128 375.463L294.983 413.849L246.403 422.25L265.537 364.404ZM272.766 374.506L266.175 363.554L297.959 356.748L316.243 352.814L295.727 413.105L272.766 374.506ZM317.306 353.239L339.841 389.18L349.408 404.492L296.79 413.53L317.306 353.239ZM340.266 388.01L317.943 352.389L344.625 346.647L372.263 340.692L350.152 403.748L340.266 388.01ZM373.219 341.224L408.298 394.497L363.227 402.259L351.003 404.386L373.219 341.224ZM373.963 340.373L402.983 334.099L433.066 327.613L409.042 393.646L373.963 340.373ZM434.023 328.038L472.397 383.332L440.507 388.861L409.999 394.071L434.023 328.038ZM434.661 326.231L459.429 258.177L486.323 294.969L499.079 312.407L434.661 326.231ZM433.704 325.805L410.318 292.098L397.456 273.489L443.271 261.686L458.472 257.752L433.704 325.805ZM443.271 260.623L397.349 272.426L420.842 205.542L458.259 256.689L443.271 260.623ZM420.629 203.309L385.231 155.034L432.322 138.871L444.759 134.618L420.629 203.309ZM419.885 204.16L362.164 221.492L365.991 210.115L384.487 155.778L419.885 204.16ZM365.459 208.413L361.101 221.173L334.207 182.362L328.68 174.387L332.4 173.111L383.53 155.566L365.459 208.413ZM333.144 182.681L360.463 222.024L349.727 225.214L307.313 237.974L316.88 209.158L328.042 175.237L333.144 182.681ZM301.148 182.787L276.593 191.187L296.364 129.514L317.518 159.925L327.191 173.749L301.148 182.787ZM275.53 190.868L260.01 167.369L247.254 147.803L271.915 138.34L295.301 129.301L275.53 190.868ZM259.478 168.326L274.892 191.825L228.226 207.882L246.616 148.867L259.478 168.326ZM219.297 157.48L201.12 164.498L218.765 106.44L245.659 147.272L219.297 157.48ZM200.057 164.072L175.182 124.304L196.23 115.265L200.588 113.351L217.596 106.014L200.057 164.072ZM199.419 165.136L181.135 172.154L158.068 181.086L169.974 140.785L174.545 125.367L199.419 165.136ZM168.804 140.998L157.111 180.66L156.686 179.916L134.044 141.955L153.072 133.767L173.588 125.048L168.804 140.998ZM156.474 181.617L117.993 196.504L133.407 143.018L156.474 181.617ZM117.78 147.697L95.67 157.161L110.446 104.419L132.45 141.317L117.78 147.697ZM94.7133 156.735L74.1974 120.688L83.2329 116.435L109.489 104.1L94.7133 156.735ZM94.0755 157.799L63.78 170.771L59.6343 172.579L71.221 130.365L73.5596 121.858L94.0755 157.799ZM70.2643 129.939L58.6776 172.047L39.5436 136.957L72.6029 121.433L70.2643 129.939ZM58.9965 174.918L73.0281 200.757L78.8746 211.603L77.2801 212.241L45.2838 224.576L47.4098 216.707L58.9965 174.918ZM75.2604 214.155L78.9809 212.773L67.3942 253.924L64.843 263.069L45.3901 225.746L75.2604 214.155ZM65.0556 265.833L85.3589 304.751L70.6895 309.217L51.2366 315.066L65.0556 265.833ZM70.6895 310.281L85.3589 305.921L79.2998 327.081L71.0084 355.685L56.2327 326.124L51.2366 316.129L70.6895 310.281ZM71.3273 358.662L87.166 390.243L92.0558 399.92L76.7486 403.216L57.2957 407.363L71.3273 358.662ZM75.5793 449.046L76.7486 451.491L42.8389 457.233L56.5516 409.596L75.5793 449.046ZM59.6343 455.532L76.7486 452.555L75.7919 455.745L62.5044 500.724L51.5555 477.118L42.8389 458.297L59.6343 455.532ZM73.2407 468.186L77.599 453.405L98.6464 497.215L80.6817 499.554L63.3548 501.787L73.2407 468.186ZM78.3431 452.236L96.2015 449.152L114.591 445.962L108.532 465.953L99.3905 495.939L78.3431 452.236ZM109.383 466.591L115.442 446.706L127.029 469.781L138.084 491.898L118.843 494.344L100.241 496.683L109.383 466.591ZM127.666 468.824L116.08 445.749L132.025 442.985L154.985 439.05L152.647 446.706L138.828 491.047L127.666 468.824ZM140.635 488.389L155.836 439.795L164.659 456.702L180.285 486.581L139.678 491.792L140.635 488.389ZM165.084 455.213L156.474 438.731L198.25 431.501L188.576 461.487L180.923 485.518L165.084 455.213ZM189.533 462.337L199.206 432.245L225.569 480.733L197.399 484.348L181.879 486.369L189.533 462.337ZM199.844 431.394L244.809 423.632L226.206 479.882L199.844 431.394ZM245.766 424.27L274.36 474.459L252.569 477.224L227.163 480.52L245.766 424.27ZM246.51 423.313L295.089 414.913L275.104 473.502L246.51 423.313ZM296.046 415.551L327.191 467.654L312.841 469.462L276.061 474.247L296.046 415.551ZM296.79 414.7L349.408 405.662L327.829 466.91L296.79 414.7ZM350.365 406.193L370.562 438.519L384.275 460.317L328.786 467.441L350.365 406.193ZM371.731 438.306L351.109 405.343L361.952 403.429L408.298 395.454L396.605 427.673L385.019 459.573L371.731 438.306ZM397.562 428.204L409.255 395.985L446.354 452.342L385.975 460.104L397.562 428.204ZM409.999 395.241L472.397 384.501L470.165 390.562L447.098 451.704L409.999 395.241ZM471.334 390.562L473.46 384.927L489.193 407.682L514.173 443.623L480.37 447.982L448.161 452.129L471.334 390.562ZM490.149 407.257L474.098 384.182L507.476 378.44L542.343 372.486L526.504 413.105L514.811 442.985L490.149 407.257ZM527.78 413.105L543.512 372.805L580.823 423.738L588.371 434.053L551.272 438.838L515.874 443.41L527.78 413.105ZM563.922 367.594L544.15 370.997L561.796 326.018L572.638 298.159L610.268 346.647L619.198 358.131L563.922 367.594ZM560.839 325.486L543.193 370.678L520.445 339.629L500.992 313.152L543.831 303.901L571.681 297.946L560.839 325.486ZM543.831 302.731L500.886 311.982L525.335 247.225L527.886 240.526L549.358 268.279L571.575 296.883L543.831 302.731ZM524.909 245.205L499.929 311.557L487.386 294.437L460.173 257.327L498.228 247.544L526.823 240.101L524.909 245.205ZM497.484 246.587L460.173 256.263L485.685 186.083L489.724 191.294L526.823 239.037L497.484 246.587ZM459.11 255.944L421.586 204.798L484.515 185.871L459.11 255.944ZM421.586 203.628L445.822 134.724L484.622 184.595L421.586 203.628ZM445.503 132.598L408.936 85.492L420.204 81.1323L470.484 61.7797L445.503 132.598ZM444.759 133.448L435.086 136.745L385.231 153.864L408.192 86.3427L444.759 133.448ZM384.168 153.652L350.684 107.928L378.534 97.1887L407.129 86.13L384.168 153.652ZM383.424 154.502L332.188 172.154L328.68 173.323L334.632 155.353L349.94 108.885L383.424 154.502ZM333.569 155.14L327.617 173.004L318.475 159.925L296.896 128.663L348.877 108.566L333.569 155.14ZM295.939 127.175L280.526 104.951L266.813 85.0667L291.262 74.646L316.243 63.9063L295.939 127.175ZM279.888 105.908L295.301 128.132L271.915 137.17L247.254 146.634L252.781 128.982L266.175 86.13L279.888 105.908ZM251.612 129.089L246.297 146.315L219.403 105.376L265.219 85.811L251.612 129.089ZM218.34 103.888L198.356 73.4763L192.722 64.8633L205.478 58.9087L236.411 44.341L222.38 90.596L218.34 103.888ZM217.702 104.951L195.592 114.415L175.182 123.134L184.005 93.467L192.084 66.033L217.702 104.951ZM183.049 93.0417L174.226 122.815L153.178 89.2137L150.415 84.854L191.021 65.8203L183.049 93.0417ZM152.541 90.0643L173.694 123.878L153.178 132.598L134.151 140.785L136.914 131.322L149.883 85.9173L152.541 90.0643ZM135.426 132.385L133.194 140.254L111.19 103.25L149.033 85.492L135.426 132.385ZM110.127 101.761L89.0794 66.4583L102.367 59.653L125.328 47.9563L110.127 101.761ZM109.595 102.931L83.4455 115.265L74.3037 119.519L88.5479 67.628L109.595 102.931ZM86.8471 69.3293L73.2407 119.093L63.5674 102.186L53.5752 84.6413L62.0792 80.2817L87.3786 67.309L86.8471 69.3293ZM58.0398 94.6367L72.6029 120.263L39.5436 135.788L41.457 128.663L52.9374 85.811L58.0398 94.6367ZM40.0751 129.939L38.5869 135.256L20.3033 101.655L46.9846 88.044L52.087 85.3857L40.0751 129.939ZM39.0121 138.127L58.1461 173.217L25.9372 187.04L39.0121 138.127ZM41.8822 181.298L58.0398 174.387L44.4334 223.938L36.3546 208.413L25.8309 188.21L41.8822 181.298ZM44.7523 226.809L64.2052 264.132L62.9296 264.557L36.5672 273.596L31.4648 275.297L42.2011 236.06L44.7523 226.809ZM64.0989 265.195L50.2799 314.321L40.9255 295.607L31.3585 276.467L64.0989 265.195ZM50.5988 317.299L56.1264 328.357L70.3706 356.748L37.0987 365.361L50.5988 317.299ZM70.3706 357.918L56.339 406.619L37.0987 366.531L70.3706 357.918ZM55.7012 407.788L23.1734 414.7L36.4609 367.594L55.7012 407.788ZM55.7012 408.852L41.9885 456.489L23.1734 415.87L55.7012 408.852ZM42.2011 459.466L50.9177 478.287L61.7603 501.787L44.0082 504.126L28.701 506.04L42.2011 459.466ZM44.0082 505.19L61.8666 502.85L59.8469 509.656L47.9413 550.062L46.772 547.51L28.8073 507.21L44.0082 505.19ZM61.0162 509.762L62.8233 503.807L83.3392 548.042L48.898 551.019L61.0162 509.762ZM63.3548 502.744L98.6464 498.172L83.8707 547.085L63.3548 502.744ZM99.6031 499.022L119.481 540.28L121.607 544.746L84.7211 547.936L99.6031 499.022ZM118.418 535.707L100.241 497.959L138.084 493.068L122.245 543.789L118.418 535.707ZM138.934 493.918L151.052 518.162L162.639 541.343L123.095 544.746L138.934 493.918ZM151.796 517.099L139.678 492.855L146.163 492.004L180.285 487.645L164.659 536.345L163.383 540.386L151.796 517.099ZM165.084 538.685L181.242 488.389L205.372 534.644L206.86 537.515L190.809 538.897L164.34 541.13L165.084 538.685ZM206.116 533.793L181.879 487.432L197.399 485.412L225.675 481.796L207.604 536.558L206.116 533.793ZM226.525 482.541L254.27 533.474L240.344 534.644L208.454 537.409L226.525 482.541ZM227.269 481.584L252.675 478.287L274.467 475.523L255.014 532.624L227.269 481.584ZM275.423 476.161L287.754 497.853L305.506 529.008L264.9 532.517L255.97 533.262L275.423 476.161ZM288.605 497.215L276.167 475.31L312.947 470.525L327.298 468.717L306.357 528.264L288.605 497.215ZM328.148 469.355L350.896 507.529L360.889 524.33L322.408 527.626L307.101 528.902L328.148 469.355ZM358.018 517.312L328.892 468.505L384.381 461.38L378.322 477.862L361.739 523.585L358.018 517.312ZM379.066 479.244L385.338 462.018L421.161 519.332L414.889 519.864L362.589 524.33L379.066 479.244ZM386.082 461.168L446.46 453.405L421.905 518.481L386.082 461.168ZM447.417 453.937L486.748 513.696L454.114 516.461L422.861 519.119L447.417 453.937ZM448.161 453.193L498.653 446.706L514.173 444.686L487.492 512.952L448.161 453.193ZM515.236 445.111L558.5 507.529L488.555 513.484L515.236 445.111ZM515.98 444.473L553.504 439.688L588.477 435.222L572.213 475.31L559.351 506.997L515.98 444.473ZM573.17 475.735L589.434 435.541L637.269 500.83L565.41 506.997L560.307 507.423L573.17 475.735ZM590.284 434.903L607.717 432.67L670.115 424.589L656.509 456.595L638.119 500.192L590.284 434.903ZM657.572 457.127L671.178 425.014L675.005 429.906L724.328 493.387L639.182 500.617L657.572 457.127ZM717.419 417.465L671.816 423.313L704.982 344.945L733.576 379.61L760.258 411.935L717.419 417.465ZM670.859 422.888L657.04 405.13L621.111 358.875L661.505 351.963L703.919 344.626L670.859 422.888ZM621.005 357.812L652.257 281.039L691.163 328.145L703.919 343.563L621.005 357.812ZM620.048 357.493L611.438 346.434L573.489 297.521L614.52 288.695L651.3 280.826L620.048 357.493ZM614.308 287.525L573.382 296.351L579.122 281.783L602.827 221.067L651.194 279.657L614.308 287.525ZM578.272 280.933L572.319 296.032L550.103 267.428L528.63 239.675L577.422 227.128L601.871 220.854L578.272 280.933ZM580.717 225.108L528.524 238.612L529.693 235.528L556.374 164.817L601.658 219.791L580.717 225.108ZM529.161 234.04L527.567 238.293L491.531 191.825L486.429 185.233L520.232 175.025L555.311 164.498L529.161 234.04ZM497.059 180.979L486.323 184.169L490.893 171.516L512.579 111.863L518.425 118.987L555.205 163.541L497.059 180.979ZM490.256 170.24L485.26 183.85L446.46 133.874L483.134 121.326L511.516 111.544L490.256 170.24ZM432.535 14.7803L457.728 45.298L470.378 60.61L420.735 79.75L408.83 84.3223L432.535 14.7803ZM381.298 36.1533L431.472 14.674L407.767 84.1097L373.219 39.556L381.298 36.1533ZM372.582 40.513L407.129 84.9603L350.684 106.759L372.582 40.513ZM367.692 41.8953L371.519 40.3003L349.621 106.546L324.321 71.9877L317.943 63.2683L367.692 41.8953ZM317.306 64.119L348.983 107.397L297.002 127.494L317.306 64.119ZM286.16 21.7983L316.243 62.7367L266.813 83.897L277.23 50.5083L286.16 21.7983ZM273.723 26.9023L285.097 21.5857L276.167 50.2957L265.75 83.6843L250.974 62.4177L238.006 43.703L273.723 26.9023ZM237.474 44.66L250.443 63.3747L265.112 84.535L219.403 104.207L223.443 90.8087L237.474 44.66ZM210.049 5.21033L236.411 43.2777L204.946 58.058L192.722 63.8L210.049 5.21033ZM208.986 5.104L191.659 63.5873L167.21 26.477L208.986 5.104ZM166.785 27.434L189.958 62.7367L191.127 64.5443L150.521 83.578L166.785 27.434ZM152.966 33.7077L165.722 27.2213L149.564 83.259L126.922 46.9993L152.966 33.7077ZM126.284 48.169L148.926 84.3223L129.473 93.5733L111.19 102.186L111.615 100.91L126.284 48.169ZM103.749 12.122L125.434 46.6803L102.473 58.377L89.1857 65.1823L103.749 12.122ZM102.686 11.9093L88.1227 64.8633L67.9257 31.0493L102.686 11.9093ZM67.3942 32.219L87.5912 66.033L62.2918 79.0057L53.6815 83.3653L63.8863 45.298L67.3942 32.219ZM66.3312 32.0063L62.9296 44.7663L52.6185 83.0463L33.9097 49.9767L66.3312 32.0063ZM33.2719 51.1463L52.087 84.1097L48.1539 86.13L20.4096 100.379L33.2719 51.1463ZM14.3505 17.864L29.6577 44.66L32.4215 49.5513L1.9134 66.4583L14.3505 17.864ZM6.9095 77.0917L1.8071 67.7343L32.3152 50.8273L19.3466 99.9533L6.9095 77.0917ZM19.7718 102.824L38.0554 136.426L22.0041 143.975L7.1221 150.993L19.7718 102.824ZM12.9686 163.753L6.9095 152.269L37.8428 137.702L24.7679 186.509L12.9686 163.753ZM25.1931 189.38L35.8231 209.689L43.7956 225.108L12.3308 237.23L25.1931 189.38ZM12.3308 238.399L43.7956 226.277L41.1381 235.847L30.5081 274.659L12.3308 238.399ZM24.449 300.604L30.7207 277.636L40.2877 296.776L49.6421 315.491L17.6458 325.061L24.449 300.604ZM49.6421 316.661L36.142 364.723L17.6458 326.337L49.6421 316.661ZM17.1143 327.4L35.5042 365.787L4.252 373.868L17.1143 327.4ZM4.3583 374.931L35.6105 366.85L22.323 413.956L4.3583 374.931ZM15.945 440.645L22.6419 416.933L41.457 457.552L9.7796 462.975L15.945 440.645ZM22.8545 493.706L9.6733 464.039L41.3507 458.616L27.9569 505.19L22.8545 493.706ZM28.1695 508.273L44.8586 545.809L47.1972 551.126L14.9883 553.89L28.1695 508.273ZM1.5945 600.677L14.4568 556.123L32.953 599.295L1.5945 600.677ZM33.6971 598.231L15.0946 554.847L47.3035 552.083L34.3349 595.786L33.6971 598.231ZM62.0792 598.125L34.4412 599.295L35.1853 596.849L48.0476 553.146L68.032 597.912L62.0792 598.125ZM68.7761 596.849L48.7917 552.083L83.2329 549.105L72.0714 586.003L68.7761 596.849ZM69.6265 597.806L73.1344 586.428L84.1896 550.062L87.2723 556.655L105.662 596.317L69.6265 597.806ZM106.194 595.36L88.6542 557.399L84.7211 548.999L121.607 545.809L106.194 595.36ZM118.737 595.786L107.044 596.317L122.458 546.766L122.883 547.51L145.525 594.722L118.737 595.786ZM146.269 593.659L123.202 545.703L162.745 542.3L146.269 593.659ZM147.119 594.616L163.596 543.151L188.47 592.915L147.119 594.616ZM189.32 591.958L164.446 542.194L191.34 539.854L207.072 538.472L189.32 591.958ZM190.171 592.808L207.817 539.323L234.71 590.894L190.171 592.808ZM235.455 590.044L210.793 542.725L208.561 538.366L241.939 535.495L254.482 534.431L235.455 590.044ZM260.329 589.831L236.305 590.788L255.226 535.176L284.459 588.768L260.329 589.831ZM285.309 588.023L256.077 534.325L269.789 533.155L305.719 530.072L285.309 588.023ZM286.16 588.768L306.569 530.816L336.014 582.494L338.353 586.641L286.16 588.768ZM339.097 585.897L337.609 583.345L307.313 530.072L321.77 528.796L361.101 525.393L339.097 585.897ZM339.947 586.535L361.952 526.031L396.605 584.195L339.947 586.535ZM397.456 583.451L362.802 525.287L414.783 520.821L421.373 520.289L405.641 561.972L397.456 583.451ZM398.412 584.195L406.491 562.716L422.224 520.927L435.511 542.194L460.173 581.643L398.412 584.195ZM461.023 580.899L436.043 541.024L422.968 520.183L486.854 514.76L461.023 580.899ZM461.874 581.537L487.811 515.291L529.587 578.772L461.874 581.537ZM530.437 578.028L488.661 514.547L558.713 508.592L530.437 578.028ZM567.642 577.071L531.287 578.56L559.563 509.018L577.528 534.857L605.697 575.476L567.642 577.071ZM606.548 574.944L578.272 534.219L560.414 508.38L564.985 507.954L637.481 501.787L606.548 574.944ZM607.505 575.476L638.438 502.319L689.568 572.073L607.505 575.476ZM690.419 571.542L639.288 501.787L724.435 494.556L690.419 571.542ZM735.702 570.159L691.375 571.967L725.391 494.875L747.183 522.947L782.262 568.139L735.702 570.159ZM783.218 567.714L747.714 521.99L726.242 494.344L820.849 486.262L783.218 567.714ZM833.605 566.119L784.175 568.139L821.805 486.688L885.585 563.992L833.605 566.119ZM929.487 477.437L1001.35 559.101L942.881 561.546L887.605 563.886L929.487 477.437ZM886.648 563.46L822.868 486.156L871.129 482.009L928.531 477.118L886.648 563.46ZM928.318 476.054L870.81 480.946L822.656 485.093L840.939 445.537L861.774 400.451L928.318 476.054ZM839.876 445.111L821.593 484.561L777.266 430.863L762.277 412.68L860.711 400.026L839.876 445.111ZM860.605 399.069L810.112 405.555L762.277 411.723L791.829 344.839L798.951 328.783L860.605 399.069ZM791.085 343.669L761.108 411.297L734.533 378.972L705.832 344.307L750.584 336.651L797.675 328.57L791.085 343.669ZM797.569 327.4L705.726 343.244L732.726 279.444L740.061 262.112L797.569 327.4ZM731.45 279.55L704.663 342.925L691.694 327.188L653.001 280.295L738.998 261.793L731.45 279.55ZM685.21 199.8L738.891 260.836L652.895 279.338L685.21 199.8ZM651.938 278.912L603.571 220.323L684.147 199.481L651.938 278.912ZM633.973 141.423L684.147 198.418L603.571 219.259L633.973 141.423ZM602.508 218.94L557.118 163.966L632.91 141.211L602.508 218.94ZM585.819 86.6617L632.804 140.147L557.012 162.903L585.819 86.6617ZM556.055 162.69L519.488 118.349L513.429 111.012L538.728 102.293L549.996 98.4647L584.65 86.5553L556.055 162.69ZM540.536 35.1963L584.65 85.3857L513.323 109.842L540.536 35.1963ZM512.26 109.736L472.078 61.1417L505.138 48.3817L539.473 35.09L512.26 109.736Z" fill="url(#paint0_linear_288_37)"/>
</g>
</g>
<defs>
<linearGradient id="paint0_linear_288_37" x1="-5.90624e-06" y1="659" x2="300.5" y2="-127" gradientUnits="userSpaceOnUse">
<stop offset="0.0001" stop-color="#939393"/>
<stop offset="0.25" stop-color="#969696"/>
<stop offset="0.445" stop-color="#999999" stop-opacity="0.42"/>
<stop offset="0.75" stop-color="#AFAFAF" stop-opacity="0"/>
</linearGradient>
<clipPath id="clip0_288_37">
<rect width="1520" height="638" fill="white"/>
</clipPath>
<clipPath id="clip1_288_37">
<rect width="1063" height="638" fill="white"/>
</clipPath>
</defs>
</svg>
