<svg width="244" height="55" viewBox="0 0 244 55" fill="none" xmlns="http://www.w3.org/2000/svg">
<path d="M42.8 22.6H51C57.6 22.6 62.2 27.1 62.2 32.9V33C62.2 38.8 57.7 43.3 51 43.3H42.8V22.6ZM51 39.1C54.8 39.1 57.3 36.6 57.3 33V32.9C57.3 29.3 54.8 26.7 51 26.7H47.5V39.1H51Z" fill="#153667"/>
<path d="M66.2 22.6H82.1V26.6H70.9V30.8H80.8V34.8H70.9V39.1H82.3V43.1H66.3L66.2 22.6Z" fill="#153667"/>
<path d="M84.9 40.2L87.7 37C89.6 38.5 91.6 39.5 94 39.5C95.9 39.5 97 38.7 97 37.6V37.5C97 36.3 96.2 35.7 92.8 34.9C88.6 33.8 85.8 32.7 85.8 28.6V28.5C85.8 24.8 88.8 22.3 93.2 22.3C96.2 22.3 98.9 23.2 101 24.9L98.6 28.4C96.8 27.1 94.9 26.4 93.1 26.4C91.3 26.4 90.4 27.2 90.4 28.2V28.1C90.4 29.4 91.3 29.9 94.9 30.8C99.2 31.9 101.5 33.4 101.5 36.9V37C101.5 41.1 98.3 43.4 93.8 43.4C90.6 43.4 87.4 42.3 84.9 40.2Z" fill="#153667"/>
<path d="M105.7 22.6H110.3V43.2H105.7V22.6Z" fill="#153667"/>
<path d="M114.7 32.9C114.7 27 119.3 22.2 125.7 22.2C129.5 22.2 131.7 23.2 133.9 25.1L131 28.6C129.4 27.3 128 26.5 125.5 26.5C122.1 26.5 119.5 29.4 119.5 32.9V33C119.5 36.8 122.1 39.6 125.9 39.6C127.6 39.6 129.1 39.2 130.3 38.3V35.4H125.6V31.5H134.7V40.4C132.5 42.2 129.6 43.7 125.7 43.7C119.1 43.4 114.7 39 114.7 32.9Z" fill="#153667"/>
<path d="M139.1 22.6H143.4L153.2 35.2V22.6H157.7V43.2H153.8L143.6 30.1V43.2H139.1V22.6Z" fill="#153667"/>
<path d="M162.8 22.6H172.4C175.1 22.6 177.1 23.4 178.5 24.7C179.7 25.9 180.3 27.5 180.3 29.4V29.5C180.3 32.8 178.5 34.9 175.8 35.9L180.9 43.2H175.5L171 36.6H170.9H167.3V43.2H162.6V22.6H162.8ZM172.1 32.5C174.4 32.5 175.6 31.3 175.6 29.6V29.5C175.6 27.6 174.3 26.6 172 26.6H167.4V32.5H172.1Z" fill="url(#paint0_linear_148_76)"/>
<path d="M184.2 34.3V22.5H188.8V34.1C188.8 37.5 190.5 39.1 193.3 39.1C196.1 39.1 197.8 37.4 197.8 34.1V22.4H202.4V34C202.4 40.2 198.8 43.3 193.2 43.3C187.6 43.3 184.2 40.3 184.2 34.3Z" fill="url(#paint1_linear_148_76)"/>
<path d="M205.7 40.2L208.5 37C210.4 38.5 212.4 39.5 214.8 39.5C216.7 39.5 217.8 38.7001 217.8 37.6V37.5C217.8 36.3 217 35.7 213.6 34.9C209.4 33.8 206.6 32.7001 206.6 28.6V28.5C206.6 24.8 209.6 22.3 214 22.3C217 22.3 219.7 23.2 221.8 24.9L219.4 28.4C217.6 27.1 215.7 26.4 213.9 26.4C212.1 26.4 211.2 27.2 211.2 28.2V28.1C211.2 29.4001 212.1 29.9 215.7 30.8C220 31.9 222.3 33.4 222.3 36.9V37C222.3 41.1 219.1 43.4 214.6 43.4C211.5 43.4 208.2 42.3 205.7 40.2Z" fill="url(#paint2_linear_148_76)"/>
<path d="M226.3 22.6H230.9V30.8H239.4V22.6H244V43.2H239.4V35H230.9V43.2H226.3V22.6Z" fill="url(#paint3_linear_148_76)"/>
<path d="M16.4 34.2C16.3 34.1 16.3 34.2 16.4 34.2L15.9 33.9L15.8 33.8L4 25.4C4 25.4 3.9 25.4 3.9 25.3L3.7 25.1L3.6 25H3.4L0 22.6L6.7 23.6C7 23.6 7.1 23.7 7.4 23.8C7.5 23.8 7.7 23.9 7.7 23.9C8 24 8.1 24.1 8.3 24.2C8.5 24.3 8.6 24.4 8.8 24.5C8.9 24.6 9.1 24.7 9.1 24.8C9.2 24.9 9.3 24.9 9.4 25C9.6 25.1 9.7 25.2 9.7 25.3C10 25.6 10.2 25.9 10.5 26.1L15.8 33.6L15.9 33.7L16.4 34.2Z" fill="#2AD2FF"/>
<path d="M16.4 45.8L15.9 45L15.8 44.9L0.100006 22.6L3.50001 25L4.10001 25.4L15.9 33.8H16L16.4 34.1C16.4 34.1 16.5 34.1 16.5 34.2L17 33.8L32.9 22.6L16.9 45L16.8 45.1L16.4 45.8Z" fill="url(#paint4_linear_148_76)"/>
<path d="M16.4 30.4L15.9 29.6L15.8 29.5L11.9 24.1L15.8 24.9H15.9L16.4 25L16.9 24.9L20.7 24L16.9 29.6V29.7L16.4 30.4Z" fill="#2AD2FF"/>
<path d="M33 22.5L28 23.2L26.1 23.5C24.6 23.7 23.2 24.5 22.3 25.8L17 33.4L16.9 33.5L16.4 34.2L17 33.6L17.1 33.5L16.4 34.2L29.9 24.6L33 22.5Z" fill="#2AD2FF"/>
<path d="M18.9 6.7C18.9 11.1 11.3 13.4 11.3 18.1C11.2 19.2 11.5 20.3 12 21.3C12 21.3 9.10001 18.5 9.10001 15.5C9.10001 12.5 11.9 8 11.9 8C11.9 10 12.7 10.6 13.5 10.7H13.6C14.5 10.7 15 10 15 9C15 8 13.9 7 13.9 5C13.9 3.1 16.3 0 16.3 0C18 2 18.9 4.3 18.9 6.7Z" fill="#2AF4FF"/>
<path d="M16.8 22.7C14.4 22.7 12.6 20.8 12.6 18.5V18.4C12.6 13.3 19.7 12.8 19.7 5.90002C19.9 6.20002 21.8 8.80002 21.8 11.6C21.8 15.1 18.5 16 18.5 17.7C18.5 18.4 18.8 18.9 19.8 18.9C19.9 18.9 20 18.9 20.1 18.8C22 18 23.3 16.2 23.4 14.1C23.4 14.2 24.4 22.7 16.8 22.7Z" fill="#2AF4FF"/>
<path d="M19.9 18.9C20 18.9 20.1 18.9 20.2 18.8C19.2 19.1 15.5 20 15.5 17.4C15.5 14.2 21 13.5 21 10.8C21 9.10002 20.6 7.40002 19.7 5.90002C19.9 6.20002 21.8 8.80002 21.8 11.6C21.8 15.1 18.5 16 18.5 17.7C18.6 18.4 19 18.9 19.9 18.9Z" fill="#2AD2FF"/>
<path d="M16.9 8.5C16.9 11 13.7 10.8 13.5 10.7H13.8C14.7 10.7 15.2 10 15.2 9C15.2 8 14.1 7 14.1 5C14.1 3.1 16.5 0 16.5 0C15.7 1.3 15.3 2.7 15.2 4.1C15.2 6.4 16.9 6.6 16.9 8.5Z" fill="#2AD2FF"/>
<path d="M14.9 52.2L12.7 50.7H15.4L16.3 48L17.1 50.7H19.8L17.6 52.2L18.4 54.8L16.2 53.2L13.9 54.8L14.9 52.2Z" fill="#2AD2FF"/>
<path d="M26.4 52.2L24.2 50.7H26.9L27.8 48L28.6 50.7H31.3L29.1 52.2L29.9 54.8L27.7 53.2L25.4 54.8L26.4 52.2Z" fill="#2AD2FF"/>
<path d="M3.49999 52.2L1.29999 50.7H3.99999L4.89999 48L5.69999 50.7H8.39999L6.19999 52.2L6.99999 54.8L4.79999 53.2L2.59999 54.8L3.49999 52.2Z" fill="#2AD2FF"/>
<defs>
<linearGradient id="paint0_linear_148_76" x1="160.66" y1="-0.0999636" x2="244.86" y2="-0.0999636" gradientUnits="userSpaceOnUse">
<stop offset="0.73" stop-color="#2AF4FF"/>
<stop offset="0.884" stop-color="#2AF4FF"/>
</linearGradient>
<linearGradient id="paint1_linear_148_76" x1="160.66" y1="-0.0999787" x2="244.86" y2="-0.0999787" gradientUnits="userSpaceOnUse">
<stop offset="0.73" stop-color="#2AF4FF"/>
<stop offset="0.884" stop-color="#2AF4FF"/>
</linearGradient>
<linearGradient id="paint2_linear_148_76" x1="160.66" y1="-0.0999509" x2="244.86" y2="-0.0999509" gradientUnits="userSpaceOnUse">
<stop offset="0.73" stop-color="#2AF4FF"/>
<stop offset="0.884" stop-color="#2AF4FF"/>
</linearGradient>
<linearGradient id="paint3_linear_148_76" x1="160.66" y1="-0.0999636" x2="244.86" y2="-0.0999636" gradientUnits="userSpaceOnUse">
<stop offset="0.73" stop-color="#2AF4FF"/>
<stop offset="0.884" stop-color="#2AF4FF"/>
</linearGradient>
<linearGradient id="paint4_linear_148_76" x1="6.13882e-06" y1="45.842" x2="6.13882e-06" y2="33.568" gradientUnits="userSpaceOnUse">
<stop offset="0.73" stop-color="#2AF4FF"/>
<stop offset="0.884" stop-color="#2AF4FF"/>
</linearGradient>
</defs>
</svg>
