<svg width="72" height="77" viewBox="0 0 72 77" fill="none" xmlns="http://www.w3.org/2000/svg">
<path d="M0.708 73V72.136C1.268 71.704 1.8 71.268 2.304 70.828C2.808 70.388 3.256 69.952 3.648 69.52C4.048 69.08 4.36 68.652 4.584 68.236C4.808 67.812 4.92 67.408 4.92 67.024C4.92 66.752 4.872 66.5 4.776 66.268C4.68 66.036 4.528 65.848 4.32 65.704C4.112 65.552 3.828 65.476 3.468 65.476C3.124 65.476 2.836 65.552 2.604 65.704C2.38 65.856 2.208 66.06 2.088 66.316C1.976 66.564 1.92 66.84 1.92 67.144H0.756C0.764 66.568 0.888 66.08 1.128 65.68C1.368 65.28 1.692 64.976 2.1 64.768C2.516 64.56 2.98 64.456 3.492 64.456C4.028 64.456 4.492 64.556 4.884 64.756C5.276 64.948 5.58 65.232 5.796 65.608C6.012 65.976 6.12 66.428 6.12 66.964C6.12 67.348 6.044 67.732 5.892 68.116C5.74 68.492 5.532 68.86 5.268 69.22C5.012 69.58 4.724 69.928 4.404 70.264C4.084 70.592 3.752 70.904 3.408 71.2C3.072 71.496 2.748 71.764 2.436 72.004H6.384V73H0.708ZM8.32172 73L11.5257 65.632H7.08572V64.6H12.7617V65.476L9.56972 73H8.32172ZM17.2067 73.144C16.4627 73.144 15.8227 72.964 15.2867 72.604C14.7507 72.236 14.3387 71.728 14.0507 71.08C13.7627 70.424 13.6187 69.664 13.6187 68.8C13.6187 67.936 13.7627 67.18 14.0507 66.532C14.3387 65.876 14.7507 65.368 15.2867 65.008C15.8227 64.64 16.4627 64.456 17.2067 64.456C17.9507 64.456 18.5867 64.64 19.1147 65.008C19.6507 65.368 20.0587 65.876 20.3387 66.532C20.6267 67.18 20.7707 67.936 20.7707 68.8C20.7707 69.664 20.6267 70.424 20.3387 71.08C20.0587 71.728 19.6507 72.236 19.1147 72.604C18.5867 72.964 17.9507 73.144 17.2067 73.144ZM17.2067 72.076C17.6547 72.076 18.0547 71.944 18.4067 71.68C18.7667 71.416 19.0467 71.04 19.2467 70.552C19.4467 70.064 19.5467 69.48 19.5467 68.8C19.5467 68.12 19.4467 67.536 19.2467 67.048C19.0467 66.56 18.7667 66.188 18.4067 65.932C18.0547 65.668 17.6547 65.536 17.2067 65.536C16.7507 65.536 16.3427 65.668 15.9827 65.932C15.6227 66.188 15.3427 66.56 15.1427 67.048C14.9427 67.536 14.8427 68.12 14.8427 68.8C14.8427 69.48 14.9427 70.064 15.1427 70.552C15.3427 71.04 15.6227 71.416 15.9827 71.68C16.3427 71.944 16.7507 72.076 17.2067 72.076ZM25.4918 73.144C24.7478 73.144 24.1078 72.964 23.5718 72.604C23.0358 72.236 22.6238 71.728 22.3358 71.08C22.0478 70.424 21.9038 69.664 21.9038 68.8C21.9038 67.936 22.0478 67.18 22.3358 66.532C22.6238 65.876 23.0358 65.368 23.5718 65.008C24.1078 64.64 24.7478 64.456 25.4918 64.456C26.2358 64.456 26.8718 64.64 27.3998 65.008C27.9358 65.368 28.3438 65.876 28.6238 66.532C28.9118 67.18 29.0558 67.936 29.0558 68.8C29.0558 69.664 28.9118 70.424 28.6238 71.08C28.3438 71.728 27.9358 72.236 27.3998 72.604C26.8718 72.964 26.2358 73.144 25.4918 73.144ZM25.4918 72.076C25.9398 72.076 26.3398 71.944 26.6918 71.68C27.0518 71.416 27.3318 71.04 27.5318 70.552C27.7318 70.064 27.8318 69.48 27.8318 68.8C27.8318 68.12 27.7318 67.536 27.5318 67.048C27.3318 66.56 27.0518 66.188 26.6918 65.932C26.3398 65.668 25.9398 65.536 25.4918 65.536C25.0358 65.536 24.6278 65.668 24.2678 65.932C23.9078 66.188 23.6278 66.56 23.4278 67.048C23.2278 67.536 23.1278 68.12 23.1278 68.8C23.1278 69.48 23.2278 70.064 23.4278 70.552C23.6278 71.04 23.9078 71.416 24.2678 71.68C24.6278 71.944 25.0358 72.076 25.4918 72.076ZM31.461 73V65.956L29.997 66.328V65.428L31.905 64.6H32.685V73H31.461ZM37.9288 73.06C37.6968 73.06 37.5048 72.988 37.3528 72.844C37.2088 72.692 37.1368 72.512 37.1368 72.304C37.1368 72.088 37.2088 71.908 37.3528 71.764C37.5048 71.612 37.6968 71.536 37.9288 71.536C38.1608 71.536 38.3488 71.612 38.4928 71.764C38.6368 71.908 38.7088 72.088 38.7088 72.304C38.7088 72.512 38.6368 72.692 38.4928 72.844C38.3488 72.988 38.1608 73.06 37.9288 73.06ZM37.9288 68.332C37.6968 68.332 37.5048 68.26 37.3528 68.116C37.2088 67.964 37.1368 67.784 37.1368 67.576C37.1368 67.36 37.2088 67.18 37.3528 67.036C37.5048 66.884 37.6968 66.808 37.9288 66.808C38.1608 66.808 38.3488 66.884 38.4928 67.036C38.6368 67.18 38.7088 67.36 38.7088 67.576C38.7088 67.784 38.6368 67.964 38.4928 68.116C38.3488 68.26 38.1608 68.332 37.9288 68.332ZM43.0244 73V72.136C43.5844 71.704 44.1164 71.268 44.6204 70.828C45.1244 70.388 45.5724 69.952 45.9644 69.52C46.3644 69.08 46.6764 68.652 46.9004 68.236C47.1244 67.812 47.2364 67.408 47.2364 67.024C47.2364 66.752 47.1884 66.5 47.0924 66.268C46.9964 66.036 46.8444 65.848 46.6364 65.704C46.4284 65.552 46.1444 65.476 45.7844 65.476C45.4404 65.476 45.1524 65.552 44.9204 65.704C44.6964 65.856 44.5244 66.06 44.4044 66.316C44.2924 66.564 44.2364 66.84 44.2364 67.144H43.0724C43.0804 66.568 43.2044 66.08 43.4444 65.68C43.6844 65.28 44.0084 64.976 44.4164 64.768C44.8324 64.56 45.2964 64.456 45.8084 64.456C46.3444 64.456 46.8084 64.556 47.2004 64.756C47.5924 64.948 47.8964 65.232 48.1124 65.608C48.3284 65.976 48.4364 66.428 48.4364 66.964C48.4364 67.348 48.3604 67.732 48.2084 68.116C48.0564 68.492 47.8484 68.86 47.5844 69.22C47.3284 69.58 47.0404 69.928 46.7204 70.264C46.4004 70.592 46.0684 70.904 45.7244 71.2C45.3884 71.496 45.0644 71.764 44.7524 72.004H48.7004V73H43.0244ZM53.3004 73.144C52.5564 73.144 51.9164 72.964 51.3804 72.604C50.8444 72.236 50.4324 71.728 50.1444 71.08C49.8564 70.424 49.7124 69.664 49.7124 68.8C49.7124 67.936 49.8564 67.18 50.1444 66.532C50.4324 65.876 50.8444 65.368 51.3804 65.008C51.9164 64.64 52.5564 64.456 53.3004 64.456C54.0444 64.456 54.6804 64.64 55.2084 65.008C55.7444 65.368 56.1524 65.876 56.4324 66.532C56.7204 67.18 56.8644 67.936 56.8644 68.8C56.8644 69.664 56.7204 70.424 56.4324 71.08C56.1524 71.728 55.7444 72.236 55.2084 72.604C54.6804 72.964 54.0444 73.144 53.3004 73.144ZM53.3004 72.076C53.7484 72.076 54.1484 71.944 54.5004 71.68C54.8604 71.416 55.1404 71.04 55.3404 70.552C55.5404 70.064 55.6404 69.48 55.6404 68.8C55.6404 68.12 55.5404 67.536 55.3404 67.048C55.1404 66.56 54.8604 66.188 54.5004 65.932C54.1484 65.668 53.7484 65.536 53.3004 65.536C52.8444 65.536 52.4364 65.668 52.0764 65.932C51.7164 66.188 51.4364 66.56 51.2364 67.048C51.0364 67.536 50.9364 68.12 50.9364 68.8C50.9364 69.48 51.0364 70.064 51.2364 70.552C51.4364 71.04 51.7164 71.416 52.0764 71.68C52.4364 71.944 52.8444 72.076 53.3004 72.076ZM58.0478 73V72.136C58.6078 71.704 59.1398 71.268 59.6438 70.828C60.1478 70.388 60.5958 69.952 60.9878 69.52C61.3878 69.08 61.6998 68.652 61.9238 68.236C62.1478 67.812 62.2598 67.408 62.2598 67.024C62.2598 66.752 62.2118 66.5 62.1158 66.268C62.0198 66.036 61.8678 65.848 61.6598 65.704C61.4518 65.552 61.1678 65.476 60.8078 65.476C60.4638 65.476 60.1758 65.552 59.9438 65.704C59.7198 65.856 59.5478 66.06 59.4278 66.316C59.3158 66.564 59.2598 66.84 59.2598 67.144H58.0958C58.1038 66.568 58.2278 66.08 58.4678 65.68C58.7078 65.28 59.0318 64.976 59.4398 64.768C59.8558 64.56 60.3198 64.456 60.8318 64.456C61.3678 64.456 61.8318 64.556 62.2238 64.756C62.6158 64.948 62.9198 65.232 63.1358 65.608C63.3518 65.976 63.4598 66.428 63.4598 66.964C63.4598 67.348 63.3838 67.732 63.2318 68.116C63.0798 68.492 62.8718 68.86 62.6078 69.22C62.3518 69.58 62.0638 69.928 61.7438 70.264C61.4238 70.592 61.0918 70.904 60.7478 71.2C60.4118 71.496 60.0878 71.764 59.7758 72.004H63.7238V73H58.0478ZM64.9736 73V72.136C65.5336 71.704 66.0656 71.268 66.5696 70.828C67.0736 70.388 67.5216 69.952 67.9136 69.52C68.3136 69.08 68.6256 68.652 68.8496 68.236C69.0736 67.812 69.1856 67.408 69.1856 67.024C69.1856 66.752 69.1376 66.5 69.0416 66.268C68.9456 66.036 68.7936 65.848 68.5856 65.704C68.3776 65.552 68.0936 65.476 67.7336 65.476C67.3896 65.476 67.1016 65.552 66.8696 65.704C66.6456 65.856 66.4736 66.06 66.3536 66.316C66.2416 66.564 66.1856 66.84 66.1856 67.144H65.0216C65.0296 66.568 65.1536 66.08 65.3936 65.68C65.6336 65.28 65.9576 64.976 66.3656 64.768C66.7816 64.56 67.2456 64.456 67.7576 64.456C68.2936 64.456 68.7576 64.556 69.1496 64.756C69.5416 64.948 69.8456 65.232 70.0616 65.608C70.2776 65.976 70.3856 66.428 70.3856 66.964C70.3856 67.348 70.3096 67.732 70.1576 68.116C70.0056 68.492 69.7976 68.86 69.5336 69.22C69.2776 69.58 68.9896 69.928 68.6696 70.264C68.3496 70.592 68.0176 70.904 67.6736 71.2C67.3376 71.496 67.0136 71.764 66.7016 72.004H70.6496V73H64.9736Z" fill="white"/>
<path d="M32.2201 0.192533C27.9567 0.750061 23.3325 2.58662 19.9545 5.0791C17.8884 6.6205 13.8545 10.9168 13.8545 11.5727C13.8545 12.327 14.2808 11.9662 16.0846 9.83449C17.0029 8.71943 18.2163 7.47319 18.7739 7.07965C19.7905 6.35814 19.8233 6.35814 20.9712 6.94846C21.5943 7.30922 22.1846 7.66997 22.2502 7.80115C22.3158 7.93234 21.7911 8.85062 21.0696 9.90008C20.3481 10.9495 19.8561 11.8678 19.9545 11.9662C20.1513 12.163 21.3975 10.884 22.5782 9.24417L23.2341 8.32588L25.4642 9.04739L27.6943 9.80169L27.4647 10.9168C27.2352 12.2614 27.7599 12.327 28.3502 11.0151C28.6126 10.3592 28.9405 10.0969 29.2685 10.1952C29.5309 10.2936 30.9083 10.4904 32.3185 10.5888C34.483 10.7528 34.975 10.884 35.1062 11.4087C35.2701 12.0974 35.8277 12.1958 35.8277 11.5399C35.8277 10.9495 36.5492 10.6872 38.2217 10.6872C38.9761 10.6872 40.1567 10.556 40.8454 10.392C41.9933 10.1297 42.0916 10.1624 42.5836 11.0479C43.2395 12.3598 43.7642 12.2614 43.5347 10.9168C43.3379 9.86729 43.3707 9.80169 44.7481 9.27696C47.7653 8.16191 47.7653 8.16191 49.2739 10.1624C50.553 11.835 51.2417 12.3926 51.2417 11.7366C51.2417 11.3759 50.3234 10.0313 49.3395 8.9818C48.4212 7.99793 48.5524 7.63717 50.0938 6.88287C50.9137 6.52212 51.3401 6.45653 51.832 6.71889C52.6191 7.14524 56.161 10.9495 56.161 11.3759C56.161 11.5399 56.3906 11.6711 56.653 11.6711C56.9153 11.6711 57.1449 11.5399 57.1449 11.3431C57.1449 10.8512 52.6519 6.22696 50.9465 4.98072C45.7976 1.2092 38.6153 -0.627361 32.2201 0.192533ZM39.3696 1.04522C40.2879 1.17641 41.075 1.40598 41.075 1.56996C41.075 2.29146 37.9266 3.20974 35.4341 3.20974C31.6626 3.20974 28.0223 1.40598 31.1707 1.07802C33.3024 0.848449 37.5658 0.848449 39.3696 1.04522ZM29.1045 2.12748C29.2029 2.32426 28.5798 2.94738 27.7271 3.5377C26.8416 4.12803 25.5298 5.17749 24.7427 5.899L23.3653 7.17803L22.0534 6.58771C21.2991 6.25975 20.7744 5.83341 20.84 5.63663C21.1024 4.88233 26.94 1.93071 28.3502 1.86512C28.6454 1.83232 28.9733 1.9635 29.1045 2.12748ZM44.6169 2.48824C46.4535 3.20974 49.8314 5.01351 50.0938 5.43986C50.1922 5.60384 49.7331 6.03018 49.1099 6.42373L47.9621 7.14524L45.732 5.34147C44.5185 4.3576 43.1411 3.30813 42.6492 2.98017C41.7637 2.42265 41.6981 1.83232 42.4852 1.83232C42.7148 1.83232 43.6658 2.12748 44.6169 2.48824ZM45.24 5.99738C47.011 7.57158 46.9782 7.66997 44.1906 8.58825C43.2067 8.949 42.5508 9.0146 42.4852 8.81782C42.4196 8.62105 41.6325 7.4076 40.7798 6.06298C39.1728 3.66889 39.1728 3.63609 39.8615 3.24254C40.4519 2.94738 40.8454 3.01297 42.1244 3.73448C42.9771 4.19362 44.3546 5.21029 45.24 5.99738ZM31.433 3.5705C31.4986 3.80007 30.9083 5.01351 30.1212 6.25975C29.3013 7.47319 28.5798 8.65384 28.5142 8.81782C28.4158 9.14578 25.6282 8.35868 24.6771 7.73556C24.2508 7.4404 24.3819 7.24362 25.333 6.39093C28.547 3.63609 31.0067 2.48824 31.433 3.5705ZM35.1717 7.07965V10.0313H34.2863C33.1712 10.0313 29.5637 9.44094 29.3669 9.24417C29.2029 9.11298 30.4492 7.07965 31.8266 5.17749C32.4825 4.3248 32.8432 4.12803 33.8927 4.12803H35.1717V7.07965ZM40.0911 6.6533C42.0261 9.53933 42.0589 9.47374 38.4185 9.83449C36.3196 10.0641 36.2212 10.0313 36.0244 9.30976C35.7621 8.29309 35.7621 4.61996 36.0572 4.3576C36.1556 4.22641 36.7459 4.12803 37.3363 4.12803C38.2873 4.12803 38.5497 4.3576 40.0911 6.6533Z" fill="white"/>
<path d="M5 17.0824V19.87H6.63979H8.27958V25.9372V32.0044H6.63979H5V34.7921V37.5797H12.2151H19.4301V34.7921V32.0044H17.7903H16.1506V25.9372V19.87H17.7903H19.4301V17.0824V14.2947H12.2151H5V17.0824Z" fill="white"/>
<path d="M25.4645 14.9506C23.3328 15.8033 21.9225 17.2135 21.2666 19.1157C20.6107 21.0506 20.6107 22.1985 21.2338 23.7399C22.1193 25.806 24.1854 27.577 26.6451 28.3313C27.2682 28.5281 29.5312 29.2168 31.6629 29.8727C34.7457 30.8238 35.5 31.1517 35.5 31.6437C35.5 32.398 34.6473 32.6603 32.2204 32.6603C30.0231 32.6603 27.4978 31.5781 26.2516 30.0695C25.4317 29.1184 25.2349 29.0528 23.2344 29.0528H21.0698V33.3163V37.5797H23.5295C25.8908 37.5797 25.9892 37.5469 25.9892 36.7926V36.0055L28.0553 36.8582C29.6295 37.5469 30.7774 37.7437 33.2043 37.8421C35.9919 37.9405 36.5494 37.8749 38.1236 37.1534C40.321 36.1695 41.272 35.284 42.0919 33.513C43.3382 30.7254 42.5839 27.8722 39.993 25.5765C38.6484 24.3958 37.8613 24.0678 33.4994 22.7888C30.7446 22.0017 28.2849 21.149 28.0226 20.8867C27.5962 20.4603 27.629 20.3291 28.2849 19.8044C29.1704 19.0829 30.1543 19.0829 32.45 19.6732C34.4505 20.1979 36.3527 21.313 36.8118 22.1985C37.107 22.7232 37.5333 22.8216 39.5995 22.8216H42.0591V18.8861V14.9506H39.5995C37.5661 14.9506 37.1398 15.049 37.1398 15.4754C37.1398 16.0657 37.0086 16.0329 34.5161 15.0818C32.2204 14.1963 27.5306 14.1307 25.4645 14.9506Z" fill="white"/>
<path d="M51.5375 14.7539C47.6676 15.8361 45.0111 18.1974 43.9944 21.4442C43.3385 23.6087 43.2401 28.069 43.8305 30.0039C44.9127 33.6443 46.4213 35.3168 50.0944 36.9566C52.3901 38.0061 57.3423 38.2029 60.1955 37.4158C65.5085 35.9072 67.8042 32.5292 67.8042 26.1012C67.8042 20.7227 66.2956 17.7711 62.6224 15.8689C59.5724 14.3275 54.8826 13.8356 51.5375 14.7539ZM58.031 20.4931C58.8509 21.0179 59.1133 21.477 59.4084 22.8216C60.1627 26.3964 59.6708 30.3975 58.2934 31.5781C56.5552 33.0867 52.9477 32.3324 52.259 30.3319C51.767 28.9217 51.7998 22.7561 52.2918 21.641C53.0789 19.9356 56.1289 19.3453 58.031 20.4931Z" fill="white"/>
<path d="M13.8545 40.4002C13.8545 41.0561 17.4948 44.9916 19.5282 46.533C28.1207 53.1249 39.8287 53.8792 49.0771 48.4679C52.4223 46.5002 58.4895 40.2034 57.0465 40.2034C56.7842 40.2034 56.161 40.7937 55.6691 41.5152C55.1772 42.2367 54.0621 43.483 53.1766 44.3029C51.4384 45.9099 51.4712 45.9099 49.3723 44.5652L48.6508 44.0733L49.9298 42.4335C50.6513 41.548 51.2417 40.6625 51.2417 40.4986C51.2417 39.8099 50.5858 40.3018 49.3067 41.9744L47.9293 43.7453L45.7648 42.991C44.5841 42.5647 43.5675 42.1384 43.5019 42.0728C43.4035 42.0072 43.5019 41.548 43.6658 41.0561C44.125 39.8754 43.3051 39.8754 42.7476 41.0561C42.4196 41.7776 42.2228 41.876 41.4029 41.712C40.8782 41.6136 39.468 41.4496 38.2873 41.3185C36.8115 41.1545 36.1556 40.9577 36.1556 40.6625C36.1556 40.4002 35.926 40.2034 35.6637 40.2034C35.4013 40.2034 35.1717 40.4002 35.1717 40.6625C35.1717 40.9577 34.5158 41.1545 33.04 41.3185C31.8594 41.4496 30.4492 41.6136 29.9244 41.712C29.1045 41.876 28.9077 41.7776 28.5798 41.0561C28.0223 39.8754 27.2024 39.8754 27.6615 41.0561C27.8255 41.548 27.9239 42.0072 27.8255 42.0728C27.7599 42.1384 26.7432 42.5647 25.5298 42.991L23.3653 43.7781L21.9878 41.9744C21.2007 40.9905 20.3809 40.2034 20.1513 40.2034C19.6265 40.2034 19.8233 40.5642 21.2991 42.4335C21.9223 43.1878 22.3814 44.0077 22.283 44.2373C22.1846 44.4668 21.5943 44.926 20.9384 45.2539L19.7249 45.9099L17.9212 44.1061C16.9373 43.1222 15.7894 41.8432 15.3959 41.2857C14.7728 40.3346 13.8545 39.8426 13.8545 40.4002ZM35.1062 45.0244L35.0078 47.9104L33.9911 48.0088C33.0728 48.1072 32.8104 47.9104 31.8266 46.533C30.7443 45.09 29.5965 43.0894 29.5965 42.6959C29.5965 42.4991 31.269 42.3023 33.4664 42.2367L35.2045 42.1711L35.1062 45.0244ZM40.2223 42.3679C42.0916 42.6303 42.0916 42.8271 40.0583 45.9099C38.6809 47.976 38.5497 48.0744 37.4674 48.0088L36.3196 47.9104L36.2212 45.0244L36.1228 42.1711H37.4019C38.1234 42.1711 39.3696 42.2695 40.2223 42.3679ZM28.9405 43.4174C28.9405 43.5814 29.5965 44.7292 30.4164 45.9755C31.2035 47.2217 31.8922 48.3368 31.8922 48.4351C31.8922 48.5663 31.4986 48.7631 31.0395 48.8615C30.3836 49.0255 29.7276 48.7959 28.1534 47.7792C27.0384 47.0249 25.6938 46.0083 25.169 45.4507L24.2508 44.4996L25.6938 43.8437C27.2024 43.1878 28.9405 42.9582 28.9405 43.4174ZM45.5352 43.8109L47.0766 44.4996L46.2895 45.3195C45.8632 45.7459 44.5513 46.7953 43.3707 47.6152C41.5997 48.7959 41.0094 49.0583 40.3207 48.8943C39.2384 48.5991 39.2384 48.5663 40.2223 47.1233C40.6486 46.4674 41.4029 45.3195 41.8621 44.5324C42.846 42.9582 43.3051 42.8599 45.5352 43.8109ZM28.0551 48.6975C29.3013 49.4518 29.5309 49.8454 28.9405 50.2061C28.2518 50.6325 21.4631 47.4185 21.1679 46.533C21.0696 46.3034 21.4959 45.8443 22.0862 45.4835L23.1357 44.8604L25.0051 46.4018C26.0217 47.2545 27.3991 48.2712 28.0551 48.6975ZM50.225 46.6314C49.3395 47.6808 42.9771 50.5669 42.3868 50.2061C41.7965 49.8454 42.0261 49.4518 43.3051 48.6647C43.961 48.2712 45.3056 47.2217 46.2567 46.3362L47.9949 44.762L49.2739 45.4835C50.2578 46.041 50.4874 46.3034 50.225 46.6314ZM39.8615 49.583C40.5175 49.9109 41.075 50.2717 41.075 50.4357C41.075 50.9276 39.2712 51.1572 35.6637 51.1572C32.0233 51.1572 30.2524 50.9276 30.2524 50.4029C30.2524 50.1405 32.1545 49.2222 33.368 48.9271C34.6798 48.5991 38.6481 48.9927 39.8615 49.583Z" fill="white"/>
</svg>
