<svg width="63" height="53" viewBox="0 0 63 53" fill="none" xmlns="http://www.w3.org/2000/svg">
<path d="M27.2201 0.192396C22.9567 0.749924 18.3325 2.58649 14.9545 5.07897C12.8884 6.62037 8.85449 10.9166 8.85449 11.5725C8.85449 12.3268 9.28084 11.9661 11.0846 9.83435C12.0029 8.7193 13.2163 7.47306 13.7739 7.07951C14.7905 6.358 14.8233 6.358 15.9712 6.94833C16.5943 7.30908 17.1846 7.66983 17.2502 7.80101C17.3158 7.9322 16.7911 8.85048 16.0696 9.89994C15.3481 10.9494 14.8561 11.8677 14.9545 11.9661C15.1513 12.1629 16.3975 10.8838 17.5782 9.24403L18.2341 8.32575L20.4642 9.04725L22.6943 9.80156L22.4647 10.9166C22.2352 12.2612 22.7599 12.3268 23.3502 11.015C23.6126 10.3591 23.9405 10.0967 24.2685 10.1951C24.5309 10.2935 25.9083 10.4903 27.3185 10.5887C29.483 10.7526 29.975 10.8838 30.1061 11.4086C30.2701 12.0973 30.8277 12.1956 30.8277 11.5397C30.8277 10.9494 31.5492 10.687 33.2217 10.687C33.9761 10.687 35.1567 10.5559 35.8454 10.3919C36.9933 10.1295 37.0916 10.1623 37.5836 11.0478C38.2395 12.3596 38.7642 12.2612 38.5347 10.9166C38.3379 9.86715 38.3707 9.80156 39.7481 9.27682C42.7653 8.16177 42.7653 8.16177 44.2739 10.1623C45.553 11.8349 46.2417 12.3924 46.2417 11.7365C46.2417 11.3758 45.3234 10.0311 44.3395 8.98166C43.4212 7.99779 43.5524 7.63704 45.0938 6.88273C45.9137 6.52198 46.3401 6.45639 46.832 6.71875C47.6191 7.1451 51.161 10.9494 51.161 11.3758C51.161 11.5397 51.3906 11.6709 51.653 11.6709C51.9153 11.6709 52.1449 11.5397 52.1449 11.343C52.1449 10.851 47.6519 6.22682 45.9465 4.98058C40.7976 1.20906 33.6153 -0.627499 27.2201 0.192396ZM34.3696 1.04509C35.2879 1.17627 36.075 1.40584 36.075 1.56982C36.075 2.29133 32.9266 3.20961 30.4341 3.20961C26.6626 3.20961 23.0223 1.40584 26.1707 1.07788C28.3024 0.848311 32.5658 0.848311 34.3696 1.04509ZM24.1045 2.12735C24.2029 2.32412 23.5798 2.94724 22.7271 3.53756C21.8416 4.12789 20.5298 5.17735 19.7427 5.89886L18.3653 7.1779L17.0534 6.58757C16.2991 6.25961 15.7744 5.83327 15.84 5.63649C16.1024 4.88219 21.94 1.93057 23.3502 1.86498C23.6454 1.83218 23.9733 1.96337 24.1045 2.12735ZM39.6169 2.4881C41.4535 3.20961 44.8315 5.01337 45.0938 5.43972C45.1922 5.6037 44.7331 6.03004 44.1099 6.42359L42.9621 7.1451L40.732 5.34133C39.5185 4.35746 38.1411 3.30799 37.6492 2.98004C36.7637 2.42251 36.6981 1.83218 37.4852 1.83218C37.7148 1.83218 38.6658 2.12735 39.6169 2.4881ZM40.24 5.99725C42.011 7.57144 41.9782 7.66983 39.1906 8.58811C38.2067 8.94887 37.5508 9.01446 37.4852 8.81768C37.4196 8.62091 36.6325 7.40747 35.7798 6.06284C34.1728 3.66875 34.1728 3.63595 34.8615 3.2424C35.4519 2.94724 35.8454 3.01283 37.1244 3.73434C37.9771 4.19348 39.3546 5.21015 40.24 5.99725ZM26.433 3.57036C26.4986 3.79993 25.9083 5.01337 25.1212 6.25961C24.3013 7.47306 23.5798 8.65371 23.5142 8.81768C23.4158 9.14564 20.6282 8.35854 19.6771 7.73542C19.2508 7.44026 19.3819 7.24349 20.333 6.3908C23.547 3.63595 26.0067 2.4881 26.433 3.57036ZM30.1717 7.07951V10.0311H29.2863C28.1712 10.0311 24.5637 9.4408 24.3669 9.24403C24.2029 9.11285 25.4492 7.07951 26.8266 5.17735C27.4825 4.32466 27.8432 4.12789 28.8927 4.12789H30.1717V7.07951ZM35.0911 6.65316C37.0261 9.53919 37.0589 9.4736 33.4185 9.83435C31.3196 10.0639 31.2212 10.0311 31.0244 9.30962C30.7621 8.29295 30.7621 4.61983 31.0572 4.35746C31.1556 4.22628 31.7459 4.12789 32.3363 4.12789C33.2873 4.12789 33.5497 4.35746 35.0911 6.65316Z" fill="#1461A8"/>
<path d="M0 17.0822V19.8699H1.63979H3.27958V25.9371V32.0043H1.63979H0V34.7919V37.5796H7.21507H14.4301V34.7919V32.0043H12.7903H11.1506V25.9371V19.8699H12.7903H14.4301V17.0822V14.2946H7.21507H0V17.0822Z" fill="#1461A8"/>
<path d="M20.4645 14.9506C18.3328 15.8033 16.9225 17.2135 16.2666 19.1156C15.6107 21.0506 15.6107 22.1984 16.2338 23.7398C17.1193 25.806 19.1854 27.577 21.6451 28.3313C22.2682 28.528 24.5312 29.2167 26.6629 29.8727C29.7457 30.8237 30.5 31.1517 30.5 31.6436C30.5 32.3979 29.6473 32.6603 27.2204 32.6603C25.0231 32.6603 22.4978 31.578 21.2516 30.0694C20.4317 29.1184 20.2349 29.0528 18.2344 29.0528H16.0698V33.3162V37.5797H18.5295C20.8908 37.5797 20.9892 37.5469 20.9892 36.7926V36.0055L23.0553 36.8582C24.6295 37.5469 25.7774 37.7436 28.2043 37.842C30.9919 37.9404 31.5494 37.8748 33.1236 37.1533C35.321 36.1694 36.272 35.284 37.0919 33.513C38.3382 30.7253 37.5839 27.8721 34.993 25.5764C33.6484 24.3958 32.8613 24.0678 28.4994 22.7888C25.7446 22.0017 23.2849 21.149 23.0226 20.8866C22.5962 20.4603 22.629 20.3291 23.2849 19.8044C24.1704 19.0828 25.1543 19.0828 27.45 19.6732C29.4505 20.1979 31.3527 21.313 31.8118 22.1984C32.107 22.7232 32.5333 22.8216 34.5995 22.8216H37.0591V18.8861V14.9506H34.5995C32.5661 14.9506 32.1398 15.049 32.1398 15.4753C32.1398 16.0656 32.0086 16.0328 29.5161 15.0818C27.2204 14.1963 22.5306 14.1307 20.4645 14.9506Z" fill="#1461A8"/>
<path d="M46.5375 14.7541C42.6676 15.8363 40.0111 18.1976 38.9944 21.4444C38.3385 23.6089 38.2401 28.0692 38.8305 30.0041C39.9127 33.6444 41.4213 35.317 45.0944 36.9568C47.3901 38.0063 52.3423 38.2031 55.1955 37.416C60.5085 35.9074 62.8042 32.5294 62.8042 26.1014C62.8042 20.7229 61.2956 17.7713 57.6224 15.8691C54.5724 14.3277 49.8826 13.8358 46.5375 14.7541ZM53.031 20.4933C53.8509 21.0181 54.1133 21.4772 54.4084 22.8218C55.1627 26.3966 54.6708 30.3977 53.2934 31.5783C51.5552 33.0869 47.9477 32.3326 47.259 30.3321C46.767 28.9219 46.7998 22.7563 47.2918 21.6412C48.0789 19.9358 51.1289 19.3455 53.031 20.4933Z" fill="#1461A8"/>
<path d="M8.85449 40.4002C8.85449 41.0561 12.4948 44.9916 14.5282 46.533C23.1207 53.1249 34.8287 53.8792 44.0771 48.4679C47.4223 46.5002 53.4895 40.2034 52.0465 40.2034C51.7842 40.2034 51.161 40.7937 50.6691 41.5152C50.1772 42.2367 49.0621 43.483 48.1766 44.3029C46.4384 45.9099 46.4712 45.9099 44.3723 44.5652L43.6508 44.0733L44.9298 42.4335C45.6513 41.548 46.2417 40.6625 46.2417 40.4986C46.2417 39.8099 45.5858 40.3018 44.3067 41.9744L42.9293 43.7453L40.7648 42.991C39.5841 42.5647 38.5675 42.1384 38.5019 42.0728C38.4035 42.0072 38.5019 41.548 38.6658 41.0561C39.125 39.8754 38.3051 39.8754 37.7476 41.0561C37.4196 41.7776 37.2228 41.876 36.4029 41.712C35.8782 41.6136 34.468 41.4496 33.2873 41.3185C31.8115 41.1545 31.1556 40.9577 31.1556 40.6625C31.1556 40.4002 30.926 40.2034 30.6637 40.2034C30.4013 40.2034 30.1717 40.4002 30.1717 40.6625C30.1717 40.9577 29.5158 41.1545 28.04 41.3185C26.8594 41.4496 25.4492 41.6136 24.9244 41.712C24.1045 41.876 23.9078 41.7776 23.5798 41.0561C23.0223 39.8754 22.2024 39.8754 22.6615 41.0561C22.8255 41.548 22.9239 42.0072 22.8255 42.0728C22.7599 42.1384 21.7432 42.5647 20.5298 42.991L18.3653 43.7781L16.9878 41.9744C16.2007 40.9905 15.3808 40.2034 15.1513 40.2034C14.6265 40.2034 14.8233 40.5642 16.2991 42.4335C16.9223 43.1878 17.3814 44.0077 17.283 44.2373C17.1846 44.4668 16.5943 44.926 15.9384 45.2539L14.7249 45.9099L12.9212 44.1061C11.9373 43.1222 10.7894 41.8432 10.3959 41.2857C9.77277 40.3346 8.85449 39.8426 8.85449 40.4002ZM30.1061 45.0244L30.0078 47.9104L28.9911 48.0088C28.0728 48.1072 27.8104 47.9104 26.8266 46.533C25.7443 45.09 24.5965 43.0894 24.5965 42.6959C24.5965 42.4991 26.269 42.3023 28.4664 42.2367L30.2045 42.1711L30.1061 45.0244ZM35.2223 42.3679C37.0916 42.6303 37.0916 42.8271 35.0583 45.9099C33.6809 47.976 33.5497 48.0744 32.4674 48.0088L31.3196 47.9104L31.2212 45.0244L31.1228 42.1711H32.4019C33.1234 42.1711 34.3696 42.2695 35.2223 42.3679ZM23.9405 43.4174C23.9405 43.5814 24.5965 44.7292 25.4164 45.9755C26.2035 47.2217 26.8922 48.3368 26.8922 48.4351C26.8922 48.5663 26.4986 48.7631 26.0395 48.8615C25.3836 49.0255 24.7276 48.7959 23.1534 47.7792C22.0384 47.0249 20.6938 46.0083 20.169 45.4507L19.2508 44.4996L20.6938 43.8437C22.2024 43.1878 23.9405 42.9582 23.9405 43.4174ZM40.5352 43.8109L42.0766 44.4996L41.2895 45.3195C40.8632 45.7459 39.5513 46.7953 38.3707 47.6152C36.5997 48.7959 36.0094 49.0583 35.3207 48.8943C34.2384 48.5991 34.2384 48.5663 35.2223 47.1233C35.6486 46.4674 36.4029 45.3195 36.8621 44.5324C37.846 42.9582 38.3051 42.8599 40.5352 43.8109ZM23.0551 48.6975C24.3013 49.4518 24.5309 49.8454 23.9405 50.2061C23.2518 50.6325 16.4631 47.4185 16.1679 46.533C16.0696 46.3034 16.4959 45.8443 17.0862 45.4835L18.1357 44.8604L20.0051 46.4018C21.0217 47.2545 22.3991 48.2712 23.0551 48.6975ZM45.225 46.6314C44.3395 47.6808 37.9771 50.5669 37.3868 50.2061C36.7965 49.8454 37.0261 49.4518 38.3051 48.6647C38.961 48.2712 40.3056 47.2217 41.2567 46.3362L42.9949 44.762L44.2739 45.4835C45.2578 46.041 45.4874 46.3034 45.225 46.6314ZM34.8615 49.583C35.5175 49.9109 36.075 50.2717 36.075 50.4357C36.075 50.9276 34.2712 51.1572 30.6637 51.1572C27.0233 51.1572 25.2524 50.9276 25.2524 50.4029C25.2524 50.1405 27.1545 49.2222 28.368 48.9271C29.6798 48.5991 33.6481 48.9927 34.8615 49.583Z" fill="#1461A8"/>
</svg>
