<svg width="47" height="47" viewBox="0 0 47 47" fill="none" xmlns="http://www.w3.org/2000/svg">
<path d="M20.1428 1.93861C21.1635 1.3493 22.3214 1.03906 23.5 1.03906C24.6786 1.03906 25.8364 1.3493 26.8571 1.93861L40.4938 9.81111C41.5145 10.4004 42.3621 11.248 42.9514 12.2686C43.5407 13.2893 43.851 14.4471 43.851 15.6257V31.374C43.851 32.5526 43.5407 33.7104 42.9514 34.7311C42.3621 35.7517 41.5145 36.5993 40.4938 37.1886L26.8571 45.0611C25.8364 45.6504 24.6786 45.9606 23.5 45.9606C22.3214 45.9606 21.1635 45.6504 20.1428 45.0611L6.50613 37.1886C5.48545 36.5993 4.63787 35.7517 4.04857 34.7311C3.45927 33.7104 3.14902 32.5526 3.14899 31.374V15.6257C3.14902 14.4471 3.45927 13.2893 4.04857 12.2686C4.63787 11.248 5.48545 10.4004 6.50613 9.81111L20.1428 1.93861Z" fill="#F66DBC"/>
<path d="M30.1136 30.8782C30.4493 32.1035 29.1115 32.9965 28.1077 32.3268L23.5369 29.3171L18.9645 32.3268C17.9607 32.9965 16.6229 31.9927 16.9569 30.8782L18.184 25.6377L13.9472 22.1798C12.9435 21.3993 13.5007 19.8382 14.7278 19.7291L20.1915 19.3934L22.1991 14.2637C22.6439 13.1491 24.3175 13.1491 24.7623 14.2637L26.7698 19.3934M29.5596 19.7274V27.5328M33.5714 23.6301H25.7661" stroke="white" stroke-width="1.5" stroke-miterlimit="10" stroke-linecap="round" stroke-linejoin="round"/>
</svg>
