<svg width="740" height="225" viewBox="0 0 740 225" fill="none" xmlns="http://www.w3.org/2000/svg">
<path d="M637.5 84.15V168.3H651.525H665.55L663.765 141.525C662.49 118.32 662.745 114.75 666.315 114.75C668.355 114.75 679.065 126.735 690.03 141.525L709.92 168.3H724.71C732.87 168.3 739.5 167.79 739.5 167.025C739.5 166.26 730.065 152.235 718.59 136.17L697.935 106.59L706.35 99.96C715.53 92.82 726.75 71.4 726.75 60.435C726.75 53.805 726.24 53.55 714.255 53.55C702.525 53.55 701.76 54.06 700.485 61.2C697.935 72.675 683.91 86.7 672.69 88.485L663 90.015V44.88V2.14577e-05H650.25H637.5V84.15Z" fill="#494949"/>
<path d="M460.53 54.825C425.595 67.32 410.295 107.1 427.89 140.505C449.055 181.56 509.745 181.56 530.91 140.505C556.155 92.055 511.02 36.72 460.53 54.825ZM500.82 86.955C521.985 105.315 515.1 136.425 487.815 145.605C480.675 147.9 476.85 147.645 467.67 144.075C442.68 134.64 437.58 104.805 457.98 86.955C465.375 80.325 468.945 79.05 479.4 79.05C489.855 79.05 493.425 80.325 500.82 86.955Z" fill="#494949"/>
<path d="M554.625 56.355C553.605 57.885 553.605 83.64 554.625 113.73L556.41 168.3H568.905H581.4V136.425C581.4 102 583.695 93.33 594.66 85.68C597.72 83.385 603.585 81.6 607.155 81.6C620.16 81.6 622.2 79.305 622.2 66.045C622.2 54.825 621.69 53.55 616.59 53.55C608.175 53.805 592.11 59.925 586.245 65.28C581.655 69.615 581.4 69.36 581.4 61.71C581.4 53.55 581.145 53.55 568.905 53.55C561.765 53.55 555.39 54.825 554.625 56.355Z" fill="#494949"/>
<path d="M262.65 57.885C262.65 59.415 270.045 84.66 289.68 149.685L296.055 170.85H308.55C322.83 170.85 320.535 175.695 332.775 124.44C336.855 107.865 340.68 94.86 341.19 95.37C341.7 96.135 346.29 112.965 351.39 133.11L360.825 169.575L373.575 170.34L386.325 171.105L401.37 116.79C409.785 86.955 417.18 60.945 417.69 59.16C418.455 56.61 415.65 56.1 405.195 56.61L391.68 57.375L382.5 92.31C377.655 111.69 373.065 127.5 372.3 127.5C371.535 127.5 366.945 111.69 362.1 92.31L353.175 57.375L340.425 56.61L327.42 55.845L318.75 94.35C314.16 115.26 310.08 132.345 309.825 132.09C309.315 131.58 306 120.36 302.43 107.1C298.605 93.84 293.76 76.755 291.72 69.36L287.895 56.1H275.145C268.26 56.1 262.65 56.865 262.65 57.885Z" fill="#494949"/>
<path d="M95.115 37.485L84.15 38.505V83.13V128.01L76.755 135.405C66.045 146.115 48.705 146.115 37.995 135.405C31.875 129.03 30.6 125.715 30.345 114.24C30.345 106.845 29.835 97.155 29.58 93.075C29.325 88.74 28.815 74.715 28.56 61.71L28.05 38.25H14.025H0V84.915C0 129.03 0.255 132.345 5.865 143.055C22.695 174.675 64.005 183.855 92.31 162.435C105.825 151.98 112.965 137.955 114.24 119.34L115.26 104.55L125.205 121.125C130.815 130.05 135.15 138.975 135.15 140.76C135.15 142.545 131.325 162.18 126.735 184.365L118.32 224.4H133.875H149.43L155.295 194.31C158.61 177.99 161.67 164.22 161.925 163.965C162.18 163.455 168.81 165.495 176.715 168.3C201.96 177.225 223.125 173.91 239.955 158.865C258.315 142.29 265.455 121.38 260.1 99.45C255.765 81.345 245.31 68.085 228.48 59.925C216.24 54.06 211.905 53.04 197.625 54.06C176.205 55.335 163.2 64.26 151.47 85.17L143.31 100.215L133.11 80.07C127.755 69.105 121.125 54.57 118.575 47.685C115.515 39.78 112.71 35.955 109.905 36.21C107.61 36.465 100.98 36.975 95.115 37.485ZM223.38 92.82C235.365 104.805 235.62 118.575 223.89 131.325C212.67 143.565 201.45 145.095 183.855 137.445L170.34 131.835L171.87 120.615C174.93 96.9 186.15 84.405 203.745 84.15C212.925 84.15 216.24 85.68 223.38 92.82Z" fill="#6CDB44"/>
</svg>
