<svg width="381" height="60" viewBox="0 0 381 60" fill="none" xmlns="http://www.w3.org/2000/svg">
<path d="M52.9607 49.6107L52.9262 49.6449L52.5616 50.0096C48.6592 53.7824 43.3217 56.1076 37.4355 56.1076C31.9521 56.1076 28.5754 55.5149 24.8534 52.2664C24.6078 52.0537 24.343 51.8713 24.0629 51.7155C23.6255 51.3774 23.2072 51.024 22.8005 50.6517L22.7851 50.6365L21.5035 49.3713L21.4882 49.3561L17.3325 45.2414L17.321 45.23L2.80493 30.8571C2.83179 30.8761 2.85865 30.8951 2.88551 30.9141C2.89319 30.9217 2.89702 30.9255 2.90086 30.9331C3.00063 31.0205 3.10423 31.1116 3.204 31.1952C3.2769 31.256 3.35365 31.3206 3.42655 31.3814C3.52632 31.4612 3.62225 31.541 3.72202 31.617C3.74504 31.636 3.76806 31.655 3.79492 31.6778C3.84864 31.7195 3.89853 31.7613 3.94841 31.7993C4.00213 31.8449 4.05585 31.8867 4.10957 31.9247C4.22085 32.0121 4.30911 32.0805 4.34364 32.1033C4.43957 32.1755 4.53934 32.2477 4.6391 32.3198C4.71585 32.3768 4.79259 32.43 4.87317 32.4832C4.97294 32.5554 5.07654 32.6276 5.17631 32.696C5.27608 32.7644 5.38352 32.8328 5.48712 32.8973C5.5984 32.9695 5.70968 33.0417 5.82479 33.1139C5.85933 33.1329 5.89386 33.1595 5.9284 33.1747C6.032 33.2431 6.13944 33.3039 6.24688 33.3685C6.24688 33.3723 6.25072 33.3723 6.25456 33.3723C6.38118 33.4482 6.50781 33.5242 6.63827 33.5964C6.76874 33.6686 6.8992 33.7408 7.0335 33.813C7.15246 33.8814 7.61675 34.1169 7.69734 34.1511C7.78559 34.1967 7.87385 34.2385 7.9621 34.2765C7.98896 34.2917 8.01582 34.3069 8.04652 34.3145C8.14629 34.3601 8.24221 34.4095 8.34582 34.4551C8.38419 34.4741 8.42256 34.4931 8.46093 34.5083C8.56454 34.5539 8.66814 34.5995 8.76791 34.6412C8.93674 34.7134 9.09791 34.7818 9.27058 34.8464C9.38569 34.8958 9.50465 34.9414 9.62744 34.987C9.73871 35.0288 9.84999 35.0706 9.95743 35.1086C10.0303 35.1352 10.0994 35.158 10.1685 35.1808C10.2682 35.2149 10.3642 35.2491 10.4716 35.2795C10.5867 35.3175 10.698 35.3517 10.8131 35.3935C10.9398 35.4315 11.0625 35.4695 11.1892 35.5037C11.2774 35.5341 11.3618 35.5569 11.4501 35.5797C11.5537 35.6101 11.6573 35.6367 11.7571 35.6633C11.8799 35.6975 12.0027 35.7241 12.1254 35.7545C12.2751 35.7886 12.4247 35.8266 12.5744 35.857C12.6933 35.8836 12.8085 35.9102 12.9312 35.933C13.1154 35.9672 13.2996 36.0052 13.4876 36.0356C13.5414 36.047 13.5912 36.0546 13.645 36.0622C13.714 36.0736 13.7869 36.085 13.8522 36.0964C14.0172 36.123 14.1822 36.1496 14.3472 36.1686C14.5314 36.1914 14.7155 36.2142 14.8997 36.2332C15.0532 36.2522 15.2067 36.2674 15.364 36.2788C15.5175 36.2902 15.671 36.3054 15.8283 36.313C16.3118 36.3472 16.803 36.3624 17.298 36.3624C23.188 36.3624 28.5294 34.0295 32.4356 30.2454L36.2114 26.5068C36.6066 26.1155 37.0786 25.6444 37.5045 25.2227L57.5615 44.6677L52.9607 49.6107Z" fill="#006297"/>
<path d="M62.1356 49.5615L62.1701 49.5957L62.5347 49.9604C66.4371 53.7332 71.7746 56.0584 77.6608 56.0584C83.1442 56.0584 86.5209 55.4657 90.2429 52.2172C90.4885 52.0045 90.7533 51.8221 91.0334 51.6663C91.4708 51.3282 91.8891 50.9749 92.2958 50.6025L92.3112 50.5873L93.5928 49.3221L93.6081 49.3031L97.7638 45.1885L97.7753 45.1771L112.291 30.8079C112.265 30.8269 112.238 30.8459 112.211 30.8649C112.203 30.8725 112.199 30.8763 112.195 30.8839C112.096 30.9713 111.992 31.0625 111.892 31.1461C111.819 31.2068 111.743 31.2714 111.67 31.3322C111.57 31.412 111.474 31.4918 111.374 31.5678C111.351 31.5868 111.328 31.6058 111.301 31.6286C111.248 31.6704 111.198 31.7122 111.148 31.7502C111.094 31.7957 111.04 31.8375 110.987 31.8755C110.875 31.9629 110.787 32.0313 110.753 32.0541C110.657 32.1263 110.557 32.1985 110.457 32.2707C110.38 32.3277 110.304 32.3808 110.223 32.434C110.123 32.5062 110.02 32.5784 109.92 32.6468C109.82 32.7152 109.713 32.7836 109.609 32.8482C109.498 32.9204 109.387 32.9925 109.272 33.0647C109.237 33.0837 109.202 33.1103 109.168 33.1255C109.064 33.1939 108.957 33.2547 108.849 33.3193C108.849 33.3231 108.846 33.3231 108.842 33.3231C108.715 33.3991 108.588 33.4751 108.458 33.5472C108.328 33.6194 108.197 33.6916 108.063 33.7638C107.944 33.8322 107.48 34.0678 107.399 34.1019C107.311 34.1475 107.222 34.1893 107.134 34.2273C107.107 34.2425 107.08 34.2577 107.05 34.2653C106.95 34.3109 106.854 34.3603 106.75 34.4059C106.712 34.4249 106.674 34.4439 106.635 34.4591C106.532 34.5047 106.428 34.5503 106.328 34.5921C106.16 34.6643 105.998 34.7326 105.826 34.7972C105.711 34.8466 105.592 34.8922 105.469 34.9378C105.358 34.9796 105.246 35.0214 105.139 35.0594C105.066 35.086 104.997 35.1088 104.928 35.1316C104.828 35.1658 104.732 35.2 104.625 35.2304C104.51 35.2684 104.398 35.3025 104.283 35.3443C104.157 35.3823 104.034 35.4203 103.907 35.4545C103.819 35.4849 103.734 35.5077 103.646 35.5305C103.543 35.5609 103.439 35.5875 103.339 35.6141C103.216 35.6483 103.094 35.6749 102.971 35.7053C102.821 35.7395 102.672 35.7775 102.522 35.8079C102.403 35.8345 102.288 35.861 102.165 35.8838C101.981 35.918 101.797 35.956 101.609 35.9864C101.555 35.9978 101.505 36.0054 101.451 36.013C101.382 36.0244 101.309 36.0358 101.244 36.0472C101.079 36.0738 100.914 36.1004 100.749 36.1194C100.565 36.1422 100.381 36.165 100.197 36.184C100.043 36.203 99.8896 36.2182 99.7323 36.2296C99.5788 36.241 99.4253 36.2562 99.268 36.2638C98.7845 36.298 98.2933 36.3132 97.7983 36.3132C91.9083 36.3132 86.5669 33.9804 82.6607 30.1962L78.8849 26.4577C78.4897 26.0663 78.0868 25.656 77.657 25.2305L57.5847 44.6679L62.1356 49.5615Z" fill="#006297"/>
<path d="M37.5161 25.23C35.5016 27.2247 32.5124 30.1806 32.5124 30.1806C28.61 33.9648 23.2763 36.3697 17.3863 36.3697C8.0811 36.3697 2.87788 30.9253 2.80498 30.8607L1.28545 29.2156C0.47581 28.0948 0 26.7232 0 25.2452C0 23.7141 0.510345 22.3008 1.36604 21.1647L1.36987 21.1571L2.75509 19.7856L2.76661 19.778L11.8953 10.7393L11.8991 10.7317L12.6282 10.0137C13.8292 8.82446 15.4293 8.07599 17.1292 8.0038C17.2213 8 17.321 8 17.417 8C17.5206 8 17.6242 8 17.7278 8.0076C19.3854 8.07979 20.9395 8.81686 22.1137 9.97946L23.0768 10.9331L37.5161 25.23Z" fill="#6FCFF5"/>
<path d="M77.6455 25.2339C80.5349 28.0986 82.63 30.1768 82.63 30.1768C86.5324 33.961 91.8738 36.3128 97.7677 36.3128C98.2627 36.3128 105.649 36.6243 112.176 30.9063C112.18 30.9025 112.188 30.8987 112.192 30.8911C112.265 30.8265 112.341 30.7581 112.41 30.6935L113.857 29.2118C114.663 28.0948 115.142 26.7232 115.142 25.2415C115.142 23.7103 114.632 22.297 113.776 21.1609L113.773 21.1533L112.387 19.7818L112.376 19.778L103.247 10.7393L103.243 10.7317L102.514 10.0137C101.313 8.82446 99.7131 8.07599 98.0132 8.0038C97.9212 8 97.8214 8 97.7255 8C97.6219 8 97.5183 8 97.4146 8.0076C95.757 8.07979 94.2029 8.81686 93.0288 9.97946L92.0656 10.9331L77.6455 25.2339Z" fill="#6FCFF5"/>
<path d="M77.6451 25.2333L57.5728 44.6708L37.5159 25.2295L47.1242 15.6362L52.2545 10.5564V10.5526C52.619 10.1917 53.0142 9.87636 53.4287 9.60661C53.6359 9.46983 53.8507 9.34825 54.0656 9.23427C54.3918 9.0633 54.7295 8.92273 55.0671 8.80115C55.8921 8.5162 56.7516 8.37942 57.6112 8.38702C58.4247 8.39462 59.2381 8.53139 60.0132 8.80115C60.1284 8.83914 60.2396 8.88093 60.3548 8.92653C60.5773 9.01391 60.7999 9.12029 61.0186 9.23047C61.6709 9.56862 62.281 10.0093 62.8297 10.5526L67.9639 15.6324L77.6451 25.2333Z" fill="#2BA9E0"/>
<path d="M156.923 54.2869C156.923 54.0521 156.886 53.8424 156.814 53.6579C156.746 53.4678 156.621 53.2973 156.436 53.1464C156.257 52.9898 156.003 52.8389 155.673 52.6935C155.349 52.5425 154.929 52.386 154.415 52.2238C153.845 52.0449 153.314 51.8437 152.822 51.62C152.33 51.3964 151.896 51.1364 151.522 50.8401C151.153 50.5438 150.865 50.2027 150.658 49.8169C150.451 49.4256 150.348 48.9727 150.348 48.4583C150.348 47.9551 150.454 47.4967 150.666 47.0829C150.884 46.6692 151.192 46.3142 151.589 46.0178C151.986 45.7159 152.453 45.4839 152.989 45.3218C153.532 45.1596 154.13 45.0785 154.784 45.0785C155.69 45.0785 156.472 45.2435 157.132 45.5733C157.798 45.9032 158.312 46.3505 158.675 46.9152C159.039 47.4799 159.22 48.1145 159.22 48.8189H156.923C156.923 48.4387 156.842 48.1033 156.679 47.8125C156.523 47.5218 156.282 47.2926 155.958 47.1249C155.639 46.9571 155.237 46.8733 154.75 46.8733C154.281 46.8733 153.889 46.9431 153.576 47.0829C153.269 47.2227 153.037 47.4128 152.88 47.6532C152.729 47.8936 152.654 48.162 152.654 48.4583C152.654 48.6819 152.707 48.8832 152.813 49.0621C152.919 49.2355 153.079 49.4004 153.291 49.5569C153.504 49.7079 153.766 49.8505 154.08 49.9847C154.398 50.1132 154.767 50.2418 155.187 50.3704C155.857 50.5717 156.445 50.7953 156.948 51.0414C157.457 51.2874 157.879 51.5669 158.214 51.88C158.555 52.1931 158.81 52.5453 158.977 52.9367C159.151 53.3281 159.237 53.7726 159.237 54.2702C159.237 54.7957 159.134 55.2654 158.927 55.6791C158.72 56.0928 158.424 56.4451 158.038 56.7358C157.652 57.0265 157.188 57.2474 156.646 57.3983C156.109 57.5493 155.508 57.6248 154.843 57.6248C154.25 57.6248 153.663 57.5465 153.082 57.3899C152.506 57.2278 151.983 56.9874 151.513 56.6687C151.044 56.3444 150.669 55.9363 150.389 55.4443C150.11 54.9467 149.97 54.3652 149.97 53.6999H152.285C152.285 54.0857 152.346 54.4155 152.469 54.6895C152.598 54.9579 152.777 55.1787 153.006 55.352C153.241 55.5197 153.515 55.6427 153.828 55.721C154.141 55.7993 154.479 55.8384 154.843 55.8384C155.312 55.8384 155.698 55.7741 156 55.6455C156.308 55.5114 156.537 55.3269 156.688 55.092C156.844 54.8572 156.923 54.5888 156.923 54.2869ZM161.312 53.0122V52.8361C161.312 52.1707 161.407 51.5585 161.597 50.9994C161.787 50.4347 162.064 49.9455 162.427 49.5318C162.791 49.118 163.235 48.7966 163.761 48.5673C164.286 48.3325 164.885 48.2151 165.556 48.2151C166.238 48.2151 166.842 48.3325 167.367 48.5673C167.898 48.7966 168.346 49.118 168.709 49.5318C169.072 49.9455 169.349 50.4347 169.539 50.9994C169.729 51.5585 169.824 52.1707 169.824 52.8361V53.0122C169.824 53.6719 169.729 54.2841 169.539 54.8488C169.349 55.4079 169.072 55.8971 168.709 56.3165C168.346 56.7302 167.901 57.0517 167.376 57.2809C166.85 57.5101 166.249 57.6248 165.572 57.6248C164.901 57.6248 164.3 57.5101 163.769 57.2809C163.238 57.0517 162.791 56.7302 162.427 56.3165C162.064 55.8971 161.787 55.4079 161.597 54.8488C161.407 54.2841 161.312 53.6719 161.312 53.0122ZM163.526 52.8361V53.0122C163.526 53.4091 163.565 53.7809 163.644 54.1276C163.722 54.4742 163.842 54.7789 164.004 55.0417C164.166 55.3045 164.376 55.5114 164.633 55.6623C164.896 55.8077 165.209 55.8804 165.572 55.8804C165.93 55.8804 166.238 55.8077 166.495 55.6623C166.752 55.5114 166.962 55.3045 167.124 55.0417C167.292 54.7789 167.415 54.4742 167.493 54.1276C167.571 53.7809 167.61 53.4091 167.61 53.0122V52.8361C167.61 52.4447 167.571 52.0785 167.493 51.7374C167.415 51.3908 167.292 51.0861 167.124 50.8233C166.962 50.5549 166.749 50.3453 166.487 50.1943C166.229 50.0378 165.919 49.9595 165.556 49.9595C165.198 49.9595 164.89 50.0378 164.633 50.1943C164.376 50.3453 164.166 50.5549 164.004 50.8233C163.842 51.0861 163.722 51.3908 163.644 51.7374C163.565 52.0785 163.526 52.4447 163.526 52.8361ZM175.195 57.457H172.964V47.5442C172.964 46.8621 173.096 46.289 173.358 45.8249C173.621 45.3553 173.996 45.0003 174.482 44.7599C174.969 44.5194 175.542 44.3992 176.201 44.3992C176.42 44.3992 176.626 44.4132 176.822 44.4412C177.023 44.4691 177.222 44.5083 177.418 44.5586L177.376 46.2443C177.269 46.2163 177.152 46.1967 177.023 46.1856C176.9 46.1744 176.763 46.1688 176.612 46.1688C176.311 46.1688 176.053 46.2219 175.841 46.3281C175.628 46.4344 175.466 46.5909 175.354 46.7978C175.248 46.9991 175.195 47.2479 175.195 47.5442V57.457ZM177.032 48.3828V49.9763H171.597V48.3828H177.032ZM183.551 48.3828V49.9763H178.352V48.3828H183.551ZM179.744 46.152H181.966V54.8404C181.966 55.1088 182.003 55.3157 182.075 55.461C182.148 55.6064 182.257 55.7043 182.402 55.7546C182.548 55.8049 182.721 55.83 182.922 55.83C183.068 55.83 183.202 55.8217 183.325 55.8049C183.448 55.7881 183.551 55.7713 183.635 55.7546L183.644 57.4151C183.459 57.4766 183.249 57.5269 183.015 57.5661C182.785 57.6052 182.525 57.6248 182.235 57.6248C181.737 57.6248 181.301 57.5409 180.926 57.3732C180.552 57.1998 180.261 56.9231 180.054 56.5429C179.847 56.1571 179.744 55.6483 179.744 55.0166V46.152ZM188.411 55.2765L190.398 48.3828H191.807L191.388 50.7646L189.383 57.457H188.167L188.411 55.2765ZM187.312 48.3828L188.805 55.2933L188.939 57.457H187.538L185.157 48.3828H187.312ZM193.652 55.1927L195.111 48.3828H197.258L194.893 57.457H193.493L193.652 55.1927ZM192.025 48.3828L193.996 55.2094L194.256 57.457H193.04L191.019 50.7646L190.608 48.3828H192.025ZM204.424 55.5281V51.3433C204.424 51.0358 204.371 50.7702 204.264 50.5465C204.158 50.3229 203.996 50.1496 203.778 50.0266C203.56 49.9036 203.283 49.8421 202.948 49.8421C202.651 49.8421 202.391 49.8924 202.168 49.993C201.95 50.0937 201.782 50.2362 201.665 50.4208C201.547 50.5997 201.488 50.8065 201.488 51.0414H199.266C199.266 50.6668 199.356 50.3117 199.534 49.9763C199.713 49.6352 199.968 49.3333 200.298 49.0705C200.633 48.8022 201.033 48.5925 201.497 48.4415C201.967 48.2906 202.492 48.2151 203.074 48.2151C203.761 48.2151 204.373 48.3325 204.91 48.5673C205.452 48.7966 205.877 49.1432 206.185 49.6073C206.498 50.0713 206.655 50.6556 206.655 51.36V55.3185C206.655 55.7713 206.683 56.1599 206.738 56.4842C206.8 56.8029 206.889 57.0796 207.007 57.3145V57.457H204.751C204.645 57.2278 204.564 56.9371 204.508 56.5848C204.452 56.227 204.424 55.8748 204.424 55.5281ZM204.734 51.9303L204.751 53.247H203.35C203.004 53.247 202.699 53.2833 202.436 53.356C202.173 53.4231 201.958 53.5238 201.79 53.6579C201.623 53.7865 201.497 53.9431 201.413 54.1276C201.329 54.3065 201.287 54.5106 201.287 54.7398C201.287 54.9634 201.338 55.1647 201.438 55.3436C201.544 55.5225 201.695 55.6651 201.891 55.7713C202.092 55.872 202.327 55.9223 202.595 55.9223C202.987 55.9223 203.328 55.844 203.619 55.6875C203.909 55.5253 204.136 55.3297 204.298 55.1004C204.46 54.8712 204.547 54.6531 204.558 54.4463L205.195 55.4023C205.117 55.6316 205 55.8748 204.843 56.132C204.687 56.3891 204.485 56.6296 204.239 56.8532C203.993 57.0768 203.697 57.2613 203.35 57.4067C203.004 57.5521 202.601 57.6248 202.143 57.6248C201.556 57.6248 201.03 57.5074 200.566 57.2725C200.102 57.0377 199.736 56.7162 199.467 56.3081C199.199 55.8999 199.065 55.4359 199.065 54.9159C199.065 54.4351 199.154 54.0102 199.333 53.6412C199.512 53.2722 199.778 52.9619 200.13 52.7103C200.482 52.4531 200.918 52.2602 201.438 52.1316C201.964 51.9974 202.565 51.9303 203.241 51.9303H204.734ZM211.723 50.2362V57.457H209.509V48.3828H211.606L211.723 50.2362ZM214.483 48.3241L214.449 50.3872C214.326 50.3648 214.186 50.3481 214.03 50.3369C213.879 50.3257 213.736 50.3201 213.602 50.3201C213.261 50.3201 212.962 50.3676 212.705 50.4627C212.447 50.5521 212.232 50.6835 212.059 50.8568C211.891 51.0302 211.763 51.2426 211.673 51.4942C211.584 51.7402 211.533 52.0198 211.522 52.3329L211.044 52.2742C211.044 51.6983 211.103 51.1644 211.22 50.6723C211.338 50.1803 211.508 49.7498 211.732 49.3808C211.955 49.0118 212.235 48.7267 212.57 48.5254C212.911 48.3185 213.303 48.2151 213.745 48.2151C213.868 48.2151 213.999 48.2263 214.139 48.2486C214.284 48.2654 214.399 48.2906 214.483 48.3241ZM220.465 57.6248C219.778 57.6248 219.16 57.5129 218.612 57.2893C218.064 57.0657 217.597 56.7554 217.212 56.3584C216.831 55.9558 216.538 55.489 216.331 54.9579C216.13 54.4211 216.029 53.8452 216.029 53.2302V52.8948C216.029 52.1959 216.13 51.5613 216.331 50.991C216.532 50.4152 216.817 49.9204 217.186 49.5066C217.555 49.0929 217.997 48.7742 218.511 48.5506C219.026 48.3269 219.593 48.2151 220.214 48.2151C220.857 48.2151 221.424 48.3241 221.916 48.5422C222.408 48.7546 222.819 49.0565 223.149 49.4479C223.479 49.8393 223.728 50.3089 223.896 50.8568C224.063 51.3992 224.147 52.0002 224.147 52.6599V53.5909H217.035V52.0645H221.967V51.8968C221.955 51.5445 221.888 51.2231 221.765 50.9323C221.642 50.636 221.452 50.4012 221.195 50.2279C220.938 50.0489 220.605 49.9595 220.197 49.9595C219.867 49.9595 219.579 50.0322 219.333 50.1775C219.093 50.3173 218.892 50.5186 218.729 50.7814C218.573 51.0386 218.456 51.3461 218.377 51.7039C218.299 52.0617 218.26 52.4587 218.26 52.8948V53.2302C218.26 53.6104 218.31 53.9627 218.411 54.2869C218.517 54.6112 218.671 54.8936 218.872 55.134C219.079 55.3688 219.325 55.5533 219.61 55.6875C219.901 55.8161 220.231 55.8804 220.6 55.8804C221.064 55.8804 221.483 55.7909 221.858 55.612C222.238 55.4275 222.568 55.1563 222.847 54.7985L223.963 55.9558C223.773 56.2354 223.515 56.5038 223.191 56.761C222.872 57.0181 222.487 57.2278 222.034 57.3899C221.581 57.5465 221.058 57.6248 220.465 57.6248ZM238.184 54.2869C238.184 54.0521 238.148 53.8424 238.075 53.6579C238.008 53.4678 237.883 53.2973 237.698 53.1464C237.519 52.9898 237.265 52.8389 236.935 52.6935C236.611 52.5425 236.191 52.386 235.677 52.2238C235.107 52.0449 234.575 51.8437 234.083 51.62C233.591 51.3964 233.158 51.1364 232.784 50.8401C232.415 50.5438 232.127 50.2027 231.92 49.8169C231.713 49.4256 231.609 48.9727 231.609 48.4583C231.609 47.9551 231.716 47.4967 231.928 47.0829C232.146 46.6692 232.454 46.3142 232.851 46.0178C233.248 45.7159 233.714 45.4839 234.251 45.3218C234.794 45.1596 235.392 45.0785 236.046 45.0785C236.952 45.0785 237.734 45.2435 238.394 45.5733C239.059 45.9032 239.574 46.3505 239.937 46.9152C240.301 47.4799 240.482 48.1145 240.482 48.8189H238.184C238.184 48.4387 238.103 48.1033 237.941 47.8125C237.785 47.5218 237.544 47.2926 237.22 47.1249C236.901 46.9571 236.499 46.8733 236.012 46.8733C235.543 46.8733 235.151 46.9431 234.838 47.0829C234.531 47.2227 234.299 47.4128 234.142 47.6532C233.991 47.8936 233.916 48.162 233.916 48.4583C233.916 48.6819 233.969 48.8832 234.075 49.0621C234.181 49.2355 234.341 49.4004 234.553 49.5569C234.766 49.7079 235.028 49.8505 235.341 49.9847C235.66 50.1132 236.029 50.2418 236.448 50.3704C237.119 50.5717 237.706 50.7953 238.21 51.0414C238.718 51.2874 239.141 51.5669 239.476 51.88C239.817 52.1931 240.071 52.5453 240.239 52.9367C240.413 53.3281 240.499 53.7726 240.499 54.2702C240.499 54.7957 240.396 55.2654 240.189 55.6791C239.982 56.0928 239.686 56.4451 239.3 56.7358C238.914 57.0265 238.45 57.2474 237.908 57.3983C237.371 57.5493 236.77 57.6248 236.105 57.6248C235.512 57.6248 234.925 57.5465 234.343 57.3899C233.768 57.2278 233.245 56.9874 232.775 56.6687C232.306 56.3444 231.931 55.9363 231.651 55.4443C231.372 54.9467 231.232 54.3652 231.232 53.6999H233.547C233.547 54.0857 233.608 54.4155 233.731 54.6895C233.86 54.9579 234.039 55.1787 234.268 55.352C234.503 55.5197 234.777 55.6427 235.09 55.721C235.403 55.7993 235.741 55.8384 236.105 55.8384C236.574 55.8384 236.96 55.7741 237.262 55.6455C237.569 55.5114 237.799 55.3269 237.95 55.092C238.106 54.8572 238.184 54.5888 238.184 54.2869ZM242.574 53.0122V52.8361C242.574 52.1707 242.669 51.5585 242.859 50.9994C243.049 50.4347 243.326 49.9455 243.689 49.5318C244.053 49.118 244.497 48.7966 245.023 48.5673C245.548 48.3325 246.147 48.2151 246.818 48.2151C247.5 48.2151 248.103 48.3325 248.629 48.5673C249.16 48.7966 249.607 49.118 249.971 49.5318C250.334 49.9455 250.611 50.4347 250.801 50.9994C250.991 51.5585 251.086 52.1707 251.086 52.8361V53.0122C251.086 53.6719 250.991 54.2841 250.801 54.8488C250.611 55.4079 250.334 55.8971 249.971 56.3165C249.607 56.7302 249.163 57.0517 248.637 57.2809C248.112 57.5101 247.511 57.6248 246.834 57.6248C246.163 57.6248 245.562 57.5101 245.031 57.2809C244.5 57.0517 244.053 56.7302 243.689 56.3165C243.326 55.8971 243.049 55.4079 242.859 54.8488C242.669 54.2841 242.574 53.6719 242.574 53.0122ZM244.788 52.8361V53.0122C244.788 53.4091 244.827 53.7809 244.905 54.1276C244.984 54.4742 245.104 54.7789 245.266 55.0417C245.428 55.3045 245.638 55.5114 245.895 55.6623C246.158 55.8077 246.471 55.8804 246.834 55.8804C247.192 55.8804 247.5 55.8077 247.757 55.6623C248.014 55.5114 248.224 55.3045 248.386 55.0417C248.554 54.7789 248.677 54.4742 248.755 54.1276C248.833 53.7809 248.872 53.4091 248.872 53.0122V52.8361C248.872 52.4447 248.833 52.0785 248.755 51.7374C248.677 51.3908 248.554 51.0861 248.386 50.8233C248.224 50.5549 248.011 50.3453 247.748 50.1943C247.491 50.0378 247.181 49.9595 246.818 49.9595C246.46 49.9595 246.152 50.0378 245.895 50.1943C245.638 50.3453 245.428 50.5549 245.266 50.8233C245.104 51.0861 244.984 51.3908 244.905 51.7374C244.827 52.0785 244.788 52.4447 244.788 52.8361ZM255.903 44.5754V57.457H253.681V44.5754H255.903ZM264.277 55.3017V48.3828H266.507V57.457H264.411L264.277 55.3017ZM264.562 53.4231L265.249 53.4063C265.249 54.0158 265.182 54.5777 265.048 55.092C264.914 55.6064 264.704 56.0537 264.419 56.4339C264.14 56.8085 263.785 57.102 263.354 57.3145C262.924 57.5213 262.415 57.6248 261.828 57.6248C261.38 57.6248 260.972 57.5633 260.603 57.4403C260.234 57.3117 259.916 57.1132 259.647 56.8448C259.384 56.5709 259.18 56.2214 259.035 55.7965C258.89 55.366 258.817 54.8488 258.817 54.245V48.3828H261.031V54.2618C261.031 54.5637 261.065 54.8153 261.132 55.0166C261.204 55.2178 261.302 55.3828 261.425 55.5114C261.554 55.6344 261.702 55.7238 261.87 55.7797C262.043 55.83 262.227 55.8552 262.423 55.8552C262.96 55.8552 263.382 55.749 263.69 55.5365C264.003 55.3185 264.226 55.0277 264.36 54.6643C264.495 54.2953 264.562 53.8816 264.562 53.4231ZM273.623 48.3828V49.9763H268.423V48.3828H273.623ZM269.815 46.152H272.037V54.8404C272.037 55.1088 272.074 55.3157 272.146 55.461C272.219 55.6064 272.328 55.7043 272.474 55.7546C272.619 55.8049 272.792 55.83 272.994 55.83C273.139 55.83 273.273 55.8217 273.396 55.8049C273.519 55.7881 273.623 55.7713 273.706 55.7546L273.715 57.4151C273.53 57.4766 273.321 57.5269 273.086 57.5661C272.857 57.6052 272.597 57.6248 272.306 57.6248C271.808 57.6248 271.372 57.5409 270.998 57.3732C270.623 57.1998 270.332 56.9231 270.125 56.5429C269.918 56.1571 269.815 55.6483 269.815 55.0166V46.152ZM278.306 48.3828V57.457H276.083V48.3828H278.306ZM275.932 46.0094C275.932 45.6796 276.044 45.4056 276.268 45.1876C276.497 44.9695 276.804 44.8605 277.19 44.8605C277.576 44.8605 277.881 44.9695 278.104 45.1876C278.333 45.4056 278.448 45.6796 278.448 46.0094C278.448 46.3337 278.333 46.6049 278.104 46.8229C277.881 47.041 277.576 47.15 277.19 47.15C276.804 47.15 276.497 47.041 276.268 46.8229C276.044 46.6049 275.932 46.3337 275.932 46.0094ZM280.884 53.0122V52.8361C280.884 52.1707 280.979 51.5585 281.169 50.9994C281.359 50.4347 281.636 49.9455 281.999 49.5318C282.362 49.118 282.807 48.7966 283.332 48.5673C283.858 48.3325 284.456 48.2151 285.127 48.2151C285.809 48.2151 286.413 48.3325 286.939 48.5673C287.47 48.7966 287.917 49.118 288.28 49.5318C288.644 49.9455 288.921 50.4347 289.111 50.9994C289.301 51.5585 289.396 52.1707 289.396 52.8361V53.0122C289.396 53.6719 289.301 54.2841 289.111 54.8488C288.921 55.4079 288.644 55.8971 288.28 56.3165C287.917 56.7302 287.473 57.0517 286.947 57.2809C286.421 57.5101 285.82 57.6248 285.144 57.6248C284.473 57.6248 283.872 57.5101 283.341 57.2809C282.81 57.0517 282.362 56.7302 281.999 56.3165C281.636 55.8971 281.359 55.4079 281.169 54.8488C280.979 54.2841 280.884 53.6719 280.884 53.0122ZM283.098 52.8361V53.0122C283.098 53.4091 283.137 53.7809 283.215 54.1276C283.293 54.4742 283.413 54.7789 283.576 55.0417C283.738 55.3045 283.947 55.5114 284.205 55.6623C284.467 55.8077 284.78 55.8804 285.144 55.8804C285.502 55.8804 285.809 55.8077 286.066 55.6623C286.324 55.5114 286.533 55.3045 286.695 55.0417C286.863 54.7789 286.986 54.4742 287.064 54.1276C287.143 53.7809 287.182 53.4091 287.182 53.0122V52.8361C287.182 52.4447 287.143 52.0785 287.064 51.7374C286.986 51.3908 286.863 51.0861 286.695 50.8233C286.533 50.5549 286.321 50.3453 286.058 50.1943C285.801 50.0378 285.491 49.9595 285.127 49.9595C284.769 49.9595 284.462 50.0378 284.205 50.1943C283.947 50.3453 283.738 50.5549 283.576 50.8233C283.413 51.0861 283.293 51.3908 283.215 51.7374C283.137 52.0785 283.098 52.4447 283.098 52.8361ZM294.037 50.3201V57.457H291.823V48.3828H293.903L294.037 50.3201ZM293.685 52.5929H293.031C293.036 51.9331 293.126 51.3349 293.299 50.7981C293.472 50.2614 293.715 49.8001 294.029 49.4144C294.347 49.0286 294.725 48.7323 295.161 48.5254C295.597 48.3185 296.083 48.2151 296.62 48.2151C297.056 48.2151 297.45 48.2766 297.802 48.3996C298.155 48.5226 298.457 48.7183 298.708 48.9867C298.965 49.255 299.161 49.6073 299.295 50.0434C299.435 50.4739 299.505 51.005 299.505 51.6368V57.457H297.274V51.62C297.274 51.2063 297.213 50.8792 297.09 50.6388C296.972 50.3984 296.799 50.2279 296.57 50.1272C296.346 50.0266 296.069 49.9763 295.739 49.9763C295.398 49.9763 295.099 50.0462 294.842 50.1859C294.59 50.3201 294.378 50.5074 294.205 50.7478C294.037 50.9882 293.908 51.265 293.819 51.5781C293.729 51.8912 293.685 52.2294 293.685 52.5929ZM312.318 53.0038H309.173V51.1923H312.318C312.832 51.1923 313.249 51.1084 313.567 50.9407C313.892 50.7674 314.129 50.5326 314.28 50.2362C314.431 49.9343 314.507 49.5905 314.507 49.2047C314.507 48.8301 314.431 48.4807 314.28 48.1564C314.129 47.8321 313.892 47.5693 313.567 47.3681C313.249 47.1668 312.832 47.0661 312.318 47.0661H309.928V57.457H307.621V45.2463H312.318C313.268 45.2463 314.079 45.4168 314.75 45.7579C315.426 46.0933 315.941 46.5602 316.293 47.1584C316.651 47.751 316.83 48.4276 316.83 49.1879C316.83 49.9763 316.651 50.6556 316.293 51.2259C315.941 51.7961 315.426 52.235 314.75 52.5425C314.079 52.85 313.268 53.0038 312.318 53.0038ZM322.477 55.7797L324.591 48.3828H326.905L323.794 57.457H322.385L322.477 55.7797ZM320.934 48.3828L323.073 55.7965L323.148 57.457H321.731L318.611 48.3828H320.934ZM333.224 48.3828V49.9763H328.024V48.3828H333.224ZM329.416 46.152H331.639V54.8404C331.639 55.1088 331.675 55.3157 331.748 55.461C331.82 55.6064 331.929 55.7043 332.075 55.7546C332.22 55.8049 332.393 55.83 332.595 55.83C332.74 55.83 332.874 55.8217 332.997 55.8049C333.12 55.7881 333.224 55.7713 333.308 55.7546L333.316 57.4151C333.131 57.4766 332.922 57.5269 332.687 57.5661C332.458 57.6052 332.198 57.6248 331.907 57.6248C331.409 57.6248 330.973 57.5409 330.599 57.3732C330.224 57.1998 329.933 56.9231 329.727 56.5429C329.52 56.1571 329.416 55.6483 329.416 55.0166V46.152ZM335.651 56.3752C335.651 56.0397 335.765 55.7574 335.995 55.5281C336.224 55.2989 336.534 55.1843 336.926 55.1843C337.317 55.1843 337.627 55.2989 337.856 55.5281C338.086 55.7574 338.2 56.0397 338.2 56.3752C338.2 56.705 338.086 56.9846 337.856 57.2138C337.627 57.4375 337.317 57.5493 336.926 57.5493C336.534 57.5493 336.224 57.4375 335.995 57.2138C335.765 56.9846 335.651 56.705 335.651 56.3752ZM354.351 55.6455V57.457H348.212V55.6455H354.351ZM348.908 45.2463V57.457H346.602V45.2463H348.908ZM360.879 48.3828V49.9763H355.679V48.3828H360.879ZM357.072 46.152H359.294V54.8404C359.294 55.1088 359.33 55.3157 359.403 55.461C359.476 55.6064 359.585 55.7043 359.73 55.7546C359.876 55.8049 360.049 55.83 360.25 55.83C360.395 55.83 360.53 55.8217 360.653 55.8049C360.776 55.7881 360.879 55.7713 360.963 55.7546L360.971 57.4151C360.787 57.4766 360.577 57.5269 360.342 57.5661C360.113 57.6052 359.853 57.6248 359.562 57.6248C359.065 57.6248 358.629 57.5409 358.254 57.3732C357.88 57.1998 357.589 56.9231 357.382 56.5429C357.175 56.1571 357.072 55.6483 357.072 55.0166V46.152ZM368.657 55.5281V44.5754H370.888V57.457H368.875L368.657 55.5281ZM362.828 53.029V52.8528C362.828 52.1596 362.906 51.5306 363.063 50.9659C363.225 50.3956 363.46 49.9064 363.767 49.4982C364.075 49.0901 364.447 48.7742 364.883 48.5506C365.325 48.3269 365.825 48.2151 366.384 48.2151C366.926 48.2151 367.399 48.3241 367.801 48.5422C368.209 48.7602 368.556 49.0705 368.841 49.4731C369.132 49.8756 369.364 50.3537 369.537 50.9072C369.711 51.4551 369.836 52.0589 369.915 52.7187V53.1967C369.836 53.8397 369.711 54.4295 369.537 54.9662C369.364 55.503 369.132 55.9726 368.841 56.3752C368.556 56.7721 368.209 57.0796 367.801 57.2977C367.393 57.5157 366.915 57.6248 366.367 57.6248C365.814 57.6248 365.316 57.5101 364.874 57.2809C364.438 57.0517 364.067 56.7302 363.759 56.3165C363.457 55.9027 363.225 55.4163 363.063 54.8572C362.906 54.2981 362.828 53.6887 362.828 53.029ZM365.051 52.8528V53.029C365.051 53.4203 365.084 53.7865 365.151 54.1276C365.218 54.4686 365.327 54.7706 365.478 55.0333C365.629 55.2905 365.822 55.4918 366.057 55.6372C366.297 55.7825 366.588 55.8552 366.929 55.8552C367.365 55.8552 367.723 55.7602 368.003 55.5701C368.288 55.3744 368.509 55.1088 368.665 54.7733C368.822 54.4323 368.922 54.0493 368.967 53.6244V52.3077C368.945 51.9723 368.886 51.662 368.791 51.3768C368.701 51.0917 368.573 50.8457 368.405 50.6388C368.243 50.4319 368.042 50.2698 367.801 50.1524C367.561 50.035 367.276 49.9763 366.946 49.9763C366.605 49.9763 366.314 50.0517 366.074 50.2027C365.833 50.3481 365.638 50.5521 365.487 50.8149C365.336 51.0777 365.224 51.3824 365.151 51.729C365.084 52.0757 365.051 52.4503 365.051 52.8528ZM373.843 56.3752C373.843 56.0397 373.958 55.7574 374.187 55.5281C374.416 55.2989 374.726 55.1843 375.118 55.1843C375.509 55.1843 375.819 55.2989 376.049 55.5281C376.278 55.7574 376.392 56.0397 376.392 56.3752C376.392 56.705 376.278 56.9846 376.049 57.2138C375.819 57.4375 375.509 57.5493 375.118 57.5493C374.726 57.5493 374.416 57.4375 374.187 57.2138C373.958 56.9846 373.843 56.705 373.843 56.3752Z" fill="white"/>
<path d="M367.056 35.3293V12.0113H372.003V15.1675C373.934 12.5766 376.949 11.5873 381 11.6344V16.8633C379.917 16.4393 379.022 16.3451 377.938 16.3451C374.876 16.3451 372.003 18.8418 372.003 23.5054V35.3293H367.056Z" fill="white"/>
<path d="M348.058 35.6592C341.745 35.6592 336.94 30.4303 336.94 23.694C336.94 16.8634 341.745 11.6816 348.058 11.6816C352.156 11.6816 354.747 13.142 356.631 15.3089V12.0114H361.578V35.3295H356.631V32.032C354.747 34.1518 352.156 35.6592 348.058 35.6592ZM349.235 31.3725C353.428 31.3725 356.631 27.9807 356.631 23.694C356.631 19.313 353.428 15.9684 349.235 15.9684C345.043 15.9684 341.84 19.313 341.84 23.694C341.84 27.9807 345.043 31.3725 349.235 31.3725Z" fill="white"/>
<path d="M331.935 35.4246C327.696 35.4246 324.964 32.7866 324.964 28.2172V0H325.2C327.801 0 329.91 2.10858 329.91 4.70963V27.3222C329.91 29.7718 331.37 30.8552 333.207 30.8552C333.678 30.8552 334.197 30.761 334.715 30.6197L335.233 34.9535C334.055 35.2362 332.972 35.4246 331.935 35.4246Z" fill="white"/>
<path d="M297.546 35.3304V0H297.782C300.383 0 302.492 2.10857 302.492 4.70963V15.0272C304.188 13.0016 306.779 11.6826 309.794 11.6826C315.776 11.6826 320.016 15.5925 320.016 23.271V35.3304H315.07V23.6949C315.07 18.3247 312.337 15.9693 308.946 15.9693C305.13 15.9693 302.492 18.8429 302.492 23.8834V35.3304H297.546Z" fill="white"/>
<path d="M283.498 36.1317C278.881 36.1317 274.547 33.9647 272.993 29.6309L277.28 28.2648C278.457 31.0912 280.954 32.1747 283.545 32.1747C286.795 32.1747 288.821 30.7143 288.821 28.359C288.821 24.5904 282.32 26.2392 277.892 24.4491C275.772 23.6012 273.935 21.9524 273.935 18.7491C273.935 14.6979 277.892 11.4004 283.121 11.4004C288.256 11.4004 291.506 14.1326 292.495 17.7128L288.256 18.8904C287.69 16.8177 286.089 15.169 283.168 15.169C280.342 15.169 278.504 16.8177 278.504 18.6549C278.504 22.8003 285.806 21.1987 289.857 23.0359C292.024 23.9309 293.626 25.5326 293.626 28.4061C293.626 33.0697 289.48 36.1317 283.498 36.1317Z" fill="white"/>
<path d="M255.5 35.6592C249.187 35.6592 244.382 30.4303 244.382 23.694C244.382 16.8634 249.187 11.6816 255.5 11.6816C259.598 11.6816 262.189 13.142 264.073 15.3089V12.0114H269.019V35.3295H264.073V32.032C262.189 34.1518 259.598 35.6592 255.5 35.6592ZM256.677 31.3725C260.87 31.3725 264.073 27.9807 264.073 23.694C264.073 19.313 260.87 15.9684 256.677 15.9684C252.485 15.9684 249.281 19.313 249.281 23.694C249.281 27.9807 252.485 31.3725 256.677 31.3725Z" fill="white"/>
<path d="M230.422 35.6602C226.324 35.6602 223.78 34.1527 221.848 32.0329V35.3304H216.902V0H217.139C219.74 0 221.848 2.10857 221.848 4.70963V15.3569C223.78 13.1429 226.324 11.6826 230.422 11.6826C236.781 11.6826 241.539 16.8644 241.539 23.6949C241.539 30.4313 236.781 35.6602 230.422 35.6602ZM229.244 31.3734C233.437 31.3734 236.593 27.9817 236.593 23.6949C236.593 19.314 233.437 15.9693 229.244 15.9693C225.052 15.9693 221.848 19.314 221.848 23.6949C221.848 27.9817 225.052 31.3734 229.244 31.3734Z" fill="white"/>
<path d="M201.241 11.3535C207.978 11.3535 212.924 15.9229 213.065 23.2716C213.065 23.8369 213.065 24.3551 213.018 24.9675H193.61C194.128 29.3014 197.379 31.8451 201.241 31.8451C204.115 31.8451 206.659 30.6204 208.166 28.689L211.181 31.2328C209.014 34.2476 205.151 35.8964 201.241 35.8964C194.317 35.8964 189.041 30.479 189.041 23.6956C189.041 16.7237 194.269 11.3535 201.241 11.3535ZM201.241 15.2163C197.331 15.2163 194.411 17.8072 193.704 21.7171H208.637C207.836 17.6188 205.104 15.2163 201.241 15.2163Z" fill="white"/>
<path d="M157.017 35L149.949 11.1947C149.475 9.60058 150.67 8 152.333 8V8C153.455 8 154.439 8.75217 154.733 9.83565L159.799 28.5091L165.145 10.4866C165.583 9.01167 166.938 8 168.476 8V8C170.015 8 171.37 9.01167 171.808 10.4866L177.154 28.5091L182.216 9.85218C182.512 8.75894 183.505 8 184.637 8V8C186.315 8 187.52 9.615 187.043 11.2235L179.983 35H174.324L168.931 16.3857C168.799 15.932 168.156 15.9327 168.026 16.3867L162.676 35H157.017Z" fill="white"/>
<path d="M130.325 4V59.2946" stroke="white" stroke-width="1.37094" stroke-linecap="round"/>
</svg>
