<svg width="94" height="95" viewBox="0 0 94 95" fill="none" xmlns="http://www.w3.org/2000/svg">
<g clip-path="url(#clip0_355_243)">
<mask id="mask0_355_243" style="mask-type:alpha" maskUnits="userSpaceOnUse" x="0" y="0" width="94" height="95">
<path d="M93.3906 0.773438H0V94.1641H93.3906V0.773438Z" fill="#D9D9D9"/>
</mask>
<g mask="url(#mask0_355_243)">
<path d="M15.1822 70.1135L12.0078 68.2821L47.4111 7.09656L50.5855 8.92798L15.1822 70.1135Z" fill="#E10098"/>
<path d="M11.2778 63.3917H82.0902V67.0545H11.2778V63.3917Z" fill="#E10098"/>
<path d="M48.098 85.8596L12.6802 65.4548L14.5157 62.2874L49.9333 82.6922L48.098 85.8596ZM78.8667 32.6735L43.446 12.2717L45.2814 9.10413L80.6991 29.5089L78.8667 32.6735Z" fill="#E10098"/>
<path d="M14.524 32.6612L12.6885 29.4936L48.138 9.08301L49.9734 12.2506L14.524 32.6612Z" fill="#E10098"/>
<path d="M78.2142 70.1137L42.8052 8.92237L45.9795 7.09094L81.3886 68.2823L78.2142 70.1137ZM14.0854 27.0638H17.7562V67.8734H14.0854V27.0638ZM75.6343 27.0638H79.305V67.8734H75.6343V27.0638Z" fill="#E10098"/>
<path d="M47.4747 84.306L45.873 81.5358L76.6792 63.7889L78.2809 66.5591L47.4747 84.306Z" fill="#E10098"/>
<path d="M84.1681 69.0649C83.1426 70.8321 81.457 72.1216 79.4805 72.6511C77.5041 73.1805 75.3978 72.9068 73.6233 71.8897C71.8524 70.8665 70.5599 69.1846 70.0294 67.2124C69.4987 65.2402 69.773 63.1385 70.7923 61.3678C71.8178 59.6006 73.5034 58.3111 75.4799 57.7816C77.4563 57.252 79.5626 57.5258 81.3371 58.5428C85.0511 60.6824 86.3123 65.3819 84.1652 69.0649M22.576 33.5711C21.5504 35.3382 19.8648 36.6278 17.8883 37.1572C15.912 37.6867 13.8056 37.413 12.0311 36.3959C10.2594 35.3726 8.96645 33.6902 8.43578 31.7173C7.90511 29.7444 8.17997 27.6421 9.20011 25.871C10.2256 24.1039 11.9112 22.8143 13.8877 22.2848C15.8641 21.7553 17.9703 22.0291 19.7449 23.0461C21.5159 24.0694 22.8083 25.7514 23.3388 27.7236C23.8695 29.6957 23.5952 31.7974 22.576 33.5682M9.2232 69.0649C8.20397 67.2941 7.92962 65.1925 8.46025 63.2203C8.99088 61.2481 10.2832 59.5662 12.0542 58.5428C13.8288 57.5258 15.935 57.252 17.9114 57.7816C19.8879 58.3111 21.5735 59.6006 22.599 61.3678C23.6182 63.1385 23.8925 65.2402 23.362 67.2124C22.8314 69.1846 21.539 70.8665 19.7681 71.8897C16.0539 74.0063 11.3414 72.7536 9.2232 69.0678M70.8154 33.5739C69.7961 31.8032 69.5218 29.7015 70.0525 27.7293C70.5831 25.7571 71.8754 24.0751 73.6464 23.0519C75.4209 22.0349 77.5271 21.7612 79.5036 22.2906C81.4801 22.8201 83.1657 24.1096 84.1912 25.8768C85.2104 27.6476 85.4848 29.7492 84.9541 31.7214C84.4235 33.6936 83.1311 35.3755 81.3602 36.3989C79.5856 37.4159 77.4794 37.6896 75.5029 37.1601C73.5265 36.6306 71.8409 35.3411 70.8154 33.5739ZM46.6956 90.6618C45.1693 90.6618 43.6772 90.2102 42.4082 89.3639C41.1391 88.5177 40.1501 87.315 39.566 85.9078C38.9821 84.5006 38.8294 82.9523 39.1275 81.4585C39.4254 79.9648 40.1606 78.5929 41.2402 77.5161C42.3197 76.4393 43.6949 75.7062 45.192 75.4094C46.6891 75.1127 48.2408 75.2655 49.6507 75.8487C51.0607 76.432 52.2657 77.4194 53.1133 78.686C53.9608 79.9526 54.4129 81.4416 54.4124 82.9647C54.407 85.0049 53.5921 86.9601 52.1461 88.4025C50.7 89.8449 48.7404 90.6573 46.6956 90.6618ZM46.6956 19.6741C45.6818 19.6756 44.6777 19.4775 43.7408 19.0911C42.8039 18.7047 41.9526 18.1376 41.2358 17.4222C40.5189 16.7069 39.9505 15.8575 39.5632 14.9226C39.176 13.9877 38.9775 12.9857 38.979 11.9741C38.979 9.93231 39.7918 7.97414 41.2387 6.53038C42.6855 5.08661 44.648 4.27551 46.6942 4.27551C48.7404 4.27551 50.7028 5.08661 52.1497 6.53038C53.5966 7.97414 54.4094 9.93231 54.4094 11.9741C54.4106 12.9852 54.2118 13.9866 53.8246 14.921C53.4374 15.8554 52.8692 16.7044 52.1526 17.4193C51.4361 18.1343 50.5853 18.7012 49.649 19.0876C48.7125 19.474 47.709 19.6724 46.6956 19.6713" fill="#E10098"/>
</g>
</g>
<defs>
<clipPath id="clip0_355_243">
<rect width="93.3906" height="93.3906" fill="white" transform="translate(0 0.773438)"/>
</clipPath>
</defs>
</svg>
