<svg width="68" height="69" viewBox="0 0 68 69" fill="none" xmlns="http://www.w3.org/2000/svg">
<g clip-path="url(#clip0_355_138)">
<mask id="mask0_355_138" style="mask-type:alpha" maskUnits="userSpaceOnUse" x="0" y="0" width="68" height="69">
<path d="M68 0.703125H0.671875V68.0312H68V0.703125Z" fill="#D9D9D9"/>
</mask>
<g mask="url(#mask0_355_138)">
<path d="M7.1512 17.8436C1.64048 26.0655 2.32202 36.7601 6.53587 45.5194C6.63323 45.7295 6.74033 45.9356 6.84354 46.1416L7.03826 46.5355C7.07721 46.6123 7.12005 46.687 7.16094 46.7618C7.23299 46.9032 7.30698 47.0325 7.38098 47.1699L7.78406 47.885L8.01383 48.2769L8.48118 49.0344L8.67979 49.3536C8.89983 49.693 9.12376 50.0324 9.35545 50.3637L9.48792 50.5496C9.68864 50.8357 9.89374 51.1186 10.1032 51.398L10.3369 51.7051L10.9055 52.4323L11.1236 52.703C11.3826 53.0202 11.6493 53.3353 11.9161 53.6424C11.9434 53.6727 11.9551 53.6828 11.9629 53.6949C12.2274 53.9926 12.4961 54.2862 12.769 54.5756L13.028 54.8464L13.6706 55.5009L13.9335 55.7635C14.2227 56.0464 14.5167 56.3239 14.8156 56.5958L15.7814 57.4442L16.1124 57.719L16.7804 58.2604L17.1367 58.5432L17.8864 59.1007L18.2369 59.3573C18.4764 59.529 18.7199 59.6926 18.9652 59.8562L19.2806 60.0745C19.6565 60.322 20.0363 60.5631 20.4198 60.7977L20.7352 60.9996L21.592 61.4966C21.7478 61.5835 21.9075 61.6663 22.0652 61.7492L22.6767 62.0784L22.8188 62.1491L23.072 62.2744L24.0416 62.739L24.2462 62.8339C24.6204 63.0032 24.9976 63.1654 25.3774 63.3208L25.6501 63.434L26.7172 63.844L26.8535 63.8925C27.2475 64.0333 27.6435 64.1679 28.0413 64.2965L28.3295 64.3854C28.7189 64.5127 29.1396 64.6683 29.5562 64.745C56.222 69.7892 63.9642 48.1193 63.9642 48.1193C57.4604 56.9109 45.9132 59.23 34.9501 56.6483C34.5354 56.5514 34.1323 56.418 33.7292 56.2927L33.4255 56.1978C33.0313 56.0722 32.6392 55.9394 32.2494 55.7998L32.0877 55.7392C31.7407 55.6115 31.3953 55.4788 31.0518 55.3413L30.7596 55.2201C30.3833 55.0664 30.01 54.9048 29.64 54.7353L29.4161 54.6343L28.4717 54.1777L28.1991 54.0424C27.9537 53.9211 27.7122 53.7858 27.4688 53.6383L26.982 53.3757C26.686 53.2141 26.3978 53.0404 26.1058 52.8667L25.8098 52.6949C25.4264 52.4601 25.0467 52.219 24.6707 51.9717C24.5674 51.903 24.4662 51.8303 24.363 51.7596L23.5529 51.2C23.4633 51.1394 23.3582 51.0707 23.292 51.0101L22.5247 50.4343L22.184 50.1677L21.4927 49.6061L21.1851 49.3496L20.3244 48.596C20.2931 48.5677 20.2606 48.5407 20.227 48.5152L19.3215 47.6608L19.0684 47.4062L18.4219 46.7395L18.1688 46.477C17.8961 46.188 17.6313 45.8972 17.3899 45.6002C17.3762 45.586 17.3626 45.5719 17.3509 45.5557C17.0752 45.2418 16.8051 44.9225 16.5409 44.5982L16.3461 44.3356L15.762 43.5882L15.5672 43.3114L14.8934 42.3822C8.783 33.7925 6.59819 21.9182 11.4547 12.1811M24.2675 10.9185C20.2796 16.8719 20.4957 24.8575 23.6054 31.1361C24.1266 32.1942 24.716 33.2148 25.3697 34.1905C25.9675 35.0793 26.6296 36.1359 27.4221 36.849C27.7103 37.1783 28.0101 37.4954 28.3178 37.8126L28.5515 38.055C28.8491 38.3561 29.1536 38.6497 29.4648 38.9358C29.4784 38.9459 29.4882 38.96 29.5037 38.9701C29.8581 39.2933 30.2164 39.5762 30.5806 39.8953L30.822 40.0913C31.1874 40.3836 31.56 40.6659 31.9397 40.9377L31.9728 40.962C32.1403 41.0831 32.3116 41.1943 32.483 41.3115C32.5648 41.366 32.6426 41.4246 32.7245 41.4771C32.9967 41.6583 33.2726 41.8334 33.552 42.0023L33.6689 42.073L34.401 42.4771C34.4868 42.5276 34.5958 42.57 34.662 42.6185L35.1741 42.8933C35.1994 42.9074 35.2267 42.9175 35.252 42.9296C35.6032 43.1111 35.9591 43.2828 36.3191 43.4447L36.5527 43.5458C36.8428 43.6734 37.1349 43.796 37.429 43.9134L37.8029 44.0548C38.0695 44.1553 38.3376 44.2517 38.6071 44.3437L38.9712 44.4649C39.3548 44.5861 39.7501 44.7477 40.1337 44.8144C60.722 48.3537 65.4753 31.8855 65.4753 31.8855C61.1914 38.2894 52.896 41.3397 44.04 38.956C43.6485 38.8491 43.2596 38.7326 42.8736 38.6065C42.7567 38.5701 42.6399 38.5297 42.5231 38.4893L41.7052 38.1985L41.3158 38.057C41.0218 37.9393 40.7297 37.8168 40.4395 37.6894L40.2019 37.5883C39.8397 37.425 39.4812 37.2525 39.127 37.0712L38.5876 36.7884L38.2761 36.6227C38.047 36.4936 37.8198 36.361 37.5945 36.2247L37.4309 36.1298C37.1524 35.9605 36.8771 35.7854 36.6053 35.6046C36.5216 35.55 36.4398 35.4894 36.356 35.4329L35.8206 35.0652C35.4434 34.794 35.0734 34.5124 34.7106 34.2208L34.4575 34.0187C30.563 30.8431 27.5097 26.5039 26.0493 21.5869C24.5188 16.4861 24.8478 10.759 27.5 6.11265M38.6616 5.74297C36.3132 9.34887 36.0796 13.7892 37.7114 17.7527C39.4308 21.9606 42.9553 25.2595 47.0699 26.8432L47.5801 27.0453L47.806 27.118L48.54 27.32C59.9081 29.5987 62.9886 21.2677 63.8124 20.0415C61.1115 24.0756 56.5725 25.0433 51.0033 23.6414C50.5632 23.5303 50.0803 23.3646 49.6558 23.209C49.111 23.0087 48.5767 22.7788 48.0552 22.5202C47.0653 22.0263 46.1254 21.4315 45.2492 20.7445C40.2661 16.8234 37.17 9.3206 40.4219 3.22791" fill="#0868AC"/>
</g>
</g>
<defs>
<clipPath id="clip0_355_138">
<rect width="67.3281" height="67.3281" fill="white" transform="translate(0.671875 0.703125)"/>
</clipPath>
</defs>
</svg>
