<svg width="88" height="87" viewBox="0 0 88 87" fill="none" xmlns="http://www.w3.org/2000/svg">
<g clip-path="url(#clip0_355_354)">
<mask id="mask0_355_354" style="mask-type:alpha" maskUnits="userSpaceOnUse" x="0" y="0" width="88" height="87">
<path d="M87.375 0H0.5V86.875H87.375V0Z" fill="#D9D9D9"/>
</mask>
<g mask="url(#mask0_355_354)">
<path d="M61.7408 34.9066C57.4073 15.7894 48.3752 10.7002 46.0712 7.10261C45.1211 5.51779 44.2794 3.87044 43.552 2.17188C43.4303 3.87017 43.2067 4.9401 41.7632 6.22798C38.8647 8.81222 26.5548 18.8435 25.5189 40.5648C24.5537 60.817 40.4074 73.3051 42.5019 74.5959C44.1125 75.3884 46.074 74.6128 47.0307 73.8853C54.673 68.6405 65.1147 54.6578 61.7493 34.9066" fill="#10AA50"/>
<path d="M44.2081 63.8115C43.809 68.8243 43.5231 71.7369 42.5098 74.6014C42.5098 74.6014 43.1749 79.3737 43.642 84.4289H45.295C45.6893 80.869 46.2913 77.3352 47.098 73.8457C44.9581 72.7927 44.2902 68.2101 44.2081 63.8115Z" fill="#B8C4C2"/>
<path d="M47.096 73.8484C44.9335 72.8493 44.308 68.1704 44.2118 63.8114C44.7465 56.621 44.9025 49.4075 44.6788 42.2006C44.5656 38.4191 44.7326 7.17601 43.7476 2.60193C44.4214 4.15112 45.1977 5.65367 46.0714 7.09959C48.3754 10.7 57.4104 15.7892 61.741 34.9064C65.115 54.6237 54.7299 68.5695 47.096 73.8484Z" fill="#12924F"/>
</g>
</g>
<defs>
<clipPath id="clip0_355_354">
<rect width="86.875" height="86.875" fill="white" transform="translate(0.5)"/>
</clipPath>
</defs>
</svg>
