<svg width="117" height="79" viewBox="0 0 117 79" fill="none" xmlns="http://www.w3.org/2000/svg">
<g clip-path="url(#clip0_355_336)">
<mask id="mask0_355_336" style="mask-type:alpha" maskUnits="userSpaceOnUse" x="0" y="-19" width="117" height="117">
<path d="M116.195 -18.4792H0V97.3541H116.195V-18.4792Z" fill="#D9D9D9"/>
</mask>
<g mask="url(#mask0_355_336)">
<path d="M4.35742 62.0418H7.89833V48.1858L13.38 60.2694C14.0266 61.726 14.9125 62.2494 16.6486 62.2494C18.3847 62.2494 19.2358 61.7318 19.8834 60.2694L25.3657 48.1858V62.047H28.907V48.2087C28.907 46.8587 28.3613 46.2058 27.2382 45.8687C24.5485 45.0363 22.7437 45.7564 21.927 47.5564L16.5478 59.4817L11.3374 47.5512C10.5544 45.7511 8.71598 45.0311 6.02632 45.8635C4.90217 46.2012 4.35742 46.854 4.35742 48.2035V62.0418ZM31.8502 50.7599H35.3901V58.3971C35.357 58.8122 35.5245 59.7861 37.4641 59.8158C38.4539 59.8314 45.1022 59.8158 45.1642 59.8158V50.722H48.7119C48.7276 50.722 48.7082 63.1214 48.7087 63.1744C48.7282 66.2324 44.8808 66.8967 43.108 66.9482H31.9274V64.5864L43.1279 64.5858C45.4066 64.3464 45.1379 63.2243 45.1379 62.8461V61.9254H37.6121C34.1105 61.8941 31.8812 60.3786 31.8533 58.6359C31.8507 58.4798 31.928 50.8354 31.8502 50.7599Z" fill="#00618A"/>
<path d="M51.4414 62.0416H61.6217C62.8132 62.0416 63.9713 61.7946 64.8913 61.3665C66.4238 60.6693 67.1727 59.724 67.1727 58.4864V55.9216C67.1727 54.9088 66.3214 53.964 64.6535 53.334C63.7683 52.9958 62.6787 52.8162 61.6233 52.8162H57.3329C55.9035 52.8162 55.2223 52.3887 55.0522 51.4439C55.018 51.3315 55.018 51.2358 55.018 51.1287V49.5315C55.018 49.4416 55.018 49.3509 55.0522 49.2386C55.2223 48.5187 55.597 48.3157 56.8564 48.1981C56.9588 48.1981 57.0947 48.1752 57.1976 48.1752H67.3096V45.8357H57.3677C55.9376 45.8357 55.1886 45.9258 54.5074 46.1282C52.3945 46.781 51.4751 47.8215 51.4751 49.6216V51.6692C51.4751 53.2445 53.2803 54.5944 56.3096 54.9092C56.6507 54.9317 56.9908 54.9539 57.3309 54.9539H61.0082C61.1447 54.9539 61.2811 54.9539 61.3829 54.9768C62.5061 55.0669 62.9837 55.2693 63.3237 55.674C63.5337 55.8821 63.5966 56.0797 63.5966 56.2983V58.346C63.5966 58.5936 63.4265 58.9088 63.0859 59.1782C62.7795 59.4489 62.2689 59.6283 61.5876 59.6736C61.4512 59.6736 61.3494 59.6959 61.2134 59.6959H51.4414V62.036V62.0416ZM89.2615 57.9692C89.2615 60.377 91.0658 61.727 94.7091 61.9969C95.0489 62.023 95.3895 62.0379 95.7303 62.0416H104.958V59.7017H95.6621C93.5854 59.7017 92.8019 59.184 92.8019 57.9464V45.8405H89.2609L89.2615 57.9692ZM69.4315 58.091V49.749C69.4315 47.6295 70.9324 46.3441 73.9008 45.9382C74.2173 45.8935 74.5367 45.8709 74.8565 45.8706H81.5777C81.9088 45.8709 82.2396 45.8935 82.5675 45.9382C85.5359 46.3441 87.0368 47.6291 87.0368 49.749V58.091C87.0368 59.8104 86.3992 60.7307 84.9298 61.3306L88.4177 64.452H84.3062L81.4843 61.9267L78.6435 62.1052H74.8565C74.2083 62.1052 73.5261 62.0147 72.775 61.8117C70.5184 61.203 69.4315 60.0305 69.4315 58.091ZM73.2537 57.8829C73.2537 57.9957 73.2879 58.1082 73.3219 58.2439C73.5319 59.2137 74.4476 59.7547 75.841 59.7547H79.0581L76.1034 57.1103H80.2149L82.7864 59.4166C83.2613 59.1658 83.5736 58.782 83.6785 58.2892C83.7126 58.1769 83.7126 58.0639 83.7126 57.9511V49.9524C83.7126 49.8624 83.7126 49.7443 83.6785 49.6366C83.4686 48.735 82.5523 48.2164 81.1878 48.2164H75.8474C74.2729 48.2164 73.2548 48.8927 73.2548 49.9524V57.8892L73.2537 57.8829Z" fill="#E48E00"/>
<path d="M108.073 41.9587C105.896 41.9005 104.233 42.1007 102.812 42.6948C102.408 42.8639 101.764 42.8681 101.698 43.3701C101.92 43.6006 101.955 43.9449 102.131 44.2286C102.47 44.7733 103.044 45.503 103.555 45.885C104.113 46.3027 104.688 46.7501 105.288 47.1127C106.353 47.7567 107.543 48.1246 108.568 48.7691C109.173 49.1489 109.773 49.6276 110.363 50.0573C110.654 50.2696 110.851 50.5994 111.229 50.732V50.6706C111.029 50.4193 110.979 50.074 110.796 49.8122L109.991 49.0147C109.204 47.9742 108.206 47.0705 107.144 46.3147C106.298 45.7123 104.403 44.8985 104.049 43.9216L103.988 43.8602C104.588 43.7926 105.291 43.5777 105.845 43.4311C106.776 43.1839 107.608 43.2473 108.569 43.0018L109.869 42.6334V42.388C109.383 41.8937 109.037 41.2398 108.507 40.7928C107.122 39.6223 105.609 38.4544 104.052 37.479C103.188 36.9379 102.12 36.5872 101.204 36.1289C100.896 35.9749 100.355 35.8948 100.152 35.6378C99.6715 35.0303 99.4097 34.2592 99.0386 33.5568C98.2619 32.0742 97.4988 30.4541 96.8102 28.894C96.3405 27.8301 96.0335 26.7807 95.4488 25.8261C92.6385 21.2459 89.6129 18.4814 84.9275 15.7647C83.9303 15.1873 82.7301 14.9584 81.4611 14.6602L79.4185 14.5375C79.0029 14.3659 78.5705 13.8611 78.1799 13.6167C76.6275 12.6439 72.6458 10.5301 71.4959 13.3046C70.7701 15.0593 72.5807 16.7714 73.2288 17.661C73.6833 18.2852 74.2659 18.984 74.5902 19.6858C74.8038 20.1467 74.841 20.6091 75.0237 21.0972C75.4734 22.2937 75.865 23.6063 76.447 24.717C76.741 25.2788 77.0653 25.8709 77.4373 26.3734C77.6656 26.682 78.0566 26.8177 78.118 27.2943C77.7359 27.8248 77.714 28.6468 77.4987 29.3191C76.5315 32.3426 76.8962 36.1003 78.3032 38.3385C78.7352 39.0251 79.7517 40.4985 81.1504 39.9335C82.3732 39.4392 82.0951 37.9097 82.4504 36.5591C82.5291 36.2523 82.4807 36.0286 82.6361 35.823V35.8844L83.7503 38.0929C84.5743 39.409 86.0385 40.785 87.2781 41.7137C87.921 42.195 88.4327 43.0272 89.2587 43.3087V43.2473H89.1968C89.0357 42.9977 88.7837 42.8952 88.5775 42.696C88.0931 42.2251 87.5541 41.6398 87.1537 41.1008C86.0254 39.5828 85.0293 37.9222 84.1214 36.1923C83.6878 35.3667 83.3105 34.4559 82.9458 33.6156C82.8051 33.2916 82.8067 32.8021 82.5128 32.6339C82.1124 33.2499 81.5224 33.7473 81.2129 34.4745C80.7175 35.6368 80.6534 37.0539 80.4703 38.5241C80.3616 38.5626 80.4098 38.5361 80.3464 38.5855C79.4846 38.3794 79.1812 37.4998 78.8611 36.7449C78.0508 34.8356 77.9007 31.763 78.6135 29.5667C78.7972 28.9985 79.6316 27.2079 79.2941 26.683C79.133 26.1592 78.6014 25.8506 78.3038 25.4552C77.9365 24.961 77.568 24.3086 77.3135 23.7374C76.6502 22.2495 76.3405 20.5796 75.6425 19.0745C75.3087 18.3555 74.745 17.6282 74.2811 16.9936C73.7678 16.286 73.1932 15.7637 72.7958 14.9126C72.6542 14.6083 72.4621 14.1218 72.6721 13.8081C72.6921 13.7179 72.7377 13.6354 72.8035 13.5701C72.8693 13.5049 72.9527 13.4596 73.0436 13.4398C73.4025 13.1657 74.4028 13.5309 74.7765 13.6854C75.7684 14.0942 76.5976 14.4834 77.4384 15.0354C77.8425 15.2954 78.2502 15.8136 78.7378 15.9561H79.2941C80.1652 16.1549 81.1414 16.0187 81.9549 16.2631C83.394 16.6964 84.6829 17.3712 85.8543 18.1037C89.4219 20.3366 92.3383 23.5153 94.3337 27.312C94.6548 27.9221 94.7934 28.5054 95.0763 29.1526C95.6467 30.4531 96.3652 31.8021 96.9331 33.0787C97.4998 34.3533 98.0509 35.6384 98.8518 36.6985C99.2727 37.2553 100.899 37.5548 101.637 37.864C102.155 38.0809 103.003 38.3072 103.494 38.6001C104.43 39.1603 105.338 39.8278 106.218 40.4417C106.657 40.7487 108.007 41.4214 108.074 41.9753L108.073 41.9587Z" fill="#00618A"/>
<path fill-rule="evenodd" clip-rule="evenodd" d="M80.4081 18.5837C79.9542 18.5753 79.6335 18.6326 79.2939 18.7064V18.7678H79.356C79.5721 19.209 79.9542 19.4925 80.2219 19.8723L80.8411 21.1604L80.9031 21.099C81.2861 20.8311 81.462 20.403 81.4594 19.7489C81.3056 19.5888 81.2831 19.388 81.1497 19.1966C80.9728 18.9416 80.626 18.7979 80.4081 18.5837Z" fill="#00618A"/>
<path fill-rule="evenodd" clip-rule="evenodd" d="M106.62 59.636C106.62 61.1811 107.851 62.2227 109.229 62.2227C110.607 62.2227 111.838 61.1811 111.838 59.636C111.838 58.0909 110.607 57.0494 109.229 57.0494C107.851 57.0494 106.62 58.0909 106.62 59.636ZM111.254 59.636C111.254 60.8087 110.349 61.6847 109.228 61.6847C108.094 61.6847 107.202 60.8087 107.202 59.636C107.202 58.4635 108.093 57.5873 109.228 57.5873C110.348 57.5873 111.254 58.4635 111.254 59.636ZM109.931 61.1124H110.515L109.66 59.816C110.119 59.7676 110.466 59.5465 110.466 59.0086C110.466 58.4083 110.083 58.1606 109.347 58.1606H108.184V61.113H108.685V59.8368H109.151L109.931 61.1124ZM108.685 59.4217V58.5737H109.262C109.562 58.5737 109.924 58.6288 109.924 58.9743C109.924 59.3878 109.597 59.4227 109.221 59.4227L108.685 59.4217Z" fill="#E48E00"/>
</g>
</g>
<defs>
<clipPath id="clip0_355_336">
<rect width="116.195" height="78.1875" fill="white" transform="translate(0 0.34375)"/>
</clipPath>
</defs>
</svg>
