<svg width="103" height="79" viewBox="0 0 103 79" fill="none" xmlns="http://www.w3.org/2000/svg">
<g clip-path="url(#clip0_355_218)">
<mask id="mask0_355_218" style="mask-type:alpha" maskUnits="userSpaceOnUse" x="0" y="-24" width="103" height="103">
<path d="M102.25 -23.8925H0.172363V78.6485H102.25V-23.8925Z" fill="#D9D9D9"/>
</mask>
<g mask="url(#mask0_355_218)">
<mask id="mask1_355_218" style="mask-type:alpha" maskUnits="userSpaceOnUse" x="4" y="-21" width="95" height="96">
<path d="M98.4232 -20.0471H4.00098V74.8033H98.4232V-20.0471Z" fill="#D9D9D9"/>
</mask>
<g mask="url(#mask1_355_218)">
<path d="M38.1396 21.7079C38.2966 21.6169 38.47 21.5725 38.6453 21.5725C38.8206 21.5725 38.994 21.6169 39.1511 21.7079L47.5632 26.5643C47.8777 26.7463 48.069 27.0966 48.069 27.4612V37.208C48.069 37.5724 47.8772 37.9055 47.5632 38.0879L39.1511 42.9613C38.8365 43.1435 38.454 43.1435 38.1396 42.9613L29.7273 38.0879C29.4131 37.9055 29.2217 37.5724 29.2217 37.208V27.4612C29.2217 27.0972 29.4128 26.7463 29.7273 26.5643L38.1396 21.7079Z" fill="#83CD29"/>
<path d="M88.8474 30.2869C88.8778 30.2703 88.9151 30.2703 88.9486 30.2703C88.9823 30.2703 89.003 30.2691 89.033 30.2869L90.6513 31.2345C90.7114 31.2695 90.7525 31.3338 90.7525 31.4039V33.2652C90.7525 33.3352 90.7113 33.3997 90.6513 33.4344L89.033 34.365C88.9729 34.4002 88.9082 34.4002 88.8474 34.365L87.2291 33.4344C87.1684 33.3994 87.1279 33.3352 87.1279 33.2652V31.4039C87.1279 31.3338 87.1684 31.2693 87.2291 31.2345L88.8474 30.2869Z" fill="#83CD29"/>
<path fill-rule="evenodd" clip-rule="evenodd" d="M67.4886 9.27509C67.4014 9.27612 67.3134 9.29701 67.2357 9.34277C67.0805 9.43416 66.9828 9.6022 66.9828 9.7828V22.7276C66.9828 22.8549 66.9237 22.9685 66.8142 23.0322C66.7044 23.0962 66.5703 23.0962 66.4602 23.0322L64.3529 21.8139C64.039 21.6322 63.6554 21.6323 63.3414 21.8139L54.9293 26.6873C54.6148 26.8695 54.4235 27.2198 54.4235 27.5842V37.3308C54.4235 37.695 54.615 38.0284 54.9293 38.2107L63.3414 43.0841C63.6559 43.2663 64.0385 43.2663 64.3529 43.0841L72.7651 38.2107C73.0793 38.0284 73.2708 37.695 73.2708 37.3308V13.0317C73.2708 12.662 73.0698 12.3152 72.7483 12.1348L67.7414 9.32585C67.6628 9.28189 67.5756 9.27419 67.4886 9.27509ZM13.374 21.4416C13.2137 21.4481 13.063 21.4762 12.9189 21.56L4.50672 26.4334C4.19327 26.6153 4.00098 26.9466 4.00098 27.3133L4.01779 40.3936C4.01779 40.5756 4.11131 40.7445 4.27067 40.8336C4.42687 40.9274 4.62074 40.9274 4.77641 40.8336L9.76641 37.957C10.0825 37.7684 10.289 37.4405 10.289 37.077V30.9684C10.289 30.604 10.48 30.2696 10.7947 30.0885L12.9189 28.8532C13.0774 28.7612 13.2476 28.7179 13.4246 28.7179C13.598 28.7179 13.7762 28.7612 13.9304 28.8532L16.0545 30.0885C16.3693 30.2696 16.5602 30.604 16.5602 30.9684V37.077C16.5602 37.4405 16.7688 37.7706 17.0828 37.957L22.0728 40.8336C22.2296 40.9274 22.4231 40.9274 22.5786 40.8336C22.7335 40.7445 22.8315 40.5756 22.8315 40.3936L22.8483 27.3133C22.8483 26.9466 22.6581 26.6153 22.3425 26.4334L13.9304 21.56C13.7881 21.4762 13.6366 21.4482 13.4752 21.4416H13.374ZM88.9657 21.56C88.79 21.5599 88.6178 21.6045 88.46 21.6955L80.0478 26.5689C79.7335 26.751 79.5421 27.0844 79.5421 27.4487V37.1955C79.5421 37.5619 79.7478 37.8943 80.0646 38.0754L88.4094 42.8473C88.7175 43.0239 89.0938 43.0371 89.404 42.8641L94.4615 40.0382C94.622 39.9488 94.7306 39.7819 94.7312 39.5981C94.7322 39.4144 94.6368 39.2496 94.4783 39.1582L86.0155 34.2848C85.8571 34.1941 85.7458 34.0104 85.7458 33.8279V30.782C85.7458 30.6 85.8585 30.4331 86.0155 30.3421L88.6454 28.8191C88.8019 28.7283 88.994 28.7283 89.1512 28.8191L91.781 30.3421C91.9381 30.4331 92.0339 30.6 92.0339 30.782V33.185C92.0339 33.3674 92.1296 33.534 92.2868 33.6249C92.4445 33.7161 92.6354 33.7165 92.7925 33.6249L97.8331 30.6806C98.146 30.4981 98.3388 30.164 98.3388 29.8007V27.4486C98.3388 27.0853 98.1466 26.751 97.8331 26.5686L89.4715 21.6952C89.314 21.6037 89.1415 21.5603 88.9657 21.56ZM63.8135 28.8363C63.8573 28.8363 63.909 28.8471 63.9483 28.8699L66.8311 30.5452C66.9093 30.5907 66.966 30.6744 66.966 30.7651V34.1155C66.966 34.2065 66.9098 34.2903 66.8311 34.3355L63.9483 36.0107C63.8698 36.0557 63.774 36.0557 63.6955 36.0107L60.8127 34.3355C60.7342 34.2901 60.6778 34.2065 60.6778 34.1155V30.7651C60.6778 30.6744 60.7345 30.5908 60.8127 30.5452L63.6955 28.8702C63.7348 28.8473 63.7696 28.8363 63.8135 28.8363Z" fill="#404137"/>
<path d="M33.2863 72.2748V51.5555H34.4069V54.8147C34.5392 54.6701 34.6614 54.5167 34.7727 54.3553C35.7085 52.4078 37.6824 51.1788 39.8374 51.2031C42.3923 51.1267 44.4685 52.0752 45.6884 54.3553C46.4648 55.7718 46.892 57.354 46.9344 58.9698C46.9769 60.5856 46.6333 62.1881 45.9322 63.6437C44.7956 66.1989 41.988 67.4693 38.9823 67.0026C38.0468 66.9228 37.1463 66.6094 36.3627 66.0908C35.5791 65.5722 34.9375 64.8651 34.4966 64.0339V72.2739L33.2863 72.2748ZM34.4069 58.8848L34.6578 61.3177C35.1007 64.0869 36.7331 65.7232 39.296 66.0307C40.4995 66.2292 41.7345 66.0029 42.7903 65.3904C43.8462 64.7778 44.6574 63.817 45.086 62.6718C46.0828 60.2892 46.0093 57.5919 44.8888 55.2651C44.4314 54.2384 43.6532 53.389 42.6719 52.8451C41.6905 52.3013 40.5594 52.0925 39.4493 52.2505C38.4073 52.3265 37.4149 52.7262 36.6097 53.3938C35.8044 54.0615 35.2267 54.9641 34.9564 55.9763C34.7178 56.9341 34.5343 57.9058 34.4069 58.8848ZM69.8139 61.7007C69.644 63.1596 68.9516 64.5068 67.8655 65.492C66.7794 66.4772 65.3734 67.0332 63.9092 67.0565C59.2102 67.2939 57.0049 64.1642 56.6544 60.5526C56.4107 58.5913 56.7282 56.6009 57.5697 54.8138C58.1553 53.5878 59.115 52.5806 60.3097 51.9383C61.5043 51.2959 62.8717 51.0515 64.2141 51.2409C65.49 51.3496 66.6997 51.8582 67.6717 52.6944C68.6437 53.5307 69.3288 54.6524 69.6302 55.9007C69.8689 57.0379 70.0446 58.1875 70.1564 59.3443H57.8153C57.5868 62.6187 59.341 65.2512 61.8277 65.886C64.9249 66.6502 67.572 65.3042 68.533 62.3508C68.7463 61.5929 69.1354 61.4859 69.8221 61.7007H69.8139ZM57.8064 58.2959H68.845C68.7759 54.8075 66.6101 52.272 63.6725 52.2433C60.3558 52.1894 57.9507 54.6232 57.8064 58.2959ZM72.0954 61.7772H73.1774C73.2171 62.5766 73.476 63.3497 73.9255 64.0111C74.3749 64.6726 74.9976 65.1968 75.725 65.5264C76.6384 65.9386 77.6326 66.1389 78.6339 66.1125C79.6351 66.086 80.6175 65.8335 81.5079 65.3734C81.9933 65.1543 82.3998 64.7909 82.6727 64.3325C82.9455 63.8742 83.0716 63.3428 83.0336 62.8102C83.0615 62.2966 82.9217 61.7878 82.6353 61.3611C82.349 60.9345 81.9318 60.613 81.4469 60.4456C80.2564 60.0015 78.9908 59.7569 77.7778 59.3667C76.5158 59.0063 75.2816 58.5538 74.0854 58.0127C72.1312 57.0561 72.0103 53.3303 74.2226 52.1507C75.3554 51.5095 76.6303 51.1632 77.9308 51.1431C79.2314 51.1229 80.5163 51.4298 81.6683 52.0356C83.0972 52.8268 83.8869 54.4245 83.6522 56.0456H82.7243C82.7243 56.0006 82.6401 55.961 82.6401 55.9152C82.5253 52.9482 80.0386 52.0203 77.3691 52.281C76.5623 52.371 75.7976 52.6156 75.0805 52.9769C74.6494 53.1744 74.2902 53.5014 74.0525 53.9126C73.8148 54.3238 73.7104 54.7989 73.7538 55.2723C73.7547 55.746 73.9018 56.2078 74.1751 56.5941C74.4483 56.9806 74.8341 57.2726 75.2795 57.4301C76.4448 57.859 77.6819 58.1341 78.8877 58.4704L81.801 59.2346C82.4632 59.4526 83.0438 59.867 83.466 60.4232C83.8883 60.9792 84.1323 61.6508 84.1657 62.349C84.3989 63.9179 83.601 65.4598 82.19 66.1745C79.6424 67.6202 75.4462 67.2382 73.5772 65.4104C72.6207 64.4456 72.0873 63.1356 72.0981 61.7763L72.0954 61.7772ZM97.8946 56.0464H96.8798C96.8798 55.9088 96.826 55.7766 96.8108 55.6715C96.7946 54.9086 96.5173 54.1744 96.0256 53.5923C95.5338 53.01 94.8574 52.6149 94.1098 52.4734C92.6996 52.0677 91.1952 52.1404 89.8303 52.6803C89.2906 52.8351 88.8154 53.1611 88.4757 53.6093C88.1362 54.0577 87.9503 54.6041 87.946 55.1672C87.9267 55.7199 88.0983 56.2624 88.4318 56.703C88.7654 57.1435 89.2404 57.455 89.7765 57.5847L94.4146 58.7788C94.9162 58.8994 95.4102 59.0501 95.8938 59.2301C97.3729 59.7695 98.3768 61.147 98.4217 62.7212C98.4438 63.4918 98.2331 64.2511 97.8172 64.8993C97.4012 65.5476 96.7994 66.0546 96.0909 66.3535C95.0145 66.8439 93.8477 67.1034 92.6654 67.1154C91.4831 67.1273 90.3114 66.8913 89.2252 66.4227C88.3321 66.0364 87.5782 65.385 87.0654 64.5559C86.5525 63.727 86.3052 62.7603 86.3566 61.7862H87.3482C87.721 63.5888 88.9554 65.0903 90.6487 65.8005C92.3421 66.5109 94.2757 66.3364 95.8158 65.3367C96.2778 65.0957 96.6614 64.7269 96.9209 64.2741C97.1806 63.8212 97.3054 63.3031 97.2805 62.7815C97.3035 62.2675 97.1588 61.76 96.8682 61.336C96.5777 60.9121 96.1571 60.5948 95.6706 60.4321C94.4801 59.988 93.2143 59.7515 92.0014 59.3533C90.7323 58.9983 89.4908 58.551 88.2866 58.0145C86.3791 57.0731 86.2267 53.3779 88.4013 52.1992C89.5482 51.5312 90.848 51.1723 92.1742 51.1576C93.5003 51.1427 94.8076 51.4725 95.969 52.1148C96.6333 52.5124 97.1679 53.0951 97.508 53.7921C97.8479 54.489 97.9786 55.2701 97.8838 56.0402L97.8946 56.0464ZM31.4424 66.6825C31.043 66.834 30.602 66.8336 30.2029 66.6815C29.8038 66.5292 29.4739 66.2357 29.2758 65.8563L25.3315 60.3853L24.7596 59.6212L20.1824 65.8644C19.9959 66.2275 19.6839 66.51 19.3048 66.6593C18.9257 66.8085 18.5054 66.8143 18.1223 66.6753L24.0191 58.741L18.5329 51.5717C19.3469 51.2768 20.2541 51.5968 20.7068 52.3359L24.7945 57.8742L28.9064 52.3574C29.0943 52.0006 29.4066 51.7255 29.7835 51.5844C30.1605 51.4434 30.5761 51.4462 30.9511 51.5923L28.8222 54.4254L25.9383 58.1898C25.8583 58.2615 25.7943 58.3494 25.7504 58.4476C25.7066 58.5458 25.6839 58.6523 25.6839 58.7598C25.6839 58.8675 25.7066 58.9739 25.7504 59.072C25.7943 59.1704 25.8583 59.2582 25.9383 59.3298L31.4308 66.6825H31.4424ZM56.4796 51.4953V52.5742C55.708 52.5234 54.9344 52.6354 54.2087 52.9031C53.483 53.1708 52.8212 53.588 52.2663 54.128C51.7113 54.6682 51.2754 55.3188 50.9866 56.0382C50.698 56.7577 50.5629 57.5298 50.5901 58.3049C50.5901 60.8247 50.5901 63.3445 50.5901 65.8644V66.7212H49.4991V51.5627H50.5749V54.6691C51.8944 52.4033 53.9311 51.5627 56.4867 51.5016L56.4796 51.4953ZM4.00278 58.642L4.48326 56.2622C5.8028 51.5564 11.1814 49.5982 14.8819 52.513C17.0485 54.2194 17.589 56.6371 17.4832 59.3613H5.2766C5.07938 64.2272 8.57993 67.1654 13.0576 65.6657C14.5331 65.1262 15.6438 63.8963 16.0096 62.3678C16.2461 61.6037 16.637 61.4724 17.3524 61.6935C17.2331 62.6251 16.9047 63.5175 16.392 64.3034C15.8793 65.0893 15.1956 65.7485 14.3924 66.2312C13.0653 66.9591 11.5426 67.2475 10.0422 67.0552C8.54183 66.863 7.14048 66.1997 6.03856 65.1604C4.9485 63.9313 4.29052 62.3777 4.16234 60.7369C4.16234 60.4672 4.07269 60.2155 4.00995 59.9727C4.00396 59.519 4.00098 59.0754 4.00098 58.642H4.00278ZM5.29183 58.313H16.3305C16.2615 54.7858 14.0419 52.2837 11.0819 52.2604C7.78658 52.2154 5.42899 54.6627 5.28377 58.2977L5.29183 58.313Z" fill="black"/>
</g>
</g>
</g>
<defs>
<clipPath id="clip0_355_218">
<rect width="102.078" height="78.1875" fill="white" transform="translate(0.171875 0.460938)"/>
</clipPath>
</defs>
</svg>
