<svg width="81" height="81" viewBox="0 0 81 81" fill="none" xmlns="http://www.w3.org/2000/svg">
<g clip-path="url(#clip0_355_106)">
<mask id="mask0_355_106" style="mask-type:alpha" maskUnits="userSpaceOnUse" x="0" y="0" width="81" height="81">
<path d="M80.3594 0.1875H0V80.5469H80.3594V0.1875Z" fill="#D9D9D9"/>
</mask>
<g mask="url(#mask0_355_106)">
<path d="M40.1794 53.7934C60.7057 53.7934 77.3456 47.7823 77.3456 40.3672C77.3456 32.952 60.7057 26.9409 40.1794 26.9409C19.6531 26.9409 3.01318 32.952 3.01318 40.3672C3.01318 47.7823 19.6531 53.7934 40.1794 53.7934Z" stroke="#61DAFB" stroke-width="2.17188"/>
<path d="M27.8896 47.0805C38.1527 63.8992 51.9749 74.5278 58.7623 70.8202C65.5495 67.1128 62.7318 50.473 52.4686 33.6542C42.2055 16.8355 28.3833 6.20686 21.5961 9.91442C14.8087 13.6219 17.6264 30.2618 27.8896 47.0805Z" stroke="#61DAFB" stroke-width="2.17188"/>
<path d="M27.8896 33.6538C17.6264 50.4725 14.8087 67.1123 21.5961 70.8199C28.3833 74.5275 42.2055 63.8988 52.4686 47.0802C62.7318 30.2614 65.5495 13.6216 58.7623 9.91405C51.9749 6.20649 38.1527 16.8352 27.8896 33.6538Z" stroke="#61DAFB" stroke-width="2.17188"/>
<path d="M40.1788 46.9202C44.0042 46.9202 47.1053 43.9862 47.1053 40.3669C47.1053 36.7476 44.0042 33.8136 40.1788 33.8136C36.3535 33.8136 33.2524 36.7476 33.2524 40.3669C33.2524 43.9862 36.3535 46.9202 40.1788 46.9202Z" fill="#61DAFB"/>
</g>
</g>
<defs>
<clipPath id="clip0_355_106">
<rect width="80.3594" height="80.3594" fill="white" transform="translate(0 0.1875)"/>
</clipPath>
</defs>
</svg>
