<svg width="158" height="88" viewBox="0 0 158 88" fill="none" xmlns="http://www.w3.org/2000/svg">
<g filter="url(#filter0_d_3107_228193)">
<rect x="19" y="19" width="120" height="50" rx="10" fill="white"/>
<path d="M37.5072 47.041C37.5863 47.041 37.6654 47.0578 37.7445 47.0913C37.8236 47.1182 37.8993 47.1686 37.9718 47.2424L39.2963 48.6629C38.7165 49.4352 37.9883 50.0195 37.1119 50.4157C36.242 50.8052 35.2107 51 34.018 51C32.9241 51 31.9423 50.812 31.0724 50.4359C30.2092 50.0531 29.4744 49.5292 28.8682 48.8643C28.2685 48.1927 27.8072 47.4003 27.4843 46.4869C27.1614 45.5668 27 44.5695 27 43.495C27 42.4003 27.1746 41.3962 27.5239 40.4829C27.8731 39.5628 28.3641 38.7703 28.9967 38.1054C29.6293 37.4406 30.3871 36.9234 31.2701 36.5541C32.1531 36.1847 33.1251 36 34.186 36C34.7264 36 35.2338 36.0504 35.7083 36.1511C36.1893 36.2451 36.6374 36.3794 37.0526 36.5541C37.4677 36.722 37.8499 36.9268 38.1992 37.1686C38.5484 37.4103 38.8581 37.6723 39.1283 37.9543L38.0015 39.4956C37.929 39.5897 37.8433 39.677 37.7445 39.7576C37.6456 39.8314 37.5072 39.8684 37.3293 39.8684C37.2107 39.8684 37.0987 39.8415 36.9933 39.7878C36.8878 39.7341 36.7758 39.6702 36.6572 39.5964C36.5386 39.5158 36.4068 39.4318 36.2618 39.3445C36.1234 39.2505 35.9554 39.1666 35.7577 39.0927C35.5666 39.0121 35.3392 38.9449 35.0757 38.8912C34.8187 38.8375 34.5155 38.8106 34.1663 38.8106C33.6127 38.8106 33.1053 38.9147 32.6441 39.1229C32.1894 39.3311 31.794 39.6367 31.4579 40.0396C31.1284 40.4359 30.8714 40.9261 30.6869 41.5104C30.509 42.088 30.42 42.7495 30.42 43.495C30.42 44.2471 30.5189 44.9154 30.7166 45.4997C30.9209 46.0839 31.1943 46.5776 31.537 46.9805C31.8862 47.3768 32.2915 47.679 32.7528 47.8872C33.2141 48.0954 33.7083 48.1995 34.2355 48.1995C34.5386 48.1995 34.8154 48.186 35.0658 48.1592C35.3162 48.1256 35.5501 48.0752 35.7676 48.0081C35.985 47.9342 36.1893 47.8402 36.3804 47.726C36.5715 47.6051 36.7659 47.454 36.9636 47.2727C37.0427 47.2055 37.1283 47.1518 37.2206 47.1115C37.3129 47.0645 37.4084 47.041 37.5072 47.041Z" fill="#E02E24"/>
<path d="M49.4334 48.1189V50.8388H40.7548V36.1612H44.0957V48.1189H49.4334Z" fill="#E02E24"/>
<path d="M56.8615 48.1491C57.3096 48.1491 57.7082 48.0752 58.0575 47.9275C58.4133 47.773 58.7132 47.5547 58.957 47.2727C59.2008 46.9906 59.3853 46.6481 59.5105 46.2451C59.6423 45.8355 59.7082 45.3721 59.7082 44.8549V36.1612H63.0492V44.8549C63.0492 45.7549 62.9042 46.5809 62.6142 47.3331C62.3309 48.0853 61.9223 48.7334 61.3886 49.2774C60.8548 49.8214 60.2057 50.2445 59.4413 50.5467C58.6769 50.8489 57.817 51 56.8615 51C55.8994 51 55.0361 50.8489 54.2717 50.5467C53.5073 50.2445 52.8582 49.8214 52.3245 49.2774C51.7907 48.7334 51.3821 48.0853 51.0988 47.3331C50.8154 46.5809 50.6737 45.7549 50.6737 44.8549V36.1612H54.0147V44.8449C54.0147 45.362 54.0773 45.8254 54.2025 46.2351C54.3343 46.638 54.5221 46.9839 54.7659 47.2727C55.0098 47.5547 55.3063 47.773 55.6555 47.9275C56.0114 48.0752 56.4134 48.1491 56.8615 48.1491Z" fill="#E02E24"/>
<path d="M71.3526 48.27C71.7941 48.27 72.1533 48.2129 72.43 48.0987C72.7134 47.9846 72.9342 47.8368 73.0923 47.6555C73.2505 47.4741 73.3592 47.2693 73.4185 47.041C73.4778 46.8126 73.5075 46.5809 73.5075 46.3459C73.5075 46.0772 73.4712 45.8355 73.3987 45.6206C73.3328 45.4056 73.2142 45.2243 73.0429 45.0766C72.8781 44.9288 72.6574 44.8146 72.3806 44.734C72.1038 44.6535 71.7546 44.6132 71.3329 44.6132H69.0001V48.27H71.3526ZM69.0001 38.7099V42.3365H70.7398C71.1088 42.3365 71.4416 42.3096 71.7381 42.2559C72.0347 42.2021 72.2851 42.1081 72.4893 41.9738C72.7002 41.8395 72.8584 41.6548 72.9638 41.4197C73.0758 41.1847 73.1318 40.8892 73.1318 40.5332C73.1318 40.184 73.089 39.8952 73.0033 39.6669C72.9177 39.4318 72.7859 39.2438 72.608 39.1028C72.43 38.9617 72.2027 38.861 71.9259 38.8005C71.6558 38.7401 71.3329 38.7099 70.9572 38.7099H69.0001ZM70.9572 36.1612C71.9523 36.1612 72.7991 36.2552 73.4976 36.4433C74.1961 36.6313 74.7661 36.8966 75.2076 37.2391C75.6491 37.5816 75.9687 37.998 76.1664 38.4882C76.3707 38.9785 76.4728 39.5259 76.4728 40.1303C76.4728 40.4594 76.4267 40.7784 76.3344 41.0873C76.2422 41.3895 76.0972 41.6749 75.8995 41.9436C75.7018 42.2055 75.4481 42.4473 75.1384 42.6689C74.8287 42.8905 74.4564 43.0819 74.0214 43.2431C74.9704 43.4782 75.6722 43.8576 76.1268 44.3815C76.5815 44.9053 76.8089 45.5836 76.8089 46.4164C76.8089 47.041 76.6903 47.6219 76.453 48.1592C76.2158 48.6964 75.8666 49.1666 75.4053 49.5695C74.9506 49.9657 74.3872 50.278 73.715 50.5064C73.0429 50.728 72.2752 50.8388 71.4119 50.8388H65.6591V36.1612H70.9572Z" fill="#E02E24"/>
<path d="M95.0937 36.1612V50.8388H92.1481V42.3969C92.1481 42.2021 92.1514 41.9906 92.158 41.7623C92.1712 41.5339 92.1909 41.3022 92.2173 41.0672L88.392 48.6125C88.2734 48.8475 88.1119 49.0255 87.9077 49.1464C87.71 49.2673 87.4826 49.3277 87.2256 49.3277H86.7709C86.5139 49.3277 86.2833 49.2673 86.079 49.1464C85.8813 49.0255 85.7232 48.8475 85.6046 48.6125L81.7793 41.047C81.799 41.2888 81.8155 41.5272 81.8287 41.7623C81.8419 41.9906 81.8484 42.2021 81.8484 42.3969V50.8388H78.9029V36.1612H81.4531C81.598 36.1612 81.7232 36.1645 81.8287 36.1713C81.9407 36.178 82.0395 36.1981 82.1252 36.2317C82.2109 36.2653 82.2867 36.319 82.3526 36.3929C82.425 36.46 82.4942 36.5574 82.5601 36.685L86.2668 44.1296C86.3986 44.3848 86.5238 44.6501 86.6424 44.9255C86.7676 45.2008 86.8863 45.4829 86.9983 45.7717C87.1103 45.4762 87.2256 45.1874 87.3442 44.9053C87.4694 44.6232 87.6012 44.3546 87.7396 44.0994L91.4364 36.685C91.5023 36.5574 91.5682 36.46 91.6341 36.3929C91.7066 36.319 91.7857 36.2653 91.8714 36.2317C91.957 36.1981 92.0526 36.178 92.158 36.1713C92.27 36.1645 92.3985 36.1612 92.5435 36.1612H95.0937Z" fill="#E02E24"/>
<path d="M105.491 45.2277L104.157 41.2082C104.058 40.953 103.953 40.6541 103.841 40.3116C103.729 39.9624 103.617 39.5863 103.505 39.1833C103.406 39.593 103.3 39.9725 103.188 40.3217C103.076 40.6709 102.971 40.9731 102.872 41.2283L101.548 45.2277H105.491ZM110.799 50.8388H108.21C107.92 50.8388 107.686 50.7717 107.508 50.6373C107.33 50.4963 107.195 50.3183 107.103 50.1034L106.253 47.5447H100.777L99.9265 50.1034C99.854 50.2915 99.7222 50.4627 99.5311 50.6172C99.3466 50.7649 99.1159 50.8388 98.8392 50.8388H96.2297L101.805 36.1612H105.225L110.799 50.8388Z" fill="#E02E24"/>
<path d="M120.614 48.1189V50.8388H111.935V36.1612H115.276V48.1189H120.614Z" fill="#E02E24"/>
<path d="M131 48.1189V50.8388H122.321V36.1612H125.662V48.1189H131Z" fill="#E02E24"/>
</g>
<defs>
<filter id="filter0_d_3107_228193" x="0" y="0" width="158" height="88" filterUnits="userSpaceOnUse" color-interpolation-filters="sRGB">
<feFlood flood-opacity="0" result="BackgroundImageFix"/>
<feColorMatrix in="SourceAlpha" type="matrix" values="0 0 0 0 0 0 0 0 0 0 0 0 0 0 0 0 0 0 127 0" result="hardAlpha"/>
<feMorphology radius="4" operator="dilate" in="SourceAlpha" result="effect1_dropShadow_3107_228193"/>
<feOffset/>
<feGaussianBlur stdDeviation="7.5"/>
<feComposite in2="hardAlpha" operator="out"/>
<feColorMatrix type="matrix" values="0 0 0 0 0.262745 0 0 0 0 0.498039 0 0 0 0 0.92549 0 0 0 0.3 0"/>
<feBlend mode="normal" in2="BackgroundImageFix" result="effect1_dropShadow_3107_228193"/>
<feBlend mode="normal" in="SourceGraphic" in2="effect1_dropShadow_3107_228193" result="shape"/>
</filter>
</defs>
</svg>
