<svg width="158" height="88" viewBox="0 0 158 88" fill="none" xmlns="http://www.w3.org/2000/svg">
<g filter="url(#filter0_d_3107_228208)">
<rect x="19" y="19" width="120" height="50" rx="10" fill="white"/>
<path d="M57.1543 39.2111C57.8985 39.2111 58.5427 39.1892 59.1759 39.2331C59.3203 39.244 59.498 39.4855 59.5535 39.6611C60.0978 41.362 60.6198 43.074 61.1419 44.7859C61.1974 44.9505 61.2641 45.1151 61.3752 45.4334C61.5196 45.0383 61.6084 44.775 61.6973 44.5116C62.2415 42.8874 62.7969 41.2523 63.3301 39.6172C63.4412 39.2879 63.5745 39.1562 63.941 39.1562C65.285 39.1672 65.285 39.1453 65.696 40.3963C66.2069 41.9217 66.7179 43.4471 67.2288 44.9725C67.2733 45.0932 67.3177 45.2029 67.4177 45.4444C67.8286 44.1165 68.2063 42.8874 68.5951 41.6693C68.8172 40.967 69.0394 40.2756 69.2393 39.5733C69.317 39.2989 69.4392 39.1892 69.7391 39.2001C70.3056 39.2221 70.8832 39.2111 71.5163 39.2111C71.4719 39.3867 71.4608 39.5294 71.4164 39.6501C70.4389 42.5143 69.4503 45.3895 68.4729 48.2537C68.3729 48.55 68.2396 48.6817 67.8953 48.6817C66.4957 48.6927 66.4957 48.7037 66.0403 47.4087C65.4961 45.8614 64.9629 44.3031 64.3742 42.646C64.2742 42.8764 64.1965 43.0081 64.152 43.1398C63.5522 44.8518 62.9524 46.5527 62.3637 48.2647C62.2638 48.572 62.1194 48.6817 61.7861 48.6817C60.4199 48.6817 60.4088 48.7037 59.9756 47.4526C59.0537 44.753 58.1318 42.0314 57.1543 39.2111Z" fill="black"/>
<path d="M122.898 39.2111C123.476 39.2111 123.987 39.1781 124.509 39.222C124.709 39.244 124.942 39.4086 125.076 39.5732C126.308 41.1535 127.519 42.7447 128.741 44.325C128.863 44.4786 128.996 44.6322 129.208 44.8956C129.208 42.9313 129.208 41.0986 129.208 39.233C129.918 39.233 130.563 39.233 131.251 39.233C131.251 42.3387 131.251 45.4333 131.251 48.5829C130.729 48.5829 130.207 48.6158 129.707 48.5609C129.53 48.539 129.33 48.3524 129.208 48.1988C127.919 46.5527 126.642 44.8846 125.364 43.2276C125.253 43.0849 125.142 42.9642 124.931 42.7118C124.931 44.753 124.931 46.6405 124.931 48.55C124.231 48.55 123.587 48.55 122.898 48.55C122.898 45.4663 122.898 42.3716 122.898 39.2111Z" fill="black"/>
<path d="M73.8477 39.2422C76.2247 39.2422 78.5684 39.2422 80.9454 39.2422C80.9454 39.8458 80.9454 40.4274 80.9454 41.0529C79.2792 41.0529 77.6464 41.0529 75.9581 41.0529C75.9581 41.6894 75.9581 42.282 75.9581 42.9404C77.4243 42.9404 78.8683 42.9404 80.3456 42.9404C80.3456 43.5879 80.3456 44.1695 80.3456 44.806C78.8794 44.806 77.4243 44.806 75.9359 44.806C75.9359 45.4645 75.9359 46.0571 75.9359 46.7045C77.6131 46.7045 79.2903 46.7045 81.012 46.7045C81.012 47.341 81.012 47.9336 81.012 48.5591C78.635 48.5591 76.258 48.5591 73.8477 48.5591C73.8477 45.4535 73.8477 42.3698 73.8477 39.2422Z" fill="black"/>
<path d="M117.914 39.2422C118.625 39.2422 119.302 39.2422 119.98 39.2422C119.98 41.2834 120.102 43.3026 119.947 45.2889C119.758 47.6263 118.036 48.9103 115.659 48.7457C113.626 48.603 112.46 47.8239 111.971 46.2326C111.905 46.0022 111.816 45.7717 111.816 45.5413C111.805 43.4562 111.805 41.3821 111.805 39.2532C112.438 39.2532 113.093 39.2532 113.826 39.2532C113.837 39.4287 113.86 39.6153 113.86 39.8128C113.86 41.426 113.848 43.0282 113.871 44.6414C113.893 46.2765 115.037 47.1545 116.548 46.7265C117.425 46.485 117.903 45.7717 117.914 44.6414C117.925 43.0502 117.914 41.4589 117.914 39.8677C117.914 39.6702 117.914 39.4726 117.914 39.2422Z" fill="black"/>
<path d="M102.162 39.208C103.162 39.208 104.15 39.197 105.15 39.208C105.772 39.219 106.416 39.197 107.027 39.3177C108.76 39.647 109.726 40.9419 109.637 42.6648C109.549 44.3548 108.393 45.54 106.594 45.7266C105.85 45.8034 105.083 45.7375 104.25 45.7375C104.25 46.7252 104.25 47.6251 104.25 48.5579C103.517 48.5579 102.862 48.5579 102.162 48.5579C102.162 45.4632 102.162 42.3685 102.162 39.208ZM104.261 43.861C104.983 43.861 105.683 43.9159 106.372 43.85C107.061 43.7732 107.472 43.2245 107.494 42.5551C107.516 41.8527 107.183 41.2931 106.483 41.1943C105.75 41.0955 105.006 41.1724 104.261 41.1724C104.261 42.0832 104.261 42.9721 104.261 43.861Z" fill="black"/>
<path d="M98.6194 41.682C97.8863 41.3966 97.2309 41.1003 96.5423 40.9138C96.2091 40.826 95.787 40.8479 95.4648 40.9796C95.2316 41.0674 94.9539 41.3857 94.9317 41.6271C94.9095 41.8685 95.1205 42.2526 95.3427 42.3623C95.8425 42.6148 96.4201 42.7355 96.9533 42.922C97.442 43.0866 97.9418 43.2293 98.4083 43.4378C99.3858 43.8768 99.919 44.612 99.919 45.7094C99.919 46.8617 99.4747 47.7616 98.4083 48.2444C96.6311 49.0346 94.9095 48.7273 93.2656 47.8055C92.9657 47.6409 92.6991 47.4104 92.377 47.1799C92.8101 46.6642 93.21 46.1923 93.6321 45.6875C94.4207 46.2691 95.2316 46.7739 96.2424 46.7959C96.5867 46.8068 96.9644 46.7959 97.2643 46.6532C97.5086 46.5435 97.7752 46.2252 97.7863 45.9838C97.8085 45.7423 97.5864 45.3912 97.3642 45.2595C96.9977 45.04 96.5534 44.9303 96.1313 44.7986C95.6537 44.6449 95.1649 44.5462 94.6984 44.3706C93.2878 43.8658 92.7546 43.0976 92.799 41.7039C92.8435 40.4858 93.5877 39.542 94.8873 39.1909C96.6311 38.719 98.1973 39.147 99.6635 40.2005C99.2747 40.7382 98.9193 41.243 98.6194 41.682Z" fill="black"/>
<path d="M83.6562 39.2548C83.7673 39.2439 83.8784 39.2109 83.9895 39.2109C84.5449 39.2109 85.0891 39.2109 85.7111 39.2109C85.7111 41.713 85.7111 44.1712 85.7111 46.6952C87.3106 46.6952 88.8546 46.6952 90.4318 46.6952C90.4318 47.3427 90.4318 47.9243 90.4318 48.5498C88.1992 48.5498 85.9444 48.5498 83.6562 48.5498C83.6562 45.4661 83.6562 42.3715 83.6562 39.2548Z" fill="black"/>
<path d="M45.1716 49C44.5496 47.5624 43.8276 46.3114 42.939 45.1591C42.2503 44.2702 41.4728 43.4691 40.6397 42.7119C40.3843 42.4814 40.2287 42.4814 39.9844 42.7448C38.4404 44.4238 37.4074 46.3882 36.5744 48.4732C36.5188 48.6049 36.4633 48.7476 36.3744 48.9671C35.3859 46.6296 33.9863 44.6653 32.1536 42.9972C30.343 41.3401 28.277 40.0891 26 39.1344C26.6109 38.9368 27.8994 38.9588 29.099 39.1892C32.2535 39.8038 34.9305 41.2194 36.8965 43.8093C37.0076 43.9629 37.0853 44.1495 37.2853 43.8751C37.8628 43.0631 38.5959 42.4046 39.3624 41.7242C37.9406 40.6268 36.3967 39.8367 34.775 39.1234C35.5525 38.9149 37.1297 39.0027 38.4849 39.3099C39.3735 39.5184 40.2287 39.7818 41.0507 40.1659C41.3284 40.2976 41.5394 40.2976 41.8171 40.1549C42.8501 39.6062 43.9498 39.2441 45.1161 39.0905C45.3382 39.0575 45.5715 39.0575 45.8158 39.0795C44.6384 39.5733 43.4833 40.0671 42.3725 40.7914C42.8946 41.1865 43.3944 41.5377 43.8831 41.9108C44.5385 42.4266 45.1272 43.0082 45.5937 43.6995C45.8269 44.0397 45.9491 44.0288 46.2046 43.7105C47.9263 41.6035 50.0811 40.0781 52.7469 39.3319C53.1357 39.2221 53.5356 39.1673 53.9466 39.1014C54.1465 39.0685 54.3464 39.0685 54.6019 39.1124C49.6813 40.7146 46.8488 44.2592 45.1716 49Z" fill="#00ACEE"/>
</g>
<defs>
<filter id="filter0_d_3107_228208" x="0" y="0" width="158" height="88" filterUnits="userSpaceOnUse" color-interpolation-filters="sRGB">
<feFlood flood-opacity="0" result="BackgroundImageFix"/>
<feColorMatrix in="SourceAlpha" type="matrix" values="0 0 0 0 0 0 0 0 0 0 0 0 0 0 0 0 0 0 127 0" result="hardAlpha"/>
<feMorphology radius="4" operator="dilate" in="SourceAlpha" result="effect1_dropShadow_3107_228208"/>
<feOffset/>
<feGaussianBlur stdDeviation="7.5"/>
<feComposite in2="hardAlpha" operator="out"/>
<feColorMatrix type="matrix" values="0 0 0 0 0.262745 0 0 0 0 0.498039 0 0 0 0 0.92549 0 0 0 0.3 0"/>
<feBlend mode="normal" in2="BackgroundImageFix" result="effect1_dropShadow_3107_228208"/>
<feBlend mode="normal" in="SourceGraphic" in2="effect1_dropShadow_3107_228208" result="shape"/>
</filter>
</defs>
</svg>
