<svg width="16" height="15" viewBox="0 0 16 15" fill="none" xmlns="http://www.w3.org/2000/svg">
<path d="M3.67247 1.99121C3.67219 2.62115 3.29002 3.18801 2.70617 3.4245C2.12232 3.661 1.45338 3.5199 1.01479 3.06774C0.576191 2.61558 0.455528 1.94265 0.709687 1.36627C0.963854 0.789896 1.54209 0.425162 2.17173 0.44406C3.00802 0.469163 3.67285 1.15454 3.67247 1.99121ZM3.71889 4.68326H0.624578V14.3684H3.71889V4.68326ZM8.60791 4.68326H5.52906V14.3684H8.57697V9.28603C8.57697 6.45473 12.2669 6.19172 12.2669 9.28603V14.3684H15.3226V8.23396C15.3226 3.46101 9.86111 3.63893 8.57697 5.98285L8.60791 4.68326Z" fill="white"/>
</svg>
