<svg width="228" height="31" viewBox="0 0 228 31" fill="none" xmlns="http://www.w3.org/2000/svg">
<path fill-rule="evenodd" clip-rule="evenodd" d="M26.5166 7.64979C26.4316 7.05473 26.2899 6.62969 26.0916 6.26131C25.9499 6.403 25.6665 6.71469 25.3832 6.57301L24.9864 6.37466L24.5897 6.17631C24.3347 6.03462 24.3914 5.63792 24.3914 5.43956C23.9947 5.52457 23.5413 5.69459 23.0312 5.97795C23.0312 5.24121 23.2296 4.5328 23.428 4.27778C23.7963 3.8244 24.2214 3.62604 24.5897 3.5127C25.0998 1.92587 26.1482 0.310706 28.0468 0.0273438C29.0102 1.69918 28.4151 3.54104 27.4517 4.90117C27.5934 5.26955 27.7067 5.72293 27.5934 6.28965C27.5367 6.60135 27.0833 7.19641 26.5166 7.64979ZM27.14 1.92587C27.48 2.09589 27.6501 2.52093 27.48 2.86097C27.31 3.201 26.885 3.37102 26.5449 3.201C26.2049 3.03098 26.0349 2.60594 26.2049 2.26591C26.3749 1.89753 26.8 1.75585 27.14 1.92587Z" fill="black"/>
<path d="M0.250898 3.25867L9.7152 22.839C10.8486 22.6973 12.6055 22.0739 13.5123 20.0621L4.21797 1.16179C3.8496 0.45338 3.08452 0 2.29111 0C2.26277 0 2.23443 0 2.23443 0C0.562597 0 -0.51418 1.75685 0.250898 3.25867Z" fill="#0094EE"/>
<path d="M20.9671 19.752C18.4452 22.8123 15.9232 26.3543 11.7578 26.8643C12.1829 27.6861 12.6079 28.5078 13.0329 29.3579C13.6847 30.6614 15.5265 30.6331 16.2066 29.3579C17.8218 26.1276 19.3519 22.9256 20.9671 19.752Z" fill="#0094EE"/>
<path d="M25.7531 10.228C23.9112 13.5434 21.191 17.7371 19.1508 20.1174C16.9972 22.6393 14.8153 25.3879 11.5283 25.7846C9.99816 25.9547 8.7797 25.6713 7.50457 24.8779C5.86107 23.6594 4.58594 21.8742 4.58594 19.3806C4.64261 18.3889 4.72762 17.7088 5.12433 16.5754C4.84096 17.8788 4.8693 19.0123 5.03932 19.8907C5.66271 22.951 7.81627 24.3395 10.2248 24.1128C10.4515 24.0845 10.6782 24.0561 10.9333 23.9995C12.4917 23.5744 13.4835 22.526 14.1636 21.5909C14.5036 21.1375 14.7586 20.6841 14.9287 20.3724C16.0054 18.6156 16.8839 16.8871 17.1956 16.2637C19.1224 12.4666 19.2074 12.2683 20.4826 9.85967C20.8509 9.15127 21.1626 8.38619 21.6443 7.73446C21.6727 7.70612 21.6727 7.67778 21.701 7.67778C23.5429 5.21253 27.2266 7.62111 25.7531 10.228Z" fill="black"/>
<path d="M145.731 19.8615H143.011C141.991 19.8615 141.141 19.0114 141.141 17.9913C141.141 16.9712 141.991 16.1211 143.011 16.1211H145.731C146.751 16.1211 147.601 16.9712 147.601 17.9913C147.601 19.0397 146.751 19.8615 145.731 19.8615Z" fill="black"/>
<path d="M141.93 10.9069C143.229 10.9069 144.282 9.85395 144.282 8.55503C144.282 7.25611 143.229 6.20312 141.93 6.20312C140.631 6.20312 139.578 7.25611 139.578 8.55503C139.578 9.85395 140.631 10.9069 141.93 10.9069Z" fill="black"/>
<path d="M139.977 28.1352V13.6837C139.977 12.6069 140.855 11.7285 141.932 11.7285C143.009 11.7285 143.887 12.6069 143.887 13.6837V28.1635C143.887 29.2403 143.009 30.1187 141.932 30.1187C140.855 30.0904 139.977 29.212 139.977 28.1352Z" fill="black"/>
<path d="M150.995 19.8615H153.715C154.736 19.8615 155.586 19.0114 155.586 17.9913C155.586 16.9712 154.736 16.1211 153.715 16.1211H150.995C149.975 16.1211 149.125 16.9712 149.125 17.9913C149.125 19.0397 149.975 19.8615 150.995 19.8615Z" fill="black"/>
<path d="M154.789 10.9069C156.088 10.9069 157.141 9.85395 157.141 8.55503C157.141 7.25611 156.088 6.20312 154.789 6.20312C153.49 6.20312 152.438 7.25611 152.438 8.55503C152.438 9.85395 153.49 10.9069 154.789 10.9069Z" fill="black"/>
<path d="M156.746 28.1352V13.6837C156.746 12.6069 155.868 11.7285 154.791 11.7285C153.714 11.7285 152.836 12.6069 152.836 13.6837V28.1635C152.836 29.2403 153.714 30.1187 154.791 30.1187C155.868 30.0904 156.746 29.212 156.746 28.1352Z" fill="black"/>
<path d="M39.4665 27.3167L38.3331 24.3414H28.6988L27.5653 27.3734C27.1119 28.5635 26.7436 29.3569 26.4319 29.782C26.1202 30.207 25.6101 30.4054 24.9017 30.4054C24.3066 30.4054 23.7682 30.1787 23.2865 29.7536C22.8332 29.3003 22.5781 28.8185 22.5781 28.2518C22.5781 27.9401 22.6348 27.6001 22.7481 27.26C22.8615 26.92 23.0315 26.4383 23.2865 25.8149L29.3505 10.4C29.5205 9.94661 29.7189 9.43656 29.9739 8.81316C30.2289 8.18977 30.4839 7.67971 30.739 7.25467C31.0223 6.85796 31.3624 6.51793 31.8157 6.2629C32.2691 6.00788 32.8075 5.89453 33.4876 5.89453C34.1676 5.89453 34.706 6.00788 35.1594 6.2629C35.6128 6.51793 35.9812 6.82963 36.2362 7.25467C36.5196 7.65138 36.7462 8.07642 36.9446 8.5298C37.1429 8.98318 37.3696 9.60658 37.653 10.3717L43.8586 25.6732C44.3404 26.835 44.5954 27.6851 44.5954 28.2235C44.5954 28.7619 44.3687 29.2719 43.9153 29.7253C43.4619 30.1787 42.8952 30.4054 42.2435 30.4054C41.8751 30.4054 41.5351 30.3487 41.28 30.207C40.9967 30.0653 40.77 29.8953 40.6 29.6686C40.43 29.4419 40.2316 29.0736 40.0049 28.5919C39.8066 28.1101 39.6365 27.6851 39.4665 27.3167ZM29.9455 20.7427H37.0296L33.4592 10.9384L29.9455 20.7427Z" fill="#0094EE"/>
<path d="M64.8534 22.8953C64.8534 24.3405 64.485 25.6156 63.7483 26.7774C63.0115 27.9108 61.9348 28.8176 60.4896 29.4693C59.0445 30.121 57.3726 30.4327 55.4174 30.4327C53.0655 30.4327 51.1387 29.9794 49.6085 29.1009C48.5317 28.4775 47.6533 27.6275 46.9732 26.5507C46.2932 25.4739 45.9531 24.4538 45.9531 23.462C45.9531 22.867 46.1515 22.3853 46.5482 21.9602C46.9449 21.5352 47.4549 21.3368 48.1067 21.3368C48.6167 21.3368 49.0418 21.5068 49.3818 21.8185C49.7218 22.1302 50.0335 22.6119 50.2886 23.2637C50.6003 24.0288 50.912 24.6522 51.2803 25.1622C51.6204 25.6723 52.1304 26.0973 52.7538 26.409C53.3772 26.749 54.2273 26.8907 55.2757 26.8907C56.6926 26.8907 57.8543 26.5507 58.7611 25.8989C59.6395 25.2472 60.0929 24.3971 60.0929 23.4054C60.0929 22.6119 59.8662 21.9885 59.3845 21.4785C58.9028 20.9968 58.2794 20.6001 57.5143 20.345C56.7492 20.09 55.7291 19.8067 54.454 19.5233C52.7538 19.1266 51.3087 18.6449 50.1752 18.1348C49.0134 17.5964 48.1067 16.8597 47.4266 15.9529C46.7465 15.0178 46.4065 13.8844 46.4065 12.5242C46.4065 11.2208 46.7749 10.059 47.4833 9.03889C48.1917 8.01879 49.2118 7.25371 50.5719 6.68698C51.9321 6.1486 53.5189 5.86523 55.3324 5.86523C56.7776 5.86523 58.0527 6.03525 59.1011 6.40362C60.1779 6.77199 61.0563 7.25371 61.7364 7.84877C62.4448 8.44383 62.9549 9.06723 63.2666 9.7473C63.5783 10.399 63.7483 11.0508 63.7483 11.6742C63.7483 12.2409 63.5499 12.7509 63.1532 13.2327C62.7565 13.686 62.2465 13.9127 61.6514 13.9127C61.113 13.9127 60.688 13.771 60.4046 13.4877C60.1212 13.2043 59.8095 12.7509 59.4695 12.1275C59.0445 11.2208 58.5061 10.5407 57.911 10.0307C57.316 9.52061 56.3242 9.26558 54.9924 9.26558C53.7456 9.26558 52.7538 9.54894 51.9887 10.0873C51.2237 10.6257 50.8553 11.2775 50.8553 12.0425C50.8553 12.5242 50.997 12.921 51.252 13.261C51.507 13.601 51.8754 13.9127 52.3288 14.1394C52.7822 14.3944 53.2355 14.5928 53.7173 14.7345C54.1706 14.8762 54.9357 15.0745 56.0125 15.3579C57.3443 15.6696 58.5627 16.0096 59.6395 16.4063C60.7163 16.7747 61.6514 17.2564 62.4165 17.7948C63.1816 18.3332 63.7766 19.0132 64.2017 19.835C64.6267 20.6851 64.8534 21.6769 64.8534 22.8953Z" fill="#0094EE"/>
<path d="M67.6328 20.2034V8.78387C67.6328 7.82043 67.8595 7.08369 68.2845 6.60198C68.7096 6.12026 69.3047 5.86523 70.0131 5.86523C70.7498 5.86523 71.3449 6.12026 71.7982 6.60198C72.2233 7.08369 72.45 7.82043 72.45 8.78387V20.4584C72.45 21.7902 72.5917 22.8953 72.9033 23.7737C73.1867 24.6522 73.7251 25.3606 74.4902 25.8423C75.2553 26.324 76.3037 26.579 77.6638 26.579C79.534 26.579 80.8658 26.069 81.6593 25.0772C82.4243 24.0854 82.821 22.5553 82.821 20.5434V8.78387C82.821 7.7921 83.0477 7.08369 83.4728 6.60198C83.8978 6.12026 84.4929 5.89357 85.2013 5.89357C85.9097 5.89357 86.5047 6.12026 86.9581 6.60198C87.4115 7.08369 87.6382 7.82043 87.6382 8.78387V20.2034C87.6382 22.0736 87.4682 23.6037 87.0998 24.8505C86.7314 26.0973 86.0514 27.1741 85.0596 28.1092C84.2095 28.9026 83.1894 29.4976 82.056 29.866C80.9225 30.2344 79.5624 30.4044 78.0322 30.4044C76.2187 30.4044 74.6319 30.2061 73.3284 29.8093C72.0249 29.4126 70.9482 28.8176 70.0981 27.9675C69.2763 27.1457 68.6529 26.0973 68.2562 24.7938C67.8312 23.5187 67.6328 21.9885 67.6328 20.2034Z" fill="#0094EE"/>
<path d="M97.7242 8.75553L106.962 22.7536V8.61385C106.962 7.70709 107.16 6.99868 107.557 6.5453C107.954 6.09192 108.492 5.86523 109.144 5.86523C109.824 5.86523 110.39 6.09192 110.787 6.5453C111.184 6.99868 111.382 7.67875 111.382 8.61385V27.2874C111.382 29.3843 110.532 30.4044 108.804 30.4044C108.379 30.4044 107.982 30.3477 107.642 30.2061C107.302 30.0927 106.962 29.8944 106.678 29.611C106.367 29.3276 106.083 29.0159 105.828 28.6759C105.573 28.3075 105.318 27.9392 105.063 27.5708L96.0523 13.7427V27.6558C96.0523 28.5626 95.854 29.2426 95.4289 29.7243C95.0039 30.1777 94.4655 30.4327 93.8138 30.4327C93.1337 30.4327 92.5953 30.2061 92.1703 29.7243C91.7736 29.2426 91.5469 28.5626 91.5469 27.6841V9.35059C91.5469 8.58551 91.6319 7.96212 91.8019 7.50874C92.0003 7.02702 92.3403 6.63031 92.822 6.31861C93.3037 6.00692 93.8138 5.86523 94.3522 5.86523C94.7772 5.86523 95.1456 5.92191 95.4573 6.06359C95.769 6.20527 96.024 6.40362 96.279 6.63031C96.5057 6.857 96.7607 7.1687 96.9874 7.56541C97.2141 7.96212 97.4691 8.35882 97.7242 8.75553Z" fill="#0094EE"/>
<path d="M118.296 6.28906H124.558C126.201 6.28906 127.59 6.43074 128.752 6.74244C129.913 7.05414 130.962 7.62086 131.925 8.44262C134.391 10.5678 135.637 13.7698 135.637 18.0769C135.637 19.4937 135.524 20.7972 135.269 21.9873C135.014 23.1775 134.646 24.2259 134.107 25.161C133.597 26.0961 132.917 26.9462 132.124 27.6829C131.5 28.2496 130.792 28.703 130.027 29.0714C129.262 29.4114 128.468 29.6665 127.59 29.8081C126.711 29.9498 125.748 30.0065 124.643 30.0065H118.381C117.502 30.0065 116.85 29.8648 116.397 29.6098C115.944 29.3548 115.66 28.9864 115.519 28.5047C115.377 28.0229 115.32 27.3996 115.32 26.6345V9.23603C115.32 8.18759 115.547 7.45085 116.029 6.99747C116.51 6.51575 117.276 6.28906 118.296 6.28906ZM120.166 10.0861V26.1811H123.821C124.615 26.1811 125.238 26.1528 125.691 26.1244C126.145 26.0678 126.626 25.9827 127.108 25.8127C127.59 25.6427 128.015 25.3877 128.383 25.076C129.998 23.7158 130.792 21.3639 130.792 18.0486C130.792 15.6967 130.452 13.9398 129.743 12.7781C129.035 11.6163 128.157 10.8795 127.137 10.5395C126.088 10.2278 124.841 10.0578 123.368 10.0578H120.166V10.0861Z" fill="#0094EE"/>
<path d="M177.576 27.3167L176.442 24.3414H166.808L165.675 27.3734C165.221 28.5635 164.853 29.3569 164.541 29.782C164.23 30.207 163.719 30.4054 163.011 30.4054C162.416 30.4054 161.878 30.1787 161.396 29.7536C160.943 29.3003 160.688 28.8185 160.688 28.2518C160.688 27.9401 160.744 27.6001 160.858 27.26C160.971 26.92 161.141 26.4383 161.396 25.8149L167.46 10.4C167.63 9.94661 167.828 9.43656 168.083 8.81316C168.338 8.18977 168.593 7.67971 168.848 7.25467C169.132 6.85796 169.472 6.51793 169.925 6.2629C170.379 6.00788 170.917 5.89453 171.597 5.89453C172.277 5.89453 172.815 6.00788 173.269 6.2629C173.722 6.51793 174.091 6.82963 174.346 7.25467C174.629 7.65138 174.856 8.07642 175.054 8.5298C175.252 8.98318 175.479 9.60658 175.762 10.3717L181.968 25.6732C182.45 26.835 182.705 27.6851 182.705 28.2235C182.705 28.7619 182.478 29.2719 182.025 29.7253C181.571 30.1787 181.005 30.4054 180.353 30.4054C179.984 30.4054 179.644 30.3487 179.389 30.207C179.106 30.0653 178.879 29.8953 178.709 29.6686C178.539 29.4419 178.341 29.0736 178.114 28.5919C177.916 28.1101 177.746 27.6851 177.576 27.3167ZM168.055 20.7427H175.139L171.569 10.9384L168.055 20.7427Z" fill="#0094EE"/>
<path d="M191.375 19.8621H189.703V27.4846C189.703 28.4763 189.476 29.2414 189.051 29.6948C188.598 30.1765 188.031 30.4032 187.323 30.4032C186.558 30.4032 185.963 30.1482 185.537 29.6665C185.112 29.1564 184.914 28.448 184.914 27.4846V9.23603C184.914 8.18759 185.141 7.45085 185.622 6.99747C186.076 6.54409 186.841 6.28906 187.861 6.28906H195.682C196.759 6.28906 197.694 6.34573 198.459 6.43074C199.224 6.51575 199.904 6.71411 200.527 6.99747C201.264 7.30917 201.944 7.76255 202.511 8.32927C203.078 8.92433 203.531 9.57606 203.814 10.3695C204.098 11.1346 204.268 11.9563 204.268 12.8347C204.268 14.5916 203.758 16.0084 202.766 17.0852C201.774 18.1336 200.244 18.8987 198.232 19.3237C199.082 19.7771 199.904 20.4572 200.669 21.3356C201.434 22.214 202.142 23.1491 202.738 24.1692C203.361 25.161 203.814 26.0678 204.154 26.8612C204.494 27.6546 204.664 28.2213 204.664 28.533C204.664 28.8447 204.551 29.1564 204.353 29.4681C204.154 29.7798 203.871 30.0065 203.531 30.2048C203.191 30.3749 202.794 30.4599 202.341 30.4599C201.802 30.4599 201.349 30.3465 200.981 30.0915C200.612 29.8365 200.301 29.5248 200.046 29.1281C199.791 28.7314 199.422 28.1646 198.969 27.3996L197.042 24.1976C196.362 23.0074 195.739 22.129 195.2 21.5056C194.662 20.8822 194.095 20.4572 193.528 20.2305C192.933 19.9755 192.225 19.8621 191.375 19.8621ZM194.123 9.88776H189.675V16.4051H193.982C195.143 16.4051 196.107 16.2918 196.9 16.0934C197.694 15.895 198.289 15.555 198.714 15.0733C199.139 14.5916 199.337 13.9398 199.337 13.0898C199.337 12.438 199.167 11.843 198.827 11.3612C198.487 10.8512 198.034 10.4828 197.439 10.2278C196.9 10.0011 195.795 9.88776 194.123 9.88776Z" fill="#0094EE"/>
<path d="M222.631 27.3167L221.497 24.3414H211.863L210.729 27.3734C210.276 28.5635 209.908 29.3569 209.596 29.782C209.284 30.207 208.774 30.4054 208.066 30.4054C207.471 30.4054 206.932 30.1787 206.451 29.7536C205.997 29.3003 205.742 28.8185 205.742 28.2518C205.742 27.9401 205.799 27.6001 205.912 27.26C206.026 26.92 206.196 26.4383 206.451 25.8149L212.515 10.4C212.685 9.94661 212.883 9.43656 213.138 8.81316C213.393 8.18977 213.648 7.67971 213.903 7.25467C214.186 6.85796 214.526 6.51793 214.98 6.2629C215.433 6.00788 215.972 5.89453 216.652 5.89453C217.332 5.89453 217.87 6.00788 218.323 6.2629C218.777 6.51793 219.145 6.82963 219.4 7.25467C219.684 7.65138 219.91 8.07642 220.109 8.5298C220.307 8.98318 220.534 9.60658 220.817 10.3717L227.023 25.6732C227.504 26.835 227.759 27.6851 227.759 28.2235C227.759 28.7619 227.533 29.2719 227.079 29.7253C226.626 30.1787 226.059 30.4054 225.408 30.4054C225.039 30.4054 224.699 30.3487 224.444 30.207C224.161 30.0653 223.934 29.8953 223.764 29.6686C223.594 29.4419 223.396 29.0736 223.169 28.5919C222.942 28.1101 222.772 27.6851 222.631 27.3167ZM213.11 20.7427H220.194L216.623 10.9384L213.11 20.7427Z" fill="#0094EE"/>
</svg>
