<svg width="15" height="15" viewBox="0 0 15 15" fill="none" xmlns="http://www.w3.org/2000/svg">
<path d="M8.52067 12.375C8.84837 12.3243 9.18373 12.3802 9.47732 12.5346C9.8338 12.7221 10.2305 12.8212 10.6449 12.8212C12.0334 12.8212 13.1591 11.6955 13.1591 10.307C13.1591 9.8926 13.0599 9.49589 12.8725 9.13941C12.7181 8.84583 12.6621 8.51046 12.7129 8.18276C12.7523 7.92778 12.7723 7.66838 12.7723 7.4059C12.7723 4.62873 10.5209 2.3774 7.7438 2.3774C7.48131 2.3774 7.22192 2.39737 6.96694 2.43682C6.63916 2.48751 6.30379 2.43156 6.01028 2.27719C5.65379 2.08973 5.25709 1.99059 4.84273 1.99059C3.45414 1.99059 2.32848 3.11625 2.32848 4.50484C2.32848 4.9192 2.42761 5.3159 2.61508 5.67239C2.76944 5.96597 2.8254 6.30133 2.7747 6.62903C2.73526 6.88401 2.71529 7.14341 2.71529 7.4059C2.71529 10.1831 4.96662 12.4344 7.7438 12.4344C8.00629 12.4344 8.26561 12.4144 8.52067 12.375ZM7.7438 13.9816C4.11211 13.9816 1.16806 11.0376 1.16806 7.4059C1.16806 7.06125 1.19456 6.72287 1.24566 6.39254C0.949078 5.82856 0.78125 5.18629 0.78125 4.50484C0.78125 2.26175 2.59963 0.443359 4.84273 0.443359C5.52418 0.443359 6.16644 0.611188 6.73044 0.907768C7.0607 0.856679 7.39916 0.830167 7.7438 0.830167C11.3755 0.830167 14.3195 3.77422 14.3195 7.4059C14.3195 7.75054 14.293 8.08892 14.2419 8.41925C14.5385 8.98322 14.7063 9.62547 14.7063 10.307C14.7063 12.55 12.888 14.3684 10.6449 14.3684C9.96338 14.3684 9.32113 14.2006 8.75716 13.904C8.42683 13.9551 8.08837 13.9816 7.7438 13.9816ZM7.78473 11.2734C5.61742 11.2734 4.64933 10.2074 4.64933 9.40739C4.64933 8.99529 4.95155 8.70928 5.36745 8.70928C6.29567 8.70928 6.05325 10.0436 7.78473 10.0436C8.66881 10.0436 9.15851 9.5615 9.15851 9.06801C9.15851 8.77117 9.01354 8.44316 8.42907 8.29826L6.50254 7.81614C4.95101 7.42609 4.66925 6.58463 4.66925 5.79548C4.66925 4.15408 6.21057 3.53782 7.65863 3.53782C8.98986 3.53782 10.564 4.27744 10.564 5.26109C10.564 5.68343 10.1934 5.92906 9.78127 5.92906C8.98986 5.92906 9.13585 4.83176 7.53802 4.83176C6.74661 4.83176 6.30325 5.18945 6.30325 5.70282C6.30325 6.21623 6.92439 6.38047 7.46522 6.50386L8.88589 6.82004C10.4433 7.16971 10.8383 8.08381 10.8383 8.94469C10.8383 10.2785 9.81361 11.274 7.75564 11.274L7.78473 11.2734Z" fill="white"/>
</svg>
