<svg width="13" height="16" viewBox="0 0 13 16" fill="none" xmlns="http://www.w3.org/2000/svg">
<path d="M4.55092 12.1905H5.33333V8.38095H6.85714V12.1905H7.63954C7.74011 11.275 8.20731 10.5192 8.96579 9.69341C9.0512 9.60046 9.59908 9.03345 9.66408 8.95246C10.3099 8.14712 10.6667 7.15048 10.6667 6.09524C10.6667 3.57051 8.61996 1.52381 6.09524 1.52381C3.57051 1.52381 1.52381 3.57051 1.52381 6.09524C1.52381 7.14994 1.88018 8.14606 2.52542 8.95116C2.59051 9.03238 3.13966 9.60091 3.22403 9.6928C3.98298 10.5192 4.45031 11.275 4.55092 12.1905ZM4.57143 13.7143V14.4762H7.61905V13.7143H4.57143ZM1.33634 9.90415C0.500153 8.86072 0 7.53638 0 6.09524C0 2.72893 2.72893 0 6.09524 0C9.46156 0 12.1905 2.72893 12.1905 6.09524C12.1905 7.53714 11.6898 8.8621 10.8528 9.90583C10.3802 10.4951 9.14286 11.4286 9.14286 12.5714V14.4762C9.14286 15.3178 8.46065 16 7.61905 16H4.57143C3.72985 16 3.04762 15.3178 3.04762 14.4762V12.5714C3.04762 11.4286 1.8092 10.4942 1.33634 9.90415Z" fill="white"/>
</svg>
