<svg width="14" height="19" viewBox="0 0 14 19" fill="none" xmlns="http://www.w3.org/2000/svg">
<path d="M2.30625 1.9V17.1H11.8062V1.9H2.30625ZM1.35625 0H12.7562C13.2809 0 13.7063 0.425334 13.7063 0.95V18.05C13.7063 18.5747 13.2809 19 12.7562 19H1.35625C0.831584 19 0.40625 18.5747 0.40625 18.05V0.95C0.40625 0.425334 0.831584 0 1.35625 0ZM7.05625 14.25C7.58094 14.25 8.00625 14.6753 8.00625 15.2C8.00625 15.7247 7.58094 16.15 7.05625 16.15C6.53156 16.15 6.10625 15.7247 6.10625 15.2C6.10625 14.6753 6.53156 14.25 7.05625 14.25Z" fill="white"/>
</svg>
