<svg width="16" height="16" viewBox="0 0 16 16" fill="none" xmlns="http://www.w3.org/2000/svg">
<path d="M1.6 11.2V14.4H4.8V16H0V11.2H1.6ZM16 11.2V16H11.2V14.4H14.4V11.2H16ZM4.4 4C4.4 5.71328 5.59682 7.14704 7.2 7.5108V12H8.8L8.8008 7.51064C10.4036 7.14656 11.6 5.713 11.6 4H13.2C13.2 6.00583 12.0643 7.7464 10.4009 8.61376L10.4 13.6H5.6L5.59994 8.61416C3.93606 7.74696 2.8 6.00615 2.8 4H4.4ZM8 2.4C9.10456 2.4 10 3.29543 10 4.4C10 5.50457 9.10456 6.4 8 6.4C6.89544 6.4 6 5.50457 6 4.4C6 3.29543 6.89544 2.4 8 2.4ZM4.8 0V1.6L1.6 1.5992V4.8H0V0H4.8ZM16 0V4.8H14.4V1.6H11.2V0H16Z" fill="white"/>
</svg>
