<svg width="20" height="14" viewBox="0 0 20 14" fill="none" xmlns="http://www.w3.org/2000/svg">
<path d="M14 0C16.8995 0 19.25 2.3505 19.25 5.25V8.75C19.25 11.6495 16.8995 14 14 14H5.25C2.3505 14 0 11.6495 0 8.75V5.25C0 2.3505 2.3505 0 5.25 0H14ZM14 1.75H5.25C3.37558 1.75 1.8453 3.22347 1.75429 5.07531L1.75 5.25V8.75C1.75 10.6244 3.22347 12.1547 5.07531 12.2457L5.25 12.25H14C15.8744 12.25 17.4047 10.7765 17.4957 8.92465L17.5 8.75V5.25C17.5 3.37558 16.0265 1.8453 14.1747 1.75429L14 1.75ZM7.875 4.375V6.125H9.625V7.875H7.87412L7.875 9.625H6.125L6.12413 7.875H4.375V6.125H6.125V4.375H7.875ZM14.875 7.875V9.625H13.125V7.875H14.875ZM13.125 4.375V6.125H11.375V4.375H13.125Z" fill="white"/>
</svg>
