<svg width="16" height="16" viewBox="0 0 16 16" fill="none" xmlns="http://www.w3.org/2000/svg">
<path d="M10.9562 0.113505L15.873 5.03036C16.0243 5.18163 16.0243 5.42689 15.873 5.57816C15.815 5.6362 15.7401 5.6743 15.659 5.68697L14.517 5.86551L10.1345 1.48303L10.2988 0.332627C10.3291 0.120849 10.5253 -0.026312 10.7371 0.00394235C10.8201 0.0157956 10.8969 0.0542395 10.9562 0.113505ZM1.6585 14.9194C4.5423 12.3384 7.85242 11.5666 11.4533 10.6426L11.7992 7.53021L8.46987 4.20085L5.3574 4.54668C4.43345 8.14758 3.66155 11.4577 1.08055 14.3415L0 13.261C2.19124 10.7045 3.01296 7.87419 4.10858 3.12646L9.0389 2.57865L13.4214 6.96117L12.8735 11.8914C8.12589 12.987 5.2955 13.8088 2.73906 16L1.6585 14.9194ZM5.75201 10.248C5.14691 9.64287 5.14691 8.66184 5.75201 8.05679C6.35713 7.45165 7.33816 7.45165 7.94321 8.05679C8.54835 8.66184 8.54835 9.64287 7.94321 10.248C7.33816 10.8531 6.35713 10.8531 5.75201 10.248Z" fill="white"/>
</svg>
