<svg width="23" height="16" viewBox="0 0 23 16" fill="none" xmlns="http://www.w3.org/2000/svg">
<path fill-rule="evenodd" clip-rule="evenodd" d="M6.51355 1.80542C6.22452 2.06142 5.88077 2.4609 5.35226 3.08026L2.97187 5.86735C2.42271 6.51045 2.05832 6.93884 1.82297 7.29703C1.6 7.63561 1.54839 7.83174 1.54839 8C1.54839 8.16826 1.6 8.36439 1.82297 8.704C2.05832 9.06116 2.42168 9.48955 2.97187 10.1326L5.35226 12.9197C5.88077 13.5391 6.22452 13.9396 6.51458 14.1956C6.78813 14.4372 6.90581 14.4516 6.96774 14.4516C7.02968 14.4516 7.14735 14.4372 7.42193 14.1956C7.71097 13.9396 8.05471 13.5391 8.58426 12.9197L10.9636 10.1326C11.5128 9.48955 11.8772 9.06116 12.1125 8.704C12.3355 8.36439 12.3871 8.16826 12.3871 8C12.3871 7.83174 12.3355 7.63561 12.1125 7.29703C11.8772 6.93884 11.5138 6.51045 10.9636 5.86735L8.58323 3.08026C8.05471 2.4609 7.71097 2.06142 7.4209 1.80542C7.14735 1.56284 7.02968 1.54839 6.96774 1.54839C6.90581 1.54839 6.78813 1.56284 6.51355 1.80542ZM5.48852 0.645161C5.89419 0.285935 6.36594 0 6.96774 0C7.56955 0 8.04129 0.285935 8.44697 0.645161C8.8289 0.981677 9.24181 1.46787 9.72593 2.03355L12.1724 4.8991C12.6823 5.49471 13.1117 5.99742 13.4059 6.44645C13.7197 6.92232 13.9355 7.41677 13.9355 8C13.9355 8.58323 13.7187 9.07768 13.4059 9.55355C13.1107 10.0026 12.6823 10.5053 12.1734 11.1019L9.72593 13.9675C9.24284 14.5321 8.82787 15.0183 8.44697 15.3548C8.04129 15.7141 7.56955 16 6.96774 16C6.36594 16 5.89419 15.7141 5.48852 15.3548C5.10658 15.0183 4.69368 14.5321 4.20955 13.9665L1.7631 11.1009C1.25316 10.5053 0.823742 10.0026 0.529548 9.55355C0.215742 9.07768 0 8.58323 0 8C0 7.41677 0.216774 6.92232 0.529548 6.44645C0.824774 5.99742 1.25316 5.49471 1.76206 4.89806L4.17445 2.07484L4.20955 2.03355C4.69265 1.46787 5.10761 0.981677 5.48852 0.645161Z" fill="white"/>
<path fill-rule="evenodd" clip-rule="evenodd" d="M11.6465 0.169216C11.8069 0.0411048 12.0117 -0.0180333 12.2157 0.00480932C12.4198 0.027652 12.6064 0.130605 12.7345 0.291022L16.3887 4.86599C16.8759 5.47605 17.2847 5.98805 17.5655 6.44535C17.8648 6.93051 18.0651 7.42289 18.0651 7.99993C18.0651 8.57696 17.8648 9.06934 17.5665 9.55451C17.2847 10.0118 16.8759 10.5238 16.3897 11.1339L12.7345 15.7088C12.6055 15.8665 12.4195 15.9669 12.2169 15.9884C12.0143 16.0099 11.8114 15.9506 11.6522 15.8235C11.493 15.6963 11.3904 15.5116 11.3665 15.3092C11.3426 15.1069 11.3995 14.9033 11.5247 14.7426L15.15 10.2038C15.6733 9.54728 16.0222 9.1096 16.2473 8.74315C16.4609 8.39631 16.5167 8.18676 16.5167 7.99993C16.5167 7.81309 16.4609 7.60354 16.2483 7.2567C16.0212 6.89025 15.6744 6.45154 15.15 5.79605L11.5247 1.25722C11.3966 1.09678 11.3374 0.892027 11.3603 0.687992C11.3831 0.483956 11.4861 0.29735 11.6465 0.169216Z" fill="white"/>
<path fill-rule="evenodd" clip-rule="evenodd" d="M15.7754 0.169216C15.9358 0.0411048 16.1406 -0.0180333 16.3446 0.00480932C16.5487 0.027652 16.7353 0.130605 16.8634 0.291022L20.5176 4.86599C21.0048 5.47605 21.4136 5.98805 21.6944 6.44535C21.9937 6.93051 22.194 7.42289 22.194 7.99993C22.194 8.57696 21.9937 9.06934 21.6954 9.55451C21.4136 10.0118 21.0048 10.5238 20.5186 11.1339L16.8634 15.7088C16.7344 15.8665 16.5484 15.9669 16.3458 15.9884C16.1432 16.0099 15.9403 15.9506 15.7811 15.8235C15.6219 15.6963 15.5193 15.5116 15.4954 15.3092C15.4715 15.1069 15.5284 14.9033 15.6536 14.7426L19.2789 10.2038C19.8033 9.54728 20.1511 9.1096 20.3762 8.74315C20.5898 8.39631 20.6456 8.18676 20.6456 7.99993C20.6456 7.81309 20.5898 7.60354 20.3772 7.2567C20.1501 6.89025 19.8033 6.45154 19.2789 5.79605L15.6536 1.25722C15.5255 1.09678 15.4663 0.892027 15.4892 0.687992C15.512 0.483956 15.615 0.29735 15.7754 0.169216Z" fill="white"/>
</svg>
