<svg width="15" height="16" viewBox="0 0 15 16" fill="none" xmlns="http://www.w3.org/2000/svg">
<path d="M8 0C10.4972 0 12.7271 1.14417 14.1942 2.93686L9.13136 8L14.1942 13.0631C12.7271 14.8558 10.4972 16 8 16C3.58172 16 0 12.4182 0 8C0 3.58172 3.58172 0 8 0ZM8 1.6C4.46538 1.6 1.6 4.46538 1.6 8C1.6 11.5346 4.46538 14.4 8 14.4C9.37856 14.4 10.6838 13.9625 11.7579 13.1819L11.924 13.056L6.86872 8L11.924 2.9432L11.7579 2.81809C10.747 2.08345 9.53136 1.65266 8.24248 1.60452L8 1.6ZM8 2.4C8.66272 2.4 9.2 2.93726 9.2 3.6C9.2 4.26274 8.66272 4.8 8 4.8C7.33728 4.8 6.8 4.26274 6.8 3.6C6.8 2.93726 7.33728 2.4 8 2.4Z" fill="white"/>
</svg>
