<svg width="19" height="16" viewBox="0 0 19 16" fill="none" xmlns="http://www.w3.org/2000/svg">
<path d="M9.26316 0C12.5187 0 15.1579 2.63917 15.1579 5.89474C15.1579 5.99032 15.1556 6.08538 15.1512 6.17985C17.1171 6.87158 18.5263 8.74493 18.5263 10.9474C18.5263 13.7379 16.2642 16 13.4737 16H5.05263C2.26214 16 0 13.7379 0 10.9474C0 8.74493 1.40923 6.87158 3.37519 6.17985C3.37069 6.08538 3.36842 5.99032 3.36842 5.89474C3.36842 2.63917 6.00759 0 9.26316 0ZM9.26316 1.68421C6.93775 1.68421 5.05263 3.56933 5.05263 5.89474C5.05263 5.96334 5.05426 6.03169 5.0575 6.09974L5.11715 7.35234L3.93417 7.76859C2.59739 8.2389 1.68421 9.50644 1.68421 10.9474C1.68421 12.8077 3.1923 14.3158 5.05263 14.3158H13.4737C15.334 14.3158 16.8421 12.8077 16.8421 10.9474C16.8421 9.08632 15.3347 7.57895 13.4737 7.57895C11.9857 7.57895 10.7231 8.54375 10.2772 9.88185L8.67907 9.34914C9.34779 7.3419 11.2421 5.89474 13.4737 5.89474C13.4737 3.56933 11.5885 1.68421 9.26316 1.68421Z" fill="white"/>
</svg>
