<svg width="17" height="14" viewBox="0 0 17 14" fill="none" xmlns="http://www.w3.org/2000/svg">
<path d="M14.8026 2.75799C14.7404 2.51495 14.5646 2.33158 14.3632 2.27502C14.0054 2.17526 12.2684 1.9463 8.59674 1.9463C4.92507 1.9463 3.18841 2.17535 2.82919 2.2753C2.6297 2.33078 2.4539 2.51412 2.39092 2.75799C2.30214 3.10428 2.06934 4.55394 2.06934 6.84183C2.06934 9.12968 2.30214 10.5794 2.39116 10.9267C2.45306 11.1687 2.62889 11.3521 2.8294 11.4084C3.18841 11.5083 4.92507 11.7374 8.59674 11.7374C12.2684 11.7374 14.0054 11.5084 14.3642 11.4084C14.5637 11.3529 14.7396 11.1696 14.8026 10.9257C14.8913 10.5794 15.1241 9.12641 15.1241 6.84183C15.1241 4.55725 14.8913 3.10428 14.8026 2.75799ZM16.3832 2.35277C16.756 3.8066 16.756 6.84183 16.756 6.84183C16.756 6.84183 16.756 9.87706 16.3832 11.3309C16.1756 12.135 15.5696 12.7669 14.8015 12.9805C13.4075 13.3692 8.59674 13.3692 8.59674 13.3692C8.59674 13.3692 3.78881 13.3692 2.39195 12.9805C1.62098 12.764 1.01502 12.1319 0.810181 11.3309C0.4375 9.87706 0.4375 6.84183 0.4375 6.84183C0.4375 6.84183 0.4375 3.8066 0.810181 2.35277C1.01786 1.54872 1.62383 0.91675 2.39195 0.703126C3.78881 0.314453 8.59674 0.314453 8.59674 0.314453C8.59674 0.314453 13.4075 0.314453 14.8015 0.703126C15.5725 0.91972 16.1784 1.55168 16.3832 2.35277ZM6.96489 9.69756V3.9861L11.8604 6.84183L6.96489 9.69756Z" fill="white"/>
</svg>
